RedHatText-MediumItalic.ufo
<glyph name="exclam" format="2">
  <advance width="239"/>
  <unicode hex="0021"/>
  <outline>
    <contour>
      <point x="67" y="215" type="line"/>
      <point x="151" y="215" type="line"/>
      <point x="275" y="727" type="line"/>
      <point x="165" y="727" type="line"/>
    </contour>
    <contour>
      <point x="71" y="-9" type="curve" smooth="yes"/>
      <point x="110" y="-9"/>
      <point x="146" y="28"/>
      <point x="146" y="69" type="curve" smooth="yes"/>
      <point x="146" y="104"/>
      <point x="121" y="131"/>
      <point x="87" y="131" type="curve" smooth="yes"/>
      <point x="45" y="131"/>
      <point x="10" y="95"/>
      <point x="10" y="53" type="curve" smooth="yes"/>
      <point x="10" y="18"/>
      <point x="36" y="-9"/>
    </contour>
  </outline>
</glyph>
<glyph name="numbersign" format="2">
  <advance width="702"/>
  <unicode hex="0023"/>
  <outline>
    <contour>
      <point x="-6" y="0" type="line"/>
      <point x="91" y="0" type="line"/>
      <point x="203" y="203" type="line"/>
      <point x="358" y="203" type="line"/>
      <point x="247" y="0" type="line"/>
      <point x="344" y="0" type="line"/>
      <point x="455" y="203" type="line"/>
      <point x="591" y="203" type="line"/>
      <point x="609" y="287" type="line"/>
      <point x="501" y="287" type="line"/>
      <point x="571" y="413" type="line"/>
      <point x="683" y="413" type="line"/>
      <point x="701" y="497" type="line"/>
      <point x="617" y="497" type="line"/>
      <point x="728" y="700" type="line"/>
      <point x="631" y="700" type="line"/>
      <point x="520" y="497" type="line"/>
      <point x="365" y="497" type="line"/>
      <point x="476" y="700" type="line"/>
      <point x="379" y="700" type="line"/>
      <point x="267" y="497" type="line"/>
      <point x="131" y="497" type="line"/>
      <point x="112" y="413" type="line"/>
      <point x="221" y="413" type="line"/>
      <point x="152" y="287" type="line"/>
      <point x="39" y="287" type="line"/>
      <point x="21" y="203" type="line"/>
      <point x="106" y="203" type="line"/>
    </contour>
    <contour>
      <point x="249" y="287" type="line"/>
      <point x="319" y="413" type="line"/>
      <point x="474" y="413" type="line"/>
      <point x="404" y="287" type="line"/>
    </contour>
  </outline>
</glyph>
<glyph name="dollar" format="2">
  <advance width="558"/>
  <unicode hex="0024"/>
  <outline>
    <contour>
      <point x="174" y="-67" type="line"/>
      <point x="235" y="-67" type="line"/>
      <point x="252" y="18" type="line"/>
      <point x="403" y="18"/>
      <point x="508" y="102"/>
      <point x="508" y="232" type="curve" smooth="yes"/>
      <point x="508" y="301"/>
      <point x="463" y="354"/>
      <point x="378" y="386" type="curve" smooth="yes"/>
      <point x="334" y="401" type="line"/>
      <point x="373" y="582" type="line"/>
      <point x="416" y="571"/>
      <point x="457" y="545"/>
      <point x="495" y="508" type="curve"/>
      <point x="563" y="584" type="line"/>
      <point x="516" y="631"/>
      <point x="455" y="663"/>
      <point x="393" y="676" type="curve"/>
      <point x="412" y="767" type="line"/>
      <point x="351" y="767" type="line"/>
      <point x="333" y="683" type="line"/>
      <point x="182" y="683"/>
      <point x="88" y="608"/>
      <point x="88" y="483" type="curve" smooth="yes"/>
      <point x="88" y="415"/>
      <point x="134" y="357"/>
      <point x="210" y="331" type="curve" smooth="yes"/>
      <point x="255" y="316" type="line"/>
      <point x="213" y="119" type="line"/>
      <point x="166" y="129"/>
      <point x="121" y="153"/>
      <point x="73" y="194" type="curve"/>
      <point x="10" y="113" type="line"/>
      <point x="65" y="65"/>
      <point x="126" y="35"/>
      <point x="193" y="24" type="curve"/>
    </contour>
    <contour>
      <point x="276" y="416" type="line"/>
      <point x="251" y="425" type="line" smooth="yes"/>
      <point x="212" y="439"/>
      <point x="190" y="465"/>
      <point x="190" y="498" type="curve" smooth="yes"/>
      <point x="190" y="554"/>
      <point x="237" y="589"/>
      <point x="313" y="590" type="curve"/>
    </contour>
    <contour>
      <point x="273" y="113" type="curve"/>
      <point x="313" y="300" type="line"/>
      <point x="333" y="292" type="line" smooth="yes"/>
      <point x="380" y="274"/>
      <point x="404" y="248"/>
      <point x="404" y="213" type="curve" smooth="yes"/>
      <point x="404" y="153"/>
      <point x="352" y="115"/>
    </contour>
  </outline>
</glyph>
<glyph name="ampersand" format="2">
  <advance width="668"/>
  <unicode hex="0026"/>
  <outline>
    <contour>
      <point x="612" y="65" type="line"/>
      <point x="586" y="87"/>
      <point x="558" y="112"/>
      <point x="531" y="139" type="curve"/>
      <point x="577" y="192"/>
      <point x="617" y="259"/>
      <point x="652" y="340" type="curve"/>
      <point x="558" y="366" type="line"/>
      <point x="532" y="302"/>
      <point x="501" y="248"/>
      <point x="466" y="205" type="curve"/>
      <point x="421" y="256"/>
      <point x="378" y="311"/>
      <point x="341" y="366" type="curve"/>
      <point x="397" y="394" type="line" smooth="yes"/>
      <point x="490" y="440"/>
      <point x="534" y="498"/>
      <point x="534" y="571" type="curve" smooth="yes"/>
      <point x="534" y="653"/>
      <point x="467" y="711"/>
      <point x="371" y="711" type="curve" smooth="yes"/>
      <point x="254" y="711"/>
      <point x="171" y="629"/>
      <point x="171" y="515" type="curve" smooth="yes"/>
      <point x="171" y="477"/>
      <point x="178" y="444"/>
      <point x="202" y="394" type="curve"/>
      <point x="71" y="334"/>
      <point x="18" y="266"/>
      <point x="18" y="171" type="curve" smooth="yes"/>
      <point x="18" y="61"/>
      <point x="108" y="-11"/>
      <point x="246" y="-11" type="curve" smooth="yes"/>
      <point x="322" y="-11"/>
      <point x="393" y="14"/>
      <point x="454" y="62" type="curve"/>
      <point x="482" y="34"/>
      <point x="510" y="8"/>
      <point x="537" y="-13" type="curve"/>
    </contour>
    <contour>
      <point x="273" y="528" type="curve" smooth="yes"/>
      <point x="273" y="585"/>
      <point x="309" y="626"/>
      <point x="361" y="626" type="curve" smooth="yes"/>
      <point x="403" y="626"/>
      <point x="431" y="599"/>
      <point x="431" y="558" type="curve" smooth="yes"/>
      <point x="431" y="519"/>
      <point x="405" y="487"/>
      <point x="353" y="461" type="curve" smooth="yes"/>
      <point x="300" y="436" type="line"/>
      <point x="281" y="472"/>
      <point x="273" y="499"/>
    </contour>
    <contour>
      <point x="124" y="188" type="curve" smooth="yes"/>
      <point x="124" y="241"/>
      <point x="156" y="281"/>
      <point x="244" y="322" type="curve"/>
      <point x="297" y="242"/>
      <point x="343" y="181"/>
      <point x="392" y="127" type="curve"/>
      <point x="350" y="96"/>
      <point x="306" y="80"/>
      <point x="259" y="80" type="curve" smooth="yes"/>
      <point x="177" y="80"/>
      <point x="124" y="122"/>
    </contour>
  </outline>
</glyph>
<glyph name="parenleft" format="2">
  <advance width="406"/>
  <unicode hex="0028"/>
  <outline>
    <contour>
      <point x="208" y="-218" type="curve"/>
      <point x="281" y="-152" type="line"/>
      <point x="199" y="-82"/>
      <point x="156" y="21"/>
      <point x="156" y="147" type="curve" smooth="yes"/>
      <point x="156" y="355"/>
      <point x="270" y="547"/>
      <point x="444" y="633" type="curve"/>
      <point x="400" y="711" type="line"/>
      <point x="189" y="609"/>
      <point x="55" y="385"/>
      <point x="55" y="136" type="curve" smooth="yes"/>
      <point x="55" y="-14"/>
      <point x="107" y="-136"/>
    </contour>
  </outline>
</glyph>
<glyph name="parenright" format="2">
  <advance width="406"/>
  <unicode hex="0029"/>
  <outline>
    <contour>
      <point x="197" y="711" type="curve"/>
      <point x="124" y="645" type="line"/>
      <point x="206" y="575"/>
      <point x="249" y="472"/>
      <point x="249" y="347" type="curve" smooth="yes"/>
      <point x="249" y="138"/>
      <point x="135" y="-54"/>
      <point x="-39" y="-140" type="curve"/>
      <point x="5" y="-218" type="line"/>
      <point x="216" y="-115"/>
      <point x="350" y="109"/>
      <point x="350" y="357" type="curve" smooth="yes"/>
      <point x="350" y="507"/>
      <point x="298" y="629"/>
    </contour>
  </outline>
</glyph>
<glyph name="asterisk" format="2">
  <advance width="463"/>
  <unicode hex="002A"/>
  <outline>
    <contour>
      <point x="211" y="326" type="line"/>
      <point x="282" y="326" type="line"/>
      <point x="306" y="448" type="line"/>
      <point x="392" y="374" type="line"/>
      <point x="444" y="433" type="line"/>
      <point x="351" y="508" type="line"/>
      <point x="475" y="570" type="line"/>
      <point x="447" y="637" type="line"/>
      <point x="333" y="577" type="line"/>
      <point x="360" y="700" type="line"/>
      <point x="290" y="700" type="line"/>
      <point x="266" y="579" type="line"/>
      <point x="178" y="654" type="line"/>
      <point x="128" y="596" type="line"/>
      <point x="222" y="519" type="line"/>
      <point x="99" y="458" type="line"/>
      <point x="125" y="390" type="line"/>
      <point x="239" y="451" type="line"/>
    </contour>
  </outline>
</glyph>
<glyph name="plus" format="2">
  <advance width="599"/>
  <unicode hex="002B"/>
  <outline>
    <contour>
      <point x="233" y="135" type="line"/>
      <point x="320" y="135" type="line"/>
      <point x="358" y="312" type="line"/>
      <point x="524" y="312" type="line"/>
      <point x="543" y="401" type="line"/>
      <point x="377" y="401" type="line"/>
      <point x="415" y="578" type="line"/>
      <point x="327" y="578" type="line"/>
      <point x="289" y="401" type="line"/>
      <point x="123" y="401" type="line"/>
      <point x="104" y="312" type="line"/>
      <point x="270" y="312" type="line"/>
    </contour>
  </outline>
</glyph>
<glyph name="hyphen" format="2">
  <advance width="453"/>
  <unicode hex="002D"/>
  <outline>
    <contour>
      <point x="51" y="236" type="line"/>
      <point x="393" y="236" type="line"/>
      <point x="413" y="332" type="line"/>
      <point x="72" y="332" type="line"/>
    </contour>
  </outline>
</glyph>
<glyph name="period" format="2">
  <advance width="250"/>
  <unicode hex="002E"/>
  <outline>
    <contour>
      <point x="76" y="-9" type="curve" smooth="yes"/>
      <point x="116" y="-9"/>
      <point x="152" y="29"/>
      <point x="152" y="71" type="curve" smooth="yes"/>
      <point x="152" y="108"/>
      <point x="127" y="136"/>
      <point x="92" y="136" type="curve" smooth="yes"/>
      <point x="51" y="136"/>
      <point x="15" y="99"/>
      <point x="15" y="55" type="curve" smooth="yes"/>
      <point x="15" y="18"/>
      <point x="41" y="-9"/>
    </contour>
  </outline>
</glyph>
<glyph name="slash" format="2">
  <advance width="493"/>
  <unicode hex="002F"/>
  <outline>
    <contour>
      <point x="-149" y="-209" type="line"/>
      <point x="-34" y="-209" type="line"/>
      <point x="551" y="700" type="line"/>
      <point x="437" y="700" type="line"/>
    </contour>
  </outline>
</glyph>
<glyph name="zero" format="2">
  <advance width="664"/>
  <unicode hex="0030"/>
  <outline>
    <contour>
      <point x="399" y="711" type="curve" smooth="yes"/>
      <point x="215" y="711"/>
      <point x="62" y="509"/>
      <point x="62" y="267" type="curve" smooth="yes"/>
      <point x="62" y="98"/>
      <point x="157" y="-11"/>
      <point x="305" y="-11" type="curve" smooth="yes"/>
      <point x="490" y="-11"/>
      <point x="642" y="191"/>
      <point x="642" y="434" type="curve" smooth="yes"/>
      <point x="642" y="603"/>
      <point x="547" y="711"/>
    </contour>
    <contour>
      <point x="388" y="614" type="curve" smooth="yes"/>
      <point x="479" y="614"/>
      <point x="534" y="545"/>
      <point x="534" y="429" type="curve" smooth="yes"/>
      <point x="534" y="243"/>
      <point x="435" y="86"/>
      <point x="317" y="86" type="curve" smooth="yes"/>
      <point x="226" y="86"/>
      <point x="170" y="156"/>
      <point x="170" y="271" type="curve" smooth="yes"/>
      <point x="170" y="457"/>
      <point x="270" y="614"/>
    </contour>
  </outline>
</glyph>
<glyph name="one" format="2">
  <advance width="336"/>
  <unicode hex="0031"/>
  <outline>
    <contour>
      <point x="103" y="0" type="line"/>
      <point x="210" y="0" type="line"/>
      <point x="359" y="700" type="line"/>
      <point x="292" y="700" type="line"/>
      <point x="115" y="629" type="line"/>
      <point x="94" y="532" type="line"/>
      <point x="227" y="585" type="line"/>
    </contour>
  </outline>
</glyph>
<glyph name="four" format="2">
  <advance width="638"/>
  <unicode hex="0034"/>
  <outline>
    <contour>
      <point x="353" y="0" type="line"/>
      <point x="459" y="0" type="line"/>
      <point x="496" y="173" type="line"/>
      <point x="585" y="173" type="line"/>
      <point x="606" y="267" type="line"/>
      <point x="515" y="267" type="line"/>
      <point x="608" y="700" type="line"/>
      <point x="487" y="700" type="line"/>
      <point x="41" y="262" type="line"/>
      <point x="21" y="173" type="line"/>
      <point x="389" y="173" type="line"/>
    </contour>
    <contour>
      <point x="159" y="267" type="line"/>
      <point x="476" y="580" type="line"/>
      <point x="409" y="267" type="line"/>
    </contour>
  </outline>
</glyph>
<glyph name="nine" format="2">
  <advance width="620"/>
  <unicode hex="0039"/>
  <outline>
    <contour>
      <point x="340" y="711" type="curve" smooth="yes"/>
      <point x="199" y="711"/>
      <point x="78" y="606"/>
      <point x="78" y="461" type="curve" smooth="yes"/>
      <point x="78" y="350"/>
      <point x="165" y="265"/>
      <point x="290" y="265" type="curve" smooth="yes"/>
      <point x="361" y="265"/>
      <point x="429" y="299"/>
      <point x="481" y="360" type="curve"/>
      <point x="460" y="196"/>
      <point x="357" y="86"/>
      <point x="236" y="86" type="curve" smooth="yes"/>
      <point x="186" y="86"/>
      <point x="140" y="104"/>
      <point x="94" y="144" type="curve"/>
      <point x="29" y="63" type="line"/>
      <point x="83" y="16"/>
      <point x="150" y="-11"/>
      <point x="231" y="-11" type="curve" smooth="yes"/>
      <point x="429" y="-11"/>
      <point x="591" y="168"/>
      <point x="591" y="425" type="curve" smooth="yes"/>
      <point x="591" y="604"/>
      <point x="483" y="711"/>
    </contour>
    <contour>
      <point x="330" y="616" type="curve" smooth="yes"/>
      <point x="421" y="616"/>
      <point x="484" y="545"/>
      <point x="485" y="423" type="curve"/>
      <point x="438" y="377"/>
      <point x="379" y="350"/>
      <point x="317" y="350" type="curve" smooth="yes"/>
      <point x="238" y="350"/>
      <point x="184" y="400"/>
      <point x="184" y="470" type="curve" smooth="yes"/>
      <point x="184" y="553"/>
      <point x="248" y="616"/>
    </contour>
  </outline>
</glyph>
<glyph name="less" format="2">
  <advance width="599"/>
  <unicode hex="003C"/>
  <outline>
    <contour>
      <point x="401" y="76" type="line"/>
      <point x="471" y="142" type="line"/>
      <point x="261" y="343" type="line"/>
      <point x="559" y="548" type="line"/>
      <point x="513" y="620" type="line"/>
      <point x="124" y="348" type="line"/>
    </contour>
  </outline>
</glyph>
<glyph name="greater" format="2">
  <advance width="600"/>
  <unicode hex="003E"/>
  <outline>
    <contour>
      <point x="243" y="620" type="line"/>
      <point x="173" y="554" type="line"/>
      <point x="383" y="354" type="line"/>
      <point x="85" y="148" type="line"/>
      <point x="131" y="76" type="line"/>
      <point x="520" y="348" type="line"/>
    </contour>
  </outline>
</glyph>
<glyph name="question" format="2">
  <advance width="512"/>
  <unicode hex="003F"/>
  <outline>
    <contour>
      <point x="182" y="-9" type="curve" smooth="yes"/>
      <point x="222" y="-9"/>
      <point x="258" y="28"/>
      <point x="258" y="69" type="curve" smooth="yes"/>
      <point x="258" y="104"/>
      <point x="233" y="131"/>
      <point x="198" y="131" type="curve" smooth="yes"/>
      <point x="157" y="131"/>
      <point x="121" y="95"/>
      <point x="121" y="53" type="curve" smooth="yes"/>
      <point x="121" y="18"/>
      <point x="147" y="-9"/>
    </contour>
    <contour>
      <point x="173" y="217" type="curve"/>
      <point x="264" y="217" type="line"/>
      <point x="273" y="269"/>
      <point x="293" y="298"/>
      <point x="342" y="326" type="curve" smooth="yes"/>
      <point x="387" y="352" type="line" smooth="yes"/>
      <point x="486" y="411"/>
      <point x="528" y="470"/>
      <point x="528" y="547" type="curve" smooth="yes"/>
      <point x="528" y="643"/>
      <point x="447" y="708"/>
      <point x="331" y="708" type="curve" smooth="yes"/>
      <point x="241" y="708"/>
      <point x="153" y="661"/>
      <point x="94" y="581" type="curve"/>
      <point x="169" y="533" type="line"/>
      <point x="207" y="582"/>
      <point x="261" y="611"/>
      <point x="316" y="611" type="curve" smooth="yes"/>
      <point x="379" y="611"/>
      <point x="420" y="579"/>
      <point x="420" y="531" type="curve"/>
      <point x="420" y="494"/>
      <point x="394" y="458"/>
      <point x="346" y="428" type="curve" smooth="yes"/>
      <point x="285" y="391" type="line" smooth="yes"/>
      <point x="217" y="351"/>
      <point x="187" y="305"/>
    </contour>
  </outline>
</glyph>
<glyph name="at" format="2">
  <advance width="765"/>
  <unicode hex="0040"/>
  <outline>
    <contour>
      <point x="394" y="-144" type="curve" smooth="yes"/>
      <point x="458" y="-144"/>
      <point x="517" y="-129"/>
      <point x="575" y="-100" type="curve"/>
      <point x="554" y="-49" type="line"/>
      <point x="507" y="-75"/>
      <point x="453" y="-88"/>
      <point x="395" y="-88" type="curve" smooth="yes"/>
      <point x="225" y="-88"/>
      <point x="104" y="37"/>
      <point x="104" y="211" type="curve" smooth="yes"/>
      <point x="104" y="389"/>
      <point x="229" y="526"/>
      <point x="389" y="526" type="curve" smooth="yes"/>
      <point x="540" y="526"/>
      <point x="654" y="416"/>
      <point x="654" y="269" type="curve" smooth="yes"/>
      <point x="654" y="176"/>
      <point x="609" y="108"/>
      <point x="546" y="108" type="curve" smooth="yes"/>
      <point x="510" y="108"/>
      <point x="492" y="131"/>
      <point x="501" y="171" type="curve" smooth="yes"/>
      <point x="540" y="370" type="line"/>
      <point x="465" y="370" type="line"/>
      <point x="461" y="348" type="line"/>
      <point x="438" y="370"/>
      <point x="406" y="383"/>
      <point x="370" y="383" type="curve" smooth="yes"/>
      <point x="278" y="383"/>
      <point x="204" y="303"/>
      <point x="204" y="202" type="curve" smooth="yes"/>
      <point x="204" y="116"/>
      <point x="264" y="49"/>
      <point x="342" y="49" type="curve" smooth="yes"/>
      <point x="377" y="49"/>
      <point x="412" y="64"/>
      <point x="442" y="91" type="curve"/>
      <point x="460" y="65"/>
      <point x="492" y="51"/>
      <point x="537" y="51" type="curve" smooth="yes"/>
      <point x="638" y="51"/>
      <point x="712" y="144"/>
      <point x="712" y="274" type="curve" smooth="yes"/>
      <point x="712" y="447"/>
      <point x="573" y="579"/>
      <point x="392" y="579" type="curve" smooth="yes"/>
      <point x="194" y="579"/>
      <point x="47" y="421"/>
      <point x="47" y="207" type="curve" smooth="yes"/>
      <point x="47" y="5"/>
      <point x="194" y="-144"/>
    </contour>
    <contour>
      <point x="276" y="209" type="curve" smooth="yes"/>
      <point x="276" y="268"/>
      <point x="319" y="317"/>
      <point x="371" y="317" type="curve" smooth="yes"/>
      <point x="404" y="317"/>
      <point x="431" y="303"/>
      <point x="448" y="278" type="curve"/>
      <point x="429" y="180" type="line" smooth="yes"/>
      <point x="427" y="167"/>
      <point x="426" y="154"/>
      <point x="427" y="143" type="curve"/>
      <point x="407" y="123"/>
      <point x="383" y="113"/>
      <point x="359" y="113" type="curve" smooth="yes"/>
      <point x="311" y="113"/>
      <point x="276" y="152"/>
    </contour>
  </outline>
</glyph>
<glyph name="A" format="2">
  <advance width="683"/>
  <unicode hex="0041"/>
  <anchor x="429" y="700" name="top"/>
  <anchor x="623" y="0" name="bottom"/>
  <outline>
    <contour>
      <point x="-49" y="0" type="line"/>
      <point x="81" y="0" type="line"/>
      <point x="192" y="196" type="line"/>
      <point x="472" y="196" type="line"/>
      <point x="502" y="0" type="line"/>
      <point x="623" y="0" type="line"/>
      <point x="503" y="700" type="line"/>
      <point x="366" y="700" type="line"/>
    </contour>
    <contour>
      <point x="244" y="290" type="line"/>
      <point x="412" y="586" type="line"/>
      <point x="458" y="290" type="line"/>
    </contour>
  </outline>
</glyph>
<glyph name="B" format="2">
  <advance width="683"/>
  <unicode hex="0042"/>
  <outline>
    <contour>
      <point x="28" y="0" type="line"/>
      <point x="367" y="0" type="line" smooth="yes"/>
      <point x="510" y="0"/>
      <point x="620" y="94"/>
      <point x="620" y="216" type="curve" smooth="yes"/>
      <point x="620" y="282"/>
      <point x="580" y="333"/>
      <point x="514" y="357" type="curve"/>
      <point x="599" y="386"/>
      <point x="656" y="455"/>
      <point x="656" y="540" type="curve" smooth="yes"/>
      <point x="656" y="637"/>
      <point x="580" y="700"/>
      <point x="462" y="700" type="curve" smooth="yes"/>
      <point x="177" y="700" type="line"/>
    </contour>
    <contour>
      <point x="231" y="405" type="line"/>
      <point x="273" y="602" type="line"/>
      <point x="438" y="602" type="line" smooth="yes"/>
      <point x="499" y="602"/>
      <point x="536" y="570"/>
      <point x="536" y="518" type="curve" smooth="yes"/>
      <point x="536" y="452"/>
      <point x="484" y="405"/>
      <point x="410" y="405" type="curve" smooth="yes"/>
    </contour>
    <contour>
      <point x="166" y="98" type="line"/>
      <point x="212" y="313" type="line"/>
      <point x="393" y="313" type="line" smooth="yes"/>
      <point x="461" y="313"/>
      <point x="502" y="278"/>
      <point x="502" y="221" type="curve" smooth="yes"/>
      <point x="502" y="149"/>
      <point x="445" y="98"/>
      <point x="364" y="98" type="curve" smooth="yes"/>
    </contour>
  </outline>
</glyph>
<glyph name="C" format="2">
  <advance width="712"/>
  <unicode hex="0043"/>
  <anchor x="447" y="700" name="top"/>
  <anchor x="379" y="0" name="bottom"/>
  <outline>
    <contour>
      <point x="398" y="-11" type="curve" smooth="yes"/>
      <point x="494" y="-11"/>
      <point x="592" y="32"/>
      <point x="665" y="103" type="curve"/>
      <point x="601" y="182" type="line"/>
      <point x="547" y="127"/>
      <point x="479" y="96"/>
      <point x="411" y="96" type="curve" smooth="yes"/>
      <point x="284" y="96"/>
      <point x="191" y="194"/>
      <point x="191" y="327" type="curve" smooth="yes"/>
      <point x="191" y="480"/>
      <point x="302" y="602"/>
      <point x="442" y="602" type="curve" smooth="yes"/>
      <point x="521" y="602"/>
      <point x="587" y="566"/>
      <point x="626" y="499" type="curve"/>
      <point x="717" y="574" type="line"/>
      <point x="660" y="663"/>
      <point x="566" y="710"/>
      <point x="448" y="710" type="curve" smooth="yes"/>
      <point x="241" y="710"/>
      <point x="70" y="535"/>
      <point x="70" y="321" type="curve" smooth="yes"/>
      <point x="70" y="133"/>
      <point x="212" y="-11"/>
    </contour>
  </outline>
</glyph>
<glyph name="D" format="2">
  <advance width="730"/>
  <unicode hex="0044"/>
  <anchor x="452" y="700" name="top"/>
  <outline>
    <contour>
      <point x="28" y="0" type="line"/>
      <point x="312" y="0" type="line" smooth="yes"/>
      <point x="524" y="0"/>
      <point x="699" y="177"/>
      <point x="699" y="389" type="curve" smooth="yes"/>
      <point x="699" y="571"/>
      <point x="573" y="700"/>
      <point x="396" y="700" type="curve" smooth="yes"/>
      <point x="177" y="700" type="line"/>
    </contour>
    <contour>
      <point x="386" y="596" type="line" smooth="yes"/>
      <point x="498" y="596"/>
      <point x="576" y="508"/>
      <point x="576" y="382" type="curve" smooth="yes"/>
      <point x="576" y="228"/>
      <point x="464" y="104"/>
      <point x="325" y="104" type="curve" smooth="yes"/>
      <point x="167" y="104" type="line"/>
      <point x="272" y="596" type="line"/>
    </contour>
  </outline>
</glyph>
<glyph name="E" format="2">
  <advance width="630"/>
  <unicode hex="0045"/>
  <anchor x="417" y="700" name="top"/>
  <anchor x="523" y="0" name="bottom"/>
  <outline>
    <contour>
      <point x="28" y="0" type="line"/>
      <point x="523" y="0" type="line"/>
      <point x="545" y="102" type="line"/>
      <point x="167" y="102" type="line"/>
      <point x="210" y="303" type="line"/>
      <point x="471" y="303" type="line"/>
      <point x="492" y="403" type="line"/>
      <point x="231" y="403" type="line"/>
      <point x="273" y="598" type="line"/>
      <point x="645" y="598" type="line"/>
      <point x="668" y="700" type="line"/>
      <point x="177" y="700" type="line"/>
    </contour>
  </outline>
</glyph>
<glyph name="F" format="2">
  <advance width="622"/>
  <unicode hex="0046"/>
  <outline>
    <contour>
      <point x="28" y="0" type="line"/>
      <point x="145" y="0" type="line"/>
      <point x="209" y="298" type="line"/>
      <point x="468" y="298" type="line"/>
      <point x="489" y="398" type="line"/>
      <point x="230" y="398" type="line"/>
      <point x="273" y="598" type="line"/>
      <point x="647" y="598" type="line"/>
      <point x="670" y="700" type="line"/>
      <point x="177" y="700" type="line"/>
    </contour>
  </outline>
</glyph>
<glyph name="G" format="2">
  <advance width="787"/>
  <unicode hex="0047"/>
  <anchor x="448" y="700" name="top"/>
  <anchor x="392" y="0" name="bottom"/>
  <outline>
    <contour>
      <point x="390" y="-10" type="curve" smooth="yes"/>
      <point x="567" y="-10"/>
      <point x="714" y="126"/>
      <point x="750" y="321" type="curve" smooth="yes"/>
      <point x="762" y="382" type="line"/>
      <point x="435" y="382" type="line"/>
      <point x="415" y="280" type="line"/>
      <point x="619" y="280" type="line"/>
      <point x="594" y="171"/>
      <point x="505" y="96"/>
      <point x="401" y="96" type="curve" smooth="yes"/>
      <point x="278" y="96"/>
      <point x="187" y="191"/>
      <point x="187" y="323" type="curve" smooth="yes"/>
      <point x="187" y="478"/>
      <point x="301" y="603"/>
      <point x="441" y="603" type="curve" smooth="yes"/>
      <point x="525" y="603"/>
      <point x="599" y="564"/>
      <point x="638" y="497" type="curve"/>
      <point x="730" y="572" type="line"/>
      <point x="671" y="660"/>
      <point x="569" y="711"/>
      <point x="450" y="711" type="curve" smooth="yes"/>
      <point x="243" y="711"/>
      <point x="67" y="531"/>
      <point x="67" y="316" type="curve" smooth="yes"/>
      <point x="67" y="130"/>
      <point x="206" y="-10"/>
    </contour>
  </outline>
</glyph>
<glyph name="H" format="2">
  <advance width="731"/>
  <unicode hex="0048"/>
  <anchor x="461" y="700" name="top"/>
  <outline>
    <contour>
      <point x="22" y="0" type="line"/>
      <point x="140" y="0" type="line"/>
      <point x="204" y="299" type="line"/>
      <point x="546" y="299" type="line"/>
      <point x="482" y="0" type="line"/>
      <point x="599" y="0" type="line"/>
      <point x="748" y="700" type="line"/>
      <point x="631" y="700" type="line"/>
      <point x="568" y="406" type="line"/>
      <point x="226" y="406" type="line"/>
      <point x="289" y="700" type="line"/>
      <point x="171" y="700" type="line"/>
    </contour>
  </outline>
</glyph>
<glyph name="J" format="2">
  <advance width="619"/>
  <unicode hex="004A"/>
  <anchor x="586" y="700" name="top"/>
  <outline>
    <contour>
      <point x="261" y="-10" type="curve" smooth="yes"/>
      <point x="406" y="-10"/>
      <point x="514" y="87"/>
      <point x="549" y="251" type="curve" smooth="yes"/>
      <point x="645" y="700" type="line"/>
      <point x="526" y="700" type="line"/>
      <point x="435" y="269" type="line" smooth="yes"/>
      <point x="412" y="162"/>
      <point x="345" y="96"/>
      <point x="259" y="96" type="curve" smooth="yes"/>
      <point x="183" y="96"/>
      <point x="139" y="140"/>
      <point x="126" y="228" type="curve"/>
      <point x="17" y="191" type="line"/>
      <point x="37" y="64"/>
      <point x="127" y="-10"/>
    </contour>
  </outline>
</glyph>
<glyph name="K" format="2">
  <advance width="654"/>
  <unicode hex="004B"/>
  <anchor x="300" y="0" name="bottom"/>
  <outline>
    <contour>
      <point x="28" y="0" type="line"/>
      <point x="145" y="0" type="line"/>
      <point x="216" y="334" type="line"/>
      <point x="449" y="0" type="line"/>
      <point x="595" y="0" type="line"/>
      <point x="335" y="360" type="line"/>
      <point x="740" y="700" type="line"/>
      <point x="587" y="700" type="line"/>
      <point x="228" y="391" type="line"/>
      <point x="294" y="700" type="line"/>
      <point x="177" y="700" type="line"/>
    </contour>
  </outline>
</glyph>
<glyph name="M" format="2">
  <advance width="873"/>
  <unicode hex="004D"/>
  <outline>
    <contour>
      <point x="28" y="0" type="line"/>
      <point x="139" y="0" type="line"/>
      <point x="256" y="553" type="line"/>
      <point x="395" y="50" type="line"/>
      <point x="742" y="547" type="line"/>
      <point x="626" y="0" type="line"/>
      <point x="735" y="0" type="line"/>
      <point x="884" y="700" type="line"/>
      <point x="726" y="700" type="line"/>
      <point x="438" y="275" type="line"/>
      <point x="326" y="700" type="line"/>
      <point x="177" y="700" type="line"/>
    </contour>
  </outline>
</glyph>
<glyph name="N" format="2">
  <advance width="747"/>
  <unicode hex="004E"/>
  <anchor x="460" y="700" name="top"/>
  <anchor x="312" y="0" name="bottom"/>
  <outline>
    <contour>
      <point x="28" y="0" type="line"/>
      <point x="139" y="0" type="line"/>
      <point x="248" y="533" type="line"/>
      <point x="505" y="0" type="line"/>
      <point x="609" y="0" type="line"/>
      <point x="758" y="700" type="line"/>
      <point x="647" y="700" type="line"/>
      <point x="542" y="180" type="line"/>
      <point x="291" y="700" type="line"/>
      <point x="177" y="700" type="line"/>
    </contour>
  </outline>
</glyph>
<glyph name="O" format="2">
  <advance width="796"/>
  <unicode hex="004F"/>
  <anchor x="451" y="700" name="top"/>
  <outline>
    <contour>
      <point x="392" y="-11" type="curve" smooth="yes"/>
      <point x="596" y="-11"/>
      <point x="765" y="166"/>
      <point x="765" y="380" type="curve" smooth="yes"/>
      <point x="765" y="569"/>
      <point x="627" y="711"/>
      <point x="443" y="711" type="curve" smooth="yes"/>
      <point x="239" y="711"/>
      <point x="70" y="534"/>
      <point x="70" y="320" type="curve" smooth="yes"/>
      <point x="70" y="131"/>
      <point x="208" y="-11"/>
    </contour>
    <contour>
      <point x="400" y="97" type="curve" smooth="yes"/>
      <point x="279" y="97"/>
      <point x="190" y="195"/>
      <point x="190" y="327" type="curve" smooth="yes"/>
      <point x="190" y="479"/>
      <point x="300" y="603"/>
      <point x="436" y="603" type="curve" smooth="yes"/>
      <point x="556" y="603"/>
      <point x="645" y="506"/>
      <point x="645" y="373" type="curve" smooth="yes"/>
      <point x="645" y="221"/>
      <point x="535" y="97"/>
    </contour>
  </outline>
</glyph>
<glyph name="P" format="2">
  <advance width="666"/>
  <unicode hex="0050"/>
  <outline>
    <contour>
      <point x="28" y="0" type="line"/>
      <point x="145" y="0" type="line"/>
      <point x="202" y="267" type="line"/>
      <point x="410" y="267" type="line" smooth="yes"/>
      <point x="558" y="267"/>
      <point x="668" y="369"/>
      <point x="668" y="506" type="curve" smooth="yes"/>
      <point x="668" y="625"/>
      <point x="585" y="700"/>
      <point x="456" y="700" type="curve" smooth="yes"/>
      <point x="177" y="700" type="line"/>
    </contour>
    <contour>
      <point x="223" y="365" type="line"/>
      <point x="273" y="599" type="line"/>
      <point x="431" y="599" type="line" smooth="yes"/>
      <point x="505" y="599"/>
      <point x="549" y="561"/>
      <point x="549" y="498" type="curve" smooth="yes"/>
      <point x="549" y="418"/>
      <point x="489" y="365"/>
      <point x="402" y="365" type="curve" smooth="yes"/>
    </contour>
  </outline>
</glyph>
<glyph name="Q" format="2">
  <advance width="796"/>
  <unicode hex="0051"/>
  <outline>
    <contour>
      <point x="574" y="-35" type="line"/>
      <point x="680" y="-22" type="line"/>
      <point x="623" y="74" type="line"/>
      <point x="708" y="146"/>
      <point x="765" y="257"/>
      <point x="765" y="380" type="curve" smooth="yes"/>
      <point x="765" y="569"/>
      <point x="627" y="711"/>
      <point x="443" y="711" type="curve" smooth="yes"/>
      <point x="239" y="711"/>
      <point x="70" y="534"/>
      <point x="70" y="320" type="curve" smooth="yes"/>
      <point x="70" y="131"/>
      <point x="208" y="-11"/>
      <point x="392" y="-11" type="curve" smooth="yes"/>
      <point x="444" y="-11"/>
      <point x="494" y="1"/>
      <point x="539" y="23" type="curve"/>
    </contour>
    <contour>
      <point x="400" y="97" type="curve" smooth="yes"/>
      <point x="279" y="97"/>
      <point x="190" y="195"/>
      <point x="190" y="327" type="curve" smooth="yes"/>
      <point x="190" y="479"/>
      <point x="300" y="603"/>
      <point x="436" y="603" type="curve" smooth="yes"/>
      <point x="556" y="603"/>
      <point x="645" y="506"/>
      <point x="645" y="373" type="curve" smooth="yes"/>
      <point x="645" y="293"/>
      <point x="614" y="221"/>
      <point x="566" y="171" type="curve"/>
      <point x="520" y="247" type="line"/>
      <point x="415" y="235" type="line"/>
      <point x="485" y="117" type="line"/>
      <point x="459" y="104"/>
      <point x="430" y="97"/>
    </contour>
  </outline>
</glyph>
<glyph name="R" format="2">
  <advance width="659"/>
  <unicode hex="0052"/>
  <anchor x="415" y="700" name="top"/>
  <anchor x="274" y="0" name="bottom"/>
  <outline>
    <contour>
      <point x="28" y="0" type="line"/>
      <point x="145" y="0" type="line"/>
      <point x="205" y="281" type="line"/>
      <point x="368" y="281" type="line"/>
      <point x="454" y="0" type="line"/>
      <point x="578" y="0" type="line"/>
      <point x="483" y="289" type="line"/>
      <point x="591" y="314"/>
      <point x="667" y="402"/>
      <point x="667" y="511" type="curve" smooth="yes"/>
      <point x="667" y="625"/>
      <point x="585" y="700"/>
      <point x="460" y="700" type="curve" smooth="yes"/>
      <point x="177" y="700" type="line"/>
    </contour>
    <contour>
      <point x="225" y="377" type="line"/>
      <point x="273" y="599" type="line"/>
      <point x="441" y="599" type="line" smooth="yes"/>
      <point x="506" y="599"/>
      <point x="548" y="561"/>
      <point x="548" y="502" type="curve" smooth="yes"/>
      <point x="548" y="429"/>
      <point x="491" y="377"/>
      <point x="412" y="377" type="curve" smooth="yes"/>
    </contour>
  </outline>
</glyph>
<glyph name="T" format="2">
  <advance width="626"/>
  <unicode hex="0054"/>
  <anchor x="408" y="700" name="top"/>
  <anchor x="259" y="0" name="bottom"/>
  <outline>
    <contour>
      <point x="200" y="0" type="line"/>
      <point x="317" y="0" type="line"/>
      <point x="445" y="596" type="line"/>
      <point x="672" y="596" type="line"/>
      <point x="695" y="700" type="line"/>
      <point x="119" y="700" type="line"/>
      <point x="96" y="596" type="line"/>
      <point x="327" y="596" type="line"/>
    </contour>
  </outline>
</glyph>
<glyph name="U" format="2">
  <advance width="714"/>
  <unicode hex="0055"/>
  <anchor x="442" y="700" name="top"/>
  <anchor x="406" y="0" name="bottom"/>
  <outline>
    <contour>
      <point x="331" y="-11" type="curve" smooth="yes"/>
      <point x="494" y="-11"/>
      <point x="610" y="96"/>
      <point x="650" y="280" type="curve" smooth="yes"/>
      <point x="739" y="700" type="line"/>
      <point x="622" y="700" type="line"/>
      <point x="535" y="290" type="line" smooth="yes"/>
      <point x="509" y="170"/>
      <point x="434" y="97"/>
      <point x="338" y="97" type="curve" smooth="yes"/>
      <point x="228" y="97"/>
      <point x="170" y="182"/>
      <point x="197" y="307" type="curve" smooth="yes"/>
      <point x="281" y="700" type="line"/>
      <point x="163" y="700" type="line"/>
      <point x="82" y="317" type="line" smooth="yes"/>
      <point x="40" y="124"/>
      <point x="142" y="-11"/>
    </contour>
  </outline>
</glyph>
<glyph name="V" format="2">
  <advance width="683"/>
  <unicode hex="0056"/>
  <outline>
    <contour>
      <point x="221" y="0" type="line"/>
      <point x="358" y="0" type="line"/>
      <point x="771" y="700" type="line"/>
      <point x="644" y="700" type="line"/>
      <point x="312" y="120" type="line"/>
      <point x="221" y="700" type="line"/>
      <point x="100" y="700" type="line"/>
    </contour>
  </outline>
</glyph>
<glyph name="W" format="2">
  <advance width="917"/>
  <unicode hex="0057"/>
  <anchor x="551" y="700" name="top"/>
  <outline>
    <contour>
      <point x="132" y="0" type="line"/>
      <point x="254" y="0" type="line"/>
      <point x="516" y="530" type="line"/>
      <point x="554" y="0" type="line"/>
      <point x="677" y="0" type="line"/>
      <point x="976" y="700" type="line"/>
      <point x="856" y="700" type="line"/>
      <point x="646" y="189" type="line"/>
      <point x="607" y="700" type="line"/>
      <point x="495" y="700" type="line"/>
      <point x="240" y="188" type="line"/>
      <point x="246" y="700" type="line"/>
      <point x="130" y="700" type="line"/>
    </contour>
  </outline>
</glyph>
<glyph name="X" format="2">
  <advance width="687"/>
  <unicode hex="0058"/>
  <outline>
    <contour>
      <point x="-46" y="0" type="line"/>
      <point x="99" y="0" type="line"/>
      <point x="349" y="272" type="line"/>
      <point x="487" y="0" type="line"/>
      <point x="619" y="0" type="line"/>
      <point x="432" y="357" type="line"/>
      <point x="757" y="700" type="line"/>
      <point x="613" y="700" type="line"/>
      <point x="383" y="451" type="line"/>
      <point x="256" y="700" type="line"/>
      <point x="123" y="700" type="line"/>
      <point x="299" y="365" type="line"/>
    </contour>
  </outline>
</glyph>
<glyph name="Y" format="2">
  <advance width="674"/>
  <unicode hex="0059"/>
  <anchor x="418" y="700" name="top"/>
  <outline>
    <contour>
      <point x="223" y="0" type="line"/>
      <point x="341" y="0" type="line"/>
      <point x="399" y="275" type="line"/>
      <point x="763" y="700" type="line"/>
      <point x="624" y="700" type="line"/>
      <point x="358" y="381" type="line"/>
      <point x="225" y="700" type="line"/>
      <point x="100" y="700" type="line"/>
      <point x="281" y="277" type="line"/>
    </contour>
  </outline>
</glyph>
<glyph name="Z" format="2">
  <advance width="601"/>
  <unicode hex="005A"/>
  <anchor x="371" y="700" name="top"/>
  <outline>
    <contour>
      <point x="-22" y="0" type="line"/>
      <point x="518" y="0" type="line"/>
      <point x="541" y="102" type="line"/>
      <point x="158" y="99" type="line"/>
      <point x="643" y="620" type="line"/>
      <point x="661" y="700" type="line"/>
      <point x="129" y="700" type="line"/>
      <point x="107" y="598" type="line"/>
      <point x="481" y="601" type="line"/>
      <point x="-4" y="80" type="line"/>
    </contour>
  </outline>
</glyph>
<glyph name="bracketleft" format="2">
  <advance width="382"/>
  <unicode hex="005B"/>
  <outline>
    <contour>
      <point x="-33" y="-215" type="line"/>
      <point x="230" y="-215" type="line"/>
      <point x="250" y="-125" type="line"/>
      <point x="88" y="-125" type="line"/>
      <point x="245" y="610" type="line"/>
      <point x="406" y="610" type="line"/>
      <point x="425" y="700" type="line"/>
      <point x="162" y="700" type="line"/>
    </contour>
  </outline>
</glyph>
<glyph name="backslash" format="2">
  <advance width="463"/>
  <unicode hex="005C"/>
  <outline>
    <contour>
      <point x="319" y="-209" type="line"/>
      <point x="424" y="-209" type="line"/>
      <point x="224" y="700" type="line"/>
      <point x="119" y="700" type="line"/>
    </contour>
  </outline>
</glyph>
<glyph name="bracketright" format="2">
  <advance width="382"/>
  <unicode hex="005D"/>
  <outline>
    <contour>
      <point x="408" y="700" type="line"/>
      <point x="145" y="700" type="line"/>
      <point x="125" y="610" type="line"/>
      <point x="286" y="610" type="line"/>
      <point x="130" y="-125" type="line"/>
      <point x="-31" y="-125" type="line"/>
      <point x="-50" y="-215" type="line"/>
      <point x="213" y="-215" type="line"/>
    </contour>
  </outline>
</glyph>
<glyph name="asciicircum" format="2">
  <advance width="600"/>
  <unicode hex="005E"/>
  <outline>
    <contour>
      <point x="101" y="350" type="line"/>
      <point x="196" y="350" type="line"/>
      <point x="381" y="611" type="line"/>
      <point x="454" y="350" type="line"/>
      <point x="543" y="350" type="line"/>
      <point x="444" y="700" type="line"/>
      <point x="350" y="700" type="line"/>
    </contour>
  </outline>
</glyph>
<glyph name="underscore" format="2">
  <advance width="454"/>
  <unicode hex="005F"/>
  <outline>
    <contour>
      <point x="-90" y="-161" type="line"/>
      <point x="367" y="-161" type="line"/>
      <point x="384" y="-80" type="line"/>
      <point x="-73" y="-80" type="line"/>
    </contour>
  </outline>
</glyph>
<glyph name="grave" format="2">
  <advance width="600"/>
  <unicode hex="0060"/>
  <outline>
    <contour>
      <point x="337" y="592" type="line"/>
      <point x="437" y="592" type="line"/>
      <point x="316" y="725" type="line"/>
      <point x="173" y="725" type="line"/>
    </contour>
  </outline>
</glyph>
<glyph name="a" format="2">
  <advance width="540"/>
  <unicode hex="0061"/>
  <note>
Version created Mon Aug  6 16:22:34 2018
</note>
  <anchor x="304" y="501" name="top"/>
  <anchor x="422" y="0" name="bottom"/>
  <outline>
    <contour>
      <point x="185" y="-6" type="curve" smooth="yes"/>
      <point x="232" y="-6"/>
      <point x="274" y="10"/>
      <point x="322" y="45" type="curve"/>
      <point x="312" y="0" type="line"/>
      <point x="422" y="0" type="line"/>
      <point x="489" y="304" type="line" smooth="yes"/>
      <point x="517" y="431"/>
      <point x="444" y="508"/>
      <point x="298" y="508" type="curve" smooth="yes"/>
      <point x="241" y="508"/>
      <point x="180" y="494"/>
      <point x="108" y="466" type="curve"/>
      <point x="135" y="384" type="line"/>
      <point x="192" y="406"/>
      <point x="234" y="416"/>
      <point x="271" y="416" type="curve" smooth="yes"/>
      <point x="359" y="416"/>
      <point x="395" y="377"/>
      <point x="378" y="300" type="curve" smooth="yes"/>
      <point x="368" y="257" type="line"/>
      <point x="327" y="280"/>
      <point x="275" y="293"/>
      <point x="221" y="293" type="curve" smooth="yes"/>
      <point x="101" y="293"/>
      <point x="24" y="230"/>
      <point x="24" y="132" type="curve" smooth="yes"/>
      <point x="24" y="48"/>
      <point x="87" y="-6"/>
    </contour>
    <contour>
      <point x="225" y="72" type="curve" smooth="yes"/>
      <point x="163" y="72"/>
      <point x="127" y="98"/>
      <point x="127" y="143" type="curve" smooth="yes"/>
      <point x="127" y="189"/>
      <point x="169" y="221"/>
      <point x="234" y="221" type="curve" smooth="yes"/>
      <point x="282" y="221"/>
      <point x="322" y="212"/>
      <point x="354" y="193" type="curve"/>
      <point x="335" y="109" type="line"/>
      <point x="300" y="83"/>
      <point x="265" y="72"/>
    </contour>
  </outline>
</glyph>
<glyph name="b" format="2">
  <advance width="598"/>
  <unicode hex="0062"/>
  <outline>
    <contour>
      <point x="296" y="-6" type="curve" smooth="yes"/>
      <point x="437" y="-6"/>
      <point x="552" y="121"/>
      <point x="552" y="276" type="curve" smooth="yes"/>
      <point x="552" y="406"/>
      <point x="468" y="504"/>
      <point x="358" y="504" type="curve" smooth="yes"/>
      <point x="304" y="504"/>
      <point x="256" y="484"/>
      <point x="219" y="447" type="curve"/>
      <point x="280" y="737" type="line"/>
      <point x="166" y="717" type="line"/>
      <point x="14" y="0" type="line"/>
      <point x="124" y="0" type="line"/>
      <point x="142" y="81" type="line"/>
      <point x="175" y="25"/>
      <point x="228" y="-6"/>
    </contour>
    <contour>
      <point x="279" y="90" type="curve" smooth="yes"/>
      <point x="229" y="90"/>
      <point x="182" y="117"/>
      <point x="159" y="157" type="curve"/>
      <point x="202" y="363" type="line"/>
      <point x="233" y="394"/>
      <point x="270" y="410"/>
      <point x="312" y="410" type="curve" smooth="yes"/>
      <point x="389" y="410"/>
      <point x="443" y="352"/>
      <point x="443" y="267" type="curve" smooth="yes"/>
      <point x="443" y="167"/>
      <point x="372" y="90"/>
    </contour>
  </outline>
</glyph>
<glyph name="c" format="2">
  <advance width="511"/>
  <unicode hex="0063"/>
  <anchor x="317" y="501" name="top"/>
  <anchor x="264" y="0" name="bottom"/>
  <outline>
    <contour>
      <point x="267" y="-10" type="curve" smooth="yes"/>
      <point x="336" y="-10"/>
      <point x="403" y="15"/>
      <point x="455" y="63" type="curve"/>
      <point x="401" y="134" type="line"/>
      <point x="368" y="105"/>
      <point x="328" y="88"/>
      <point x="285" y="88" type="curve" smooth="yes"/>
      <point x="210" y="88"/>
      <point x="155" y="145"/>
      <point x="155" y="226" type="curve" smooth="yes"/>
      <point x="155" y="326"/>
      <point x="228" y="409"/>
      <point x="315" y="409" type="curve" smooth="yes"/>
      <point x="367" y="409"/>
      <point x="408" y="387"/>
      <point x="435" y="342" type="curve"/>
      <point x="516" y="408" type="line"/>
      <point x="475" y="471"/>
      <point x="400" y="508"/>
      <point x="318" y="508" type="curve" smooth="yes"/>
      <point x="168" y="508"/>
      <point x="45" y="378"/>
      <point x="45" y="217" type="curve" smooth="yes"/>
      <point x="45" y="86"/>
      <point x="139" y="-10"/>
    </contour>
  </outline>
</glyph>
<glyph name="d" format="2">
  <advance width="598"/>
  <unicode hex="0064"/>
  <outline>
    <contour>
      <point x="240" y="-5" type="curve" smooth="yes"/>
      <point x="292" y="-5"/>
      <point x="338" y="14"/>
      <point x="374" y="47" type="curve"/>
      <point x="364" y="0" type="line"/>
      <point x="474" y="0" type="line"/>
      <point x="628" y="737" type="line"/>
      <point x="514" y="717" type="line"/>
      <point x="453" y="428" type="line"/>
      <point x="420" y="477"/>
      <point x="367" y="505"/>
      <point x="303" y="505" type="curve" smooth="yes"/>
      <point x="161" y="505"/>
      <point x="46" y="378"/>
      <point x="46" y="223" type="curve" smooth="yes"/>
      <point x="46" y="94"/>
      <point x="130" y="-5"/>
    </contour>
    <contour>
      <point x="286" y="89" type="curve" smooth="yes"/>
      <point x="210" y="89"/>
      <point x="156" y="148"/>
      <point x="156" y="232" type="curve" smooth="yes"/>
      <point x="156" y="332"/>
      <point x="227" y="409"/>
      <point x="319" y="409" type="curve" smooth="yes"/>
      <point x="368" y="409"/>
      <point x="412" y="386"/>
      <point x="436" y="350" type="curve"/>
      <point x="391" y="131" type="line"/>
      <point x="360" y="103"/>
      <point x="326" y="89"/>
    </contour>
  </outline>
</glyph>
<glyph name="e" format="2">
  <advance width="562"/>
  <unicode hex="0065"/>
  <anchor x="313" y="501" name="top"/>
  <anchor x="363" y="0" name="bottom"/>
  <outline>
    <contour>
      <point x="281" y="-10" type="curve" smooth="yes"/>
      <point x="347" y="-10"/>
      <point x="404" y="8"/>
      <point x="465" y="50" type="curve"/>
      <point x="405" y="123" type="line"/>
      <point x="375" y="97"/>
      <point x="333" y="83"/>
      <point x="290" y="83" type="curve" smooth="yes"/>
      <point x="212" y="83"/>
      <point x="154" y="143"/>
      <point x="153" y="223" type="curve"/>
      <point x="514" y="223" type="line"/>
      <point x="517" y="243"/>
      <point x="518" y="263"/>
      <point x="518" y="286" type="curve" smooth="yes"/>
      <point x="518" y="417"/>
      <point x="432" y="509"/>
      <point x="309" y="509" type="curve" smooth="yes"/>
      <point x="164" y="509"/>
      <point x="45" y="380"/>
      <point x="45" y="224" type="curve" smooth="yes"/>
      <point x="45" y="86"/>
      <point x="142" y="-10"/>
    </contour>
    <contour>
      <point x="161" y="293" type="line"/>
      <point x="182" y="366"/>
      <point x="236" y="416"/>
      <point x="302" y="416" type="curve" smooth="yes"/>
      <point x="368" y="416"/>
      <point x="415" y="364"/>
      <point x="418" y="293" type="curve"/>
    </contour>
  </outline>
</glyph>
<glyph name="f" format="2">
  <advance width="402"/>
  <unicode hex="0066"/>
  <outline>
    <contour>
      <point x="80" y="0" type="line"/>
      <point x="191" y="0" type="line"/>
      <point x="277" y="411" type="line"/>
      <point x="412" y="411" type="line"/>
      <point x="433" y="501" type="line"/>
      <point x="296" y="501" type="line"/>
      <point x="316" y="592" type="line" smooth="yes"/>
      <point x="325" y="639"/>
      <point x="349" y="659"/>
      <point x="394" y="659" type="curve" smooth="yes"/>
      <point x="417" y="659"/>
      <point x="438" y="655"/>
      <point x="460" y="647" type="curve"/>
      <point x="480" y="743" type="line"/>
      <point x="458" y="752"/>
      <point x="423" y="758"/>
      <point x="390" y="758" type="curve" smooth="yes"/>
      <point x="293" y="758"/>
      <point x="228" y="703"/>
      <point x="206" y="602" type="curve" smooth="yes"/>
      <point x="184" y="501" type="line"/>
      <point x="84" y="501" type="line"/>
      <point x="63" y="411" type="line"/>
      <point x="166" y="411" type="line"/>
    </contour>
  </outline>
</glyph>
<glyph name="g" format="2">
  <advance width="594"/>
  <unicode hex="0067"/>
  <note>
Version created Sun Jan 13 16:53:00 2019
</note>
  <anchor x="334" y="501" name="top"/>
  <outline>
    <contour>
      <point x="241" y="-219" type="curve" smooth="yes"/>
      <point x="362" y="-219"/>
      <point x="441" y="-157"/>
      <point x="465" y="-42" type="curve" smooth="yes"/>
      <point x="579" y="501" type="line"/>
      <point x="470" y="501" type="line"/>
      <point x="455" y="428" type="line"/>
      <point x="421" y="477"/>
      <point x="368" y="505"/>
      <point x="303" y="505" type="curve" smooth="yes"/>
      <point x="162" y="505"/>
      <point x="47" y="378"/>
      <point x="47" y="224" type="curve" smooth="yes"/>
      <point x="47" y="95"/>
      <point x="130" y="-3"/>
      <point x="241" y="-3" type="curve" smooth="yes"/>
      <point x="293" y="-3"/>
      <point x="339" y="16"/>
      <point x="375" y="50" type="curve"/>
      <point x="358" y="-30" type="line" smooth="yes"/>
      <point x="345" y="-93"/>
      <point x="302" y="-127"/>
      <point x="236" y="-127" type="curve" smooth="yes"/>
      <point x="182" y="-127"/>
      <point x="125" y="-107"/>
      <point x="68" y="-67" type="curve"/>
      <point x="17" y="-146" type="line"/>
      <point x="77" y="-191"/>
      <point x="164" y="-219"/>
    </contour>
    <contour>
      <point x="287" y="90" type="curve" smooth="yes"/>
      <point x="210" y="90"/>
      <point x="157" y="149"/>
      <point x="157" y="233" type="curve" smooth="yes"/>
      <point x="157" y="332"/>
      <point x="228" y="409"/>
      <point x="319" y="409" type="curve" smooth="yes"/>
      <point x="367" y="409"/>
      <point x="412" y="387"/>
      <point x="437" y="351" type="curve"/>
      <point x="393" y="133" type="line"/>
      <point x="362" y="105"/>
      <point x="326" y="90"/>
    </contour>
  </outline>
</glyph>
<glyph name="h" format="2">
  <advance width="571"/>
  <unicode hex="0068"/>
  <anchor x="213" y="700" name="top"/>
  <outline>
    <contour>
      <point x="14" y="0" type="line"/>
      <point x="126" y="0" type="line"/>
      <point x="201" y="358" type="line"/>
      <point x="232" y="397"/>
      <point x="272" y="418"/>
      <point x="316" y="418" type="curve" smooth="yes"/>
      <point x="385" y="418"/>
      <point x="420" y="366"/>
      <point x="403" y="290" type="curve" smooth="yes"/>
      <point x="340" y="0" type="line"/>
      <point x="451" y="0" type="line"/>
      <point x="519" y="317" type="line" smooth="yes"/>
      <point x="544" y="428"/>
      <point x="486" y="507"/>
      <point x="379" y="507" type="curve" smooth="yes"/>
      <point x="316" y="507"/>
      <point x="261" y="478"/>
      <point x="214" y="421" type="curve"/>
      <point x="280" y="737" type="line"/>
      <point x="164" y="717" type="line"/>
    </contour>
  </outline>
</glyph>
<glyph name="i" format="2">
  <advance width="249"/>
  <unicode hex="0069"/>
  <anchor x="178" y="501" name="top"/>
  <anchor x="126" y="0" name="bottom"/>
  <outline>
    <contour>
      <point x="202" y="603" type="curve" smooth="yes"/>
      <point x="244" y="603"/>
      <point x="279" y="638"/>
      <point x="279" y="680" type="curve" smooth="yes"/>
      <point x="279" y="715"/>
      <point x="251" y="742"/>
      <point x="217" y="742" type="curve" smooth="yes"/>
      <point x="176" y="742"/>
      <point x="140" y="705"/>
      <point x="140" y="664" type="curve" smooth="yes"/>
      <point x="140" y="629"/>
      <point x="166" y="603"/>
    </contour>
    <contour>
      <point x="14" y="0" type="line"/>
      <point x="126" y="0" type="line"/>
      <point x="234" y="501" type="line"/>
      <point x="123" y="501" type="line"/>
    </contour>
  </outline>
</glyph>
<glyph name="j" format="2">
  <advance width="249"/>
  <unicode hex="006A"/>
  <outline>
    <contour>
      <point x="202" y="603" type="curve" smooth="yes"/>
      <point x="244" y="603"/>
      <point x="279" y="638"/>
      <point x="279" y="680" type="curve" smooth="yes"/>
      <point x="279" y="715"/>
      <point x="251" y="742"/>
      <point x="217" y="742" type="curve" smooth="yes"/>
      <point x="176" y="742"/>
      <point x="140" y="705"/>
      <point x="140" y="664" type="curve" smooth="yes"/>
      <point x="140" y="629"/>
      <point x="166" y="603"/>
    </contour>
    <contour>
      <point x="-53" y="-219" type="curve" smooth="yes"/>
      <point x="32" y="-219"/>
      <point x="90" y="-170"/>
      <point x="109" y="-83" type="curve" smooth="yes"/>
      <point x="235" y="501" type="line"/>
      <point x="123" y="501" type="line"/>
      <point x="0" y="-73" type="line" smooth="yes"/>
      <point x="-7" y="-109"/>
      <point x="-25" y="-124"/>
      <point x="-58" y="-124" type="curve" smooth="yes"/>
      <point x="-78" y="-124"/>
      <point x="-91" y="-122"/>
      <point x="-103" y="-118" type="curve"/>
      <point x="-123" y="-208" type="line"/>
      <point x="-107" y="-214"/>
      <point x="-76" y="-219"/>
    </contour>
  </outline>
</glyph>
<glyph name="k" format="2">
  <advance width="525"/>
  <unicode hex="006B"/>
  <anchor x="227" y="0" name="bottom"/>
  <outline>
    <contour>
      <point x="14" y="0" type="line"/>
      <point x="126" y="0" type="line"/>
      <point x="173" y="228" type="line"/>
      <point x="336" y="0" type="line"/>
      <point x="468" y="0" type="line"/>
      <point x="279" y="252" type="line"/>
      <point x="568" y="501" type="line"/>
      <point x="429" y="501" type="line"/>
      <point x="185" y="283" type="line"/>
      <point x="280" y="737" type="line"/>
      <point x="166" y="717" type="line"/>
    </contour>
  </outline>
</glyph>
<glyph name="l" format="2">
  <advance width="249"/>
  <unicode hex="006C"/>
  <anchor x="217" y="700" name="top"/>
  <anchor x="70" y="0" name="bottom"/>
  <outline>
    <contour>
      <point x="14" y="0" type="line"/>
      <point x="126" y="0" type="line"/>
      <point x="280" y="737" type="line"/>
      <point x="166" y="717" type="line"/>
    </contour>
  </outline>
</glyph>
<glyph name="m" format="2">
  <advance width="858"/>
  <unicode hex="006D"/>
  <outline>
    <contour>
      <point x="14" y="0" type="line"/>
      <point x="126" y="0" type="line"/>
      <point x="204" y="360" type="line"/>
      <point x="237" y="399"/>
      <point x="271" y="418"/>
      <point x="309" y="418" type="curve" smooth="yes"/>
      <point x="369" y="418"/>
      <point x="400" y="370"/>
      <point x="385" y="298" type="curve" smooth="yes"/>
      <point x="321" y="0" type="line"/>
      <point x="432" y="0" type="line"/>
      <point x="500" y="318" type="line" smooth="yes"/>
      <point x="503" y="330"/>
      <point x="504" y="342"/>
      <point x="504" y="353" type="curve"/>
      <point x="542" y="398"/>
      <point x="577" y="418"/>
      <point x="615" y="418" type="curve" smooth="yes"/>
      <point x="675" y="418"/>
      <point x="706" y="370"/>
      <point x="691" y="302" type="curve" smooth="yes"/>
      <point x="627" y="0" type="line"/>
      <point x="738" y="0" type="line"/>
      <point x="806" y="318" type="line" smooth="yes"/>
      <point x="830" y="427"/>
      <point x="777" y="507"/>
      <point x="681" y="507" type="curve" smooth="yes"/>
      <point x="615" y="507"/>
      <point x="555" y="473"/>
      <point x="502" y="404" type="curve"/>
      <point x="488" y="466"/>
      <point x="440" y="507"/>
      <point x="372" y="507" type="curve" smooth="yes"/>
      <point x="315" y="507"/>
      <point x="263" y="477"/>
      <point x="216" y="417" type="curve"/>
      <point x="234" y="501" type="line"/>
      <point x="123" y="501" type="line"/>
    </contour>
  </outline>
</glyph>
<glyph name="n" format="2">
  <advance width="571"/>
  <unicode hex="006E"/>
  <anchor x="336" y="501" name="top"/>
  <anchor x="229" y="0" name="bottom"/>
  <outline>
    <contour>
      <point x="14" y="0" type="line"/>
      <point x="126" y="0" type="line"/>
      <point x="205" y="363" type="line"/>
      <point x="237" y="399"/>
      <point x="275" y="418"/>
      <point x="316" y="418" type="curve" smooth="yes"/>
      <point x="385" y="418"/>
      <point x="420" y="366"/>
      <point x="403" y="290" type="curve" smooth="yes"/>
      <point x="340" y="0" type="line"/>
      <point x="451" y="0" type="line"/>
      <point x="519" y="317" type="line" smooth="yes"/>
      <point x="544" y="428"/>
      <point x="486" y="507"/>
      <point x="379" y="507" type="curve" smooth="yes"/>
      <point x="318" y="507"/>
      <point x="264" y="479"/>
      <point x="218" y="426" type="curve"/>
      <point x="234" y="501" type="line"/>
      <point x="123" y="501" type="line"/>
    </contour>
  </outline>
</glyph>
<glyph name="o" format="2">
  <advance width="588"/>
  <unicode hex="006F"/>
  <anchor x="319" y="501" name="top"/>
  <outline>
    <contour>
      <point x="271" y="-10" type="curve" smooth="yes"/>
      <point x="419" y="-10"/>
      <point x="542" y="119"/>
      <point x="542" y="276" type="curve" smooth="yes"/>
      <point x="542" y="412"/>
      <point x="448" y="510"/>
      <point x="317" y="510" type="curve" smooth="yes"/>
      <point x="167" y="510"/>
      <point x="46" y="382"/>
      <point x="46" y="224" type="curve" smooth="yes"/>
      <point x="46" y="88"/>
      <point x="141" y="-10"/>
    </contour>
    <contour>
      <point x="277" y="88" type="curve" smooth="yes"/>
      <point x="204" y="88"/>
      <point x="155" y="144"/>
      <point x="155" y="228" type="curve" smooth="yes"/>
      <point x="155" y="331"/>
      <point x="224" y="414"/>
      <point x="310" y="414" type="curve" smooth="yes"/>
      <point x="384" y="414"/>
      <point x="432" y="358"/>
      <point x="432" y="274" type="curve" smooth="yes"/>
      <point x="432" y="169"/>
      <point x="364" y="88"/>
    </contour>
  </outline>
</glyph>
<glyph name="p" format="2">
  <advance width="598"/>
  <unicode hex="0070"/>
  <outline>
    <contour>
      <point x="-30" y="-209" type="line"/>
      <point x="81" y="-209" type="line"/>
      <point x="144" y="76" type="line"/>
      <point x="176" y="23"/>
      <point x="229" y="-6"/>
      <point x="296" y="-6" type="curve" smooth="yes"/>
      <point x="437" y="-6"/>
      <point x="552" y="121"/>
      <point x="552" y="276" type="curve" smooth="yes"/>
      <point x="552" y="406"/>
      <point x="468" y="504"/>
      <point x="358" y="504" type="curve" smooth="yes"/>
      <point x="306" y="504"/>
      <point x="259" y="484"/>
      <point x="222" y="449" type="curve"/>
      <point x="233" y="501" type="line"/>
      <point x="123" y="501" type="line"/>
    </contour>
    <contour>
      <point x="312" y="410" type="curve" smooth="yes"/>
      <point x="389" y="410"/>
      <point x="443" y="352"/>
      <point x="443" y="267" type="curve" smooth="yes"/>
      <point x="443" y="167"/>
      <point x="372" y="90"/>
      <point x="279" y="90" type="curve" smooth="yes"/>
      <point x="230" y="90"/>
      <point x="184" y="116"/>
      <point x="160" y="154" type="curve"/>
      <point x="206" y="367" type="line"/>
      <point x="237" y="395"/>
      <point x="273" y="410"/>
    </contour>
  </outline>
</glyph>
<glyph name="q" format="2">
  <advance width="598"/>
  <unicode hex="0071"/>
  <outline>
    <contour>
      <point x="318" y="-209" type="line"/>
      <point x="430" y="-209" type="line"/>
      <point x="583" y="501" type="line"/>
      <point x="472" y="501" type="line"/>
      <point x="456" y="423" type="line"/>
      <point x="422" y="476"/>
      <point x="369" y="505"/>
      <point x="303" y="505" type="curve" smooth="yes"/>
      <point x="161" y="505"/>
      <point x="46" y="378"/>
      <point x="46" y="223" type="curve" smooth="yes"/>
      <point x="46" y="94"/>
      <point x="130" y="-5"/>
      <point x="240" y="-5" type="curve" smooth="yes"/>
      <point x="292" y="-5"/>
      <point x="338" y="14"/>
      <point x="374" y="47" type="curve"/>
    </contour>
    <contour>
      <point x="286" y="89" type="curve" smooth="yes"/>
      <point x="210" y="89"/>
      <point x="156" y="148"/>
      <point x="156" y="232" type="curve" smooth="yes"/>
      <point x="156" y="332"/>
      <point x="227" y="409"/>
      <point x="319" y="409" type="curve" smooth="yes"/>
      <point x="369" y="409"/>
      <point x="414" y="384"/>
      <point x="439" y="347" type="curve"/>
      <point x="393" y="132" type="line"/>
      <point x="362" y="104"/>
      <point x="326" y="89"/>
    </contour>
  </outline>
</glyph>
<glyph name="r" format="2">
  <advance width="384"/>
  <unicode hex="0072"/>
  <anchor x="275" y="501" name="top"/>
  <anchor x="70" y="0" name="bottom"/>
  <outline>
    <contour>
      <point x="13" y="0" type="line"/>
      <point x="124" y="0" type="line"/>
      <point x="198" y="338" type="line"/>
      <point x="232" y="386"/>
      <point x="280" y="413"/>
      <point x="329" y="413" type="curve" smooth="yes"/>
      <point x="353" y="413"/>
      <point x="383" y="407"/>
      <point x="395" y="398" type="curve"/>
      <point x="417" y="497" type="line"/>
      <point x="402" y="504"/>
      <point x="381" y="509"/>
      <point x="361" y="509" type="curve" smooth="yes"/>
      <point x="304" y="509"/>
      <point x="254" y="473"/>
      <point x="212" y="402" type="curve"/>
      <point x="234" y="501" type="line"/>
      <point x="122" y="501" type="line"/>
    </contour>
  </outline>
</glyph>
<glyph name="s" format="2">
  <advance width="471"/>
  <unicode hex="0073"/>
  <note>
Version created Fri Aug  3 17:49:29 2018
</note>
  <anchor x="246" y="501" name="top"/>
  <anchor x="206" y="0" name="bottom"/>
  <outline>
    <contour>
      <point x="218" y="-10" type="curve" smooth="yes"/>
      <point x="333" y="-10"/>
      <point x="418" y="63"/>
      <point x="418" y="161" type="curve" smooth="yes"/>
      <point x="418" y="223"/>
      <point x="378" y="264"/>
      <point x="295" y="287" type="curve" smooth="yes"/>
      <point x="210" y="310" type="line" smooth="yes"/>
      <point x="167" y="322"/>
      <point x="152" y="337"/>
      <point x="152" y="365" type="curve" smooth="yes"/>
      <point x="152" y="401"/>
      <point x="183" y="424"/>
      <point x="235" y="424" type="curve" smooth="yes"/>
      <point x="281" y="424"/>
      <point x="334" y="403"/>
      <point x="383" y="364" type="curve"/>
      <point x="445" y="435" type="line"/>
      <point x="385" y="484"/>
      <point x="316" y="510"/>
      <point x="241" y="510" type="curve" smooth="yes"/>
      <point x="126" y="510"/>
      <point x="53" y="448"/>
      <point x="53" y="351" type="curve" smooth="yes"/>
      <point x="53" y="286"/>
      <point x="92" y="242"/>
      <point x="170" y="220" type="curve" smooth="yes"/>
      <point x="255" y="198" type="line" smooth="yes"/>
      <point x="297" y="187"/>
      <point x="314" y="171"/>
      <point x="314" y="144" type="curve" smooth="yes"/>
      <point x="314" y="106"/>
      <point x="274" y="76"/>
      <point x="221" y="76" type="curve" smooth="yes"/>
      <point x="166" y="76"/>
      <point x="123" y="94"/>
      <point x="60" y="145" type="curve"/>
      <point x="-2" y="73" type="line"/>
      <point x="52" y="20"/>
      <point x="132" y="-10"/>
    </contour>
  </outline>
</glyph>
<glyph name="t" format="2">
  <advance width="406"/>
  <unicode hex="0074"/>
  <anchor x="221" y="0" name="bottom"/>
  <outline>
    <contour>
      <point x="236" y="-8" type="curve" smooth="yes"/>
      <point x="266" y="-8"/>
      <point x="297" y="-4"/>
      <point x="321" y="2" type="curve"/>
      <point x="341" y="97" type="line"/>
      <point x="310" y="89"/>
      <point x="300" y="88"/>
      <point x="284" y="88" type="curve" smooth="yes"/>
      <point x="227" y="88"/>
      <point x="209" y="108"/>
      <point x="220" y="160" type="curve" smooth="yes"/>
      <point x="274" y="411" type="line"/>
      <point x="411" y="411" type="line"/>
      <point x="431" y="501" type="line"/>
      <point x="294" y="501" type="line"/>
      <point x="329" y="663" type="line"/>
      <point x="212" y="639" type="line"/>
      <point x="182" y="501" type="line"/>
      <point x="86" y="501" type="line"/>
      <point x="66" y="411" type="line"/>
      <point x="164" y="411" type="line"/>
      <point x="106" y="140" type="line" smooth="yes"/>
      <point x="86" y="45"/>
      <point x="132" y="-8"/>
    </contour>
  </outline>
</glyph>
<glyph name="u" format="2">
  <advance width="570"/>
  <unicode hex="0075"/>
  <anchor x="324" y="501" name="top"/>
  <anchor x="447" y="0" name="bottom"/>
  <outline>
    <contour>
      <point x="191" y="-7" type="curve" smooth="yes"/>
      <point x="251" y="-7"/>
      <point x="306" y="21"/>
      <point x="351" y="75" type="curve"/>
      <point x="336" y="0" type="line"/>
      <point x="447" y="0" type="line"/>
      <point x="556" y="501" type="line"/>
      <point x="444" y="501" type="line"/>
      <point x="365" y="138" type="line"/>
      <point x="333" y="101"/>
      <point x="295" y="83"/>
      <point x="254" y="83" type="curve" smooth="yes"/>
      <point x="186" y="83"/>
      <point x="150" y="134"/>
      <point x="167" y="210" type="curve" smooth="yes"/>
      <point x="230" y="501" type="line"/>
      <point x="119" y="501" type="line"/>
      <point x="51" y="184" type="line" smooth="yes"/>
      <point x="27" y="74"/>
      <point x="86" y="-7"/>
    </contour>
  </outline>
</glyph>
<glyph name="v" format="2">
  <advance width="531"/>
  <unicode hex="0076"/>
  <outline>
    <contour>
      <point x="156" y="0" type="line"/>
      <point x="263" y="0" type="line"/>
      <point x="574" y="501" type="line"/>
      <point x="453" y="501" type="line"/>
      <point x="239" y="135" type="line"/>
      <point x="182" y="501" type="line"/>
      <point x="66" y="501" type="line"/>
    </contour>
  </outline>
</glyph>
<glyph name="w" format="2">
  <advance width="722"/>
  <unicode hex="0077"/>
  <anchor x="415" y="501" name="top"/>
  <outline>
    <contour>
      <point x="101" y="0" type="line"/>
      <point x="209" y="0" type="line"/>
      <point x="383" y="353" type="line"/>
      <point x="406" y="0" type="line"/>
      <point x="513" y="0" type="line"/>
      <point x="754" y="501" type="line"/>
      <point x="648" y="501" type="line"/>
      <point x="488" y="149" type="line"/>
      <point x="462" y="501" type="line"/>
      <point x="367" y="501" type="line"/>
      <point x="193" y="148" type="line"/>
      <point x="181" y="501" type="line"/>
      <point x="77" y="501" type="line"/>
    </contour>
  </outline>
</glyph>
<glyph name="x" format="2">
  <advance width="523"/>
  <unicode hex="0078"/>
  <outline>
    <contour>
      <point x="-44" y="0" type="line"/>
      <point x="86" y="0" type="line"/>
      <point x="246" y="174" type="line"/>
      <point x="333" y="0" type="line"/>
      <point x="456" y="0" type="line"/>
      <point x="323" y="254" type="line"/>
      <point x="559" y="501" type="line"/>
      <point x="429" y="501" type="line"/>
      <point x="281" y="338" type="line"/>
      <point x="201" y="501" type="line"/>
      <point x="77" y="501" type="line"/>
      <point x="202" y="261" type="line"/>
    </contour>
  </outline>
</glyph>
<glyph name="y" format="2">
  <advance width="527"/>
  <unicode hex="0079"/>
  <anchor x="309" y="501" name="top"/>
  <outline>
    <contour>
      <point x="24" y="-219" type="curve" smooth="yes"/>
      <point x="104" y="-219"/>
      <point x="162" y="-182"/>
      <point x="214" y="-97" type="curve" smooth="yes"/>
      <point x="570" y="501" type="line"/>
      <point x="448" y="501" type="line"/>
      <point x="229" y="122" type="line"/>
      <point x="179" y="501" type="line"/>
      <point x="63" y="501" type="line"/>
      <point x="143" y="-7" type="line"/>
      <point x="109" y="-65" type="line" smooth="yes"/>
      <point x="88" y="-102"/>
      <point x="60" y="-117"/>
      <point x="18" y="-117" type="curve" smooth="yes"/>
      <point x="7" y="-117"/>
      <point x="-8" y="-115"/>
      <point x="-26" y="-111" type="curve"/>
      <point x="-47" y="-208" type="line"/>
      <point x="-18" y="-216"/>
      <point x="3" y="-219"/>
    </contour>
  </outline>
</glyph>
<glyph name="z" format="2">
  <advance width="472"/>
  <unicode hex="007A"/>
  <anchor x="278" y="501" name="top"/>
  <outline>
    <contour>
      <point x="-17" y="0" type="line"/>
      <point x="378" y="0" type="line"/>
      <point x="399" y="97" type="line"/>
      <point x="147" y="96" type="line"/>
      <point x="464" y="418" type="line"/>
      <point x="481" y="501" type="line"/>
      <point x="94" y="501" type="line"/>
      <point x="74" y="402" type="line"/>
      <point x="317" y="404" type="line"/>
      <point x="1" y="83" type="line"/>
    </contour>
  </outline>
</glyph>
<glyph name="braceleft" format="2">
  <advance width="414"/>
  <unicode hex="007B"/>
  <outline>
    <contour>
      <point x="189" y="-219" type="curve" smooth="yes"/>
      <point x="214" y="-219"/>
      <point x="237" y="-217"/>
      <point x="264" y="-209" type="curve"/>
      <point x="265" y="-125" type="line"/>
      <point x="247" y="-130"/>
      <point x="232" y="-133"/>
      <point x="217" y="-133" type="curve" smooth="yes"/>
      <point x="152" y="-133"/>
      <point x="139" y="-83"/>
      <point x="176" y="-22" type="curve" smooth="yes"/>
      <point x="235" y="79" type="line" smooth="yes"/>
      <point x="277" y="150"/>
      <point x="255" y="218"/>
      <point x="181" y="242" type="curve"/>
      <point x="259" y="258"/>
      <point x="309" y="323"/>
      <point x="299" y="399" type="curve" smooth="yes"/>
      <point x="282" y="520" type="line" smooth="yes"/>
      <point x="273" y="581"/>
      <point x="305" y="623"/>
      <point x="359" y="623" type="curve" smooth="yes"/>
      <point x="375" y="623"/>
      <point x="401" y="617"/>
      <point x="419" y="608" type="curve"/>
      <point x="454" y="690" type="line"/>
      <point x="424" y="705"/>
      <point x="392" y="711"/>
      <point x="354" y="711" type="curve" smooth="yes"/>
      <point x="243" y="711"/>
      <point x="172" y="627"/>
      <point x="189" y="516" type="curve" smooth="yes"/>
      <point x="206" y="408" type="line" smooth="yes"/>
      <point x="217" y="340"/>
      <point x="179" y="290"/>
      <point x="116" y="290" type="curve" smooth="yes"/>
      <point x="39" y="290" type="line"/>
      <point x="21" y="204" type="line"/>
      <point x="97" y="204" type="line" smooth="yes"/>
      <point x="160" y="204"/>
      <point x="178" y="147"/>
      <point x="137" y="81" type="curve" smooth="yes"/>
      <point x="83" y="-7" type="line" smooth="yes"/>
      <point x="14" y="-118"/>
      <point x="55" y="-219"/>
    </contour>
  </outline>
</glyph>
<glyph name="bar" format="2">
  <advance width="315"/>
  <unicode hex="007C"/>
  <outline>
    <contour>
      <point x="9" y="-209" type="line"/>
      <point x="109" y="-209" type="line"/>
      <point x="302" y="700" type="line"/>
      <point x="202" y="700" type="line"/>
    </contour>
  </outline>
</glyph>
<glyph name="braceright" format="2">
  <advance width="414"/>
  <unicode hex="007D"/>
  <outline>
    <contour>
      <point x="218" y="709" type="curve" smooth="yes"/>
      <point x="194" y="709"/>
      <point x="170" y="706"/>
      <point x="144" y="699" type="curve"/>
      <point x="143" y="615" type="line"/>
      <point x="160" y="620"/>
      <point x="175" y="623"/>
      <point x="190" y="623" type="curve" smooth="yes"/>
      <point x="255" y="623"/>
      <point x="269" y="573"/>
      <point x="232" y="512" type="curve" smooth="yes"/>
      <point x="173" y="411" type="line" smooth="yes"/>
      <point x="128" y="336"/>
      <point x="154" y="267"/>
      <point x="234" y="245" type="curve"/>
      <point x="235" y="248" type="line"/>
      <point x="151" y="236"/>
      <point x="98" y="170"/>
      <point x="108" y="91" type="curve" smooth="yes"/>
      <point x="125" y="-30" type="line" smooth="yes"/>
      <point x="134" y="-92"/>
      <point x="102" y="-133"/>
      <point x="48" y="-133" type="curve" smooth="yes"/>
      <point x="32" y="-133"/>
      <point x="6" y="-127"/>
      <point x="-12" y="-118" type="curve"/>
      <point x="-46" y="-200" type="line"/>
      <point x="-16" y="-215"/>
      <point x="16" y="-221"/>
      <point x="53" y="-221" type="curve" smooth="yes"/>
      <point x="164" y="-221"/>
      <point x="235" y="-137"/>
      <point x="218" y="-26" type="curve" smooth="yes"/>
      <point x="201" y="82" type="line" smooth="yes"/>
      <point x="190" y="150"/>
      <point x="228" y="199"/>
      <point x="292" y="199" type="curve" smooth="yes"/>
      <point x="368" y="199" type="line"/>
      <point x="387" y="286" type="line"/>
      <point x="310" y="286" type="line" smooth="yes"/>
      <point x="247" y="286"/>
      <point x="229" y="343"/>
      <point x="270" y="408" type="curve" smooth="yes"/>
      <point x="324" y="496" type="line" smooth="yes"/>
      <point x="393" y="608"/>
      <point x="352" y="709"/>
    </contour>
  </outline>
</glyph>
<glyph name="asciitilde" format="2">
  <advance width="600"/>
  <unicode hex="007E"/>
  <outline>
    <contour>
      <point x="145" y="302" type="line"/>
      <point x="162" y="353"/>
      <point x="186" y="378"/>
      <point x="217" y="378" type="curve" smooth="yes"/>
      <point x="233" y="378"/>
      <point x="248" y="373"/>
      <point x="275" y="356" type="curve" smooth="yes"/>
      <point x="341" y="313" type="line" smooth="yes"/>
      <point x="381" y="289"/>
      <point x="410" y="279"/>
      <point x="439" y="279" type="curve" smooth="yes"/>
      <point x="502" y="279"/>
      <point x="555" y="330"/>
      <point x="586" y="426" type="curve"/>
      <point x="510" y="444" type="line"/>
      <point x="492" y="392"/>
      <point x="468" y="367"/>
      <point x="436" y="367" type="curve" smooth="yes"/>
      <point x="420" y="367"/>
      <point x="406" y="373"/>
      <point x="378" y="390" type="curve" smooth="yes"/>
      <point x="312" y="432" type="line" smooth="yes"/>
      <point x="273" y="457"/>
      <point x="243" y="467"/>
      <point x="215" y="467" type="curve" smooth="yes"/>
      <point x="152" y="467"/>
      <point x="99" y="415"/>
      <point x="68" y="320" type="curve"/>
    </contour>
  </outline>
</glyph>
<glyph name="exclamdown" format="2">
  <advance width="238"/>
  <unicode hex="00A1"/>
  <outline>
    <contour>
      <point x="167" y="274" type="line"/>
      <point x="83" y="274" type="line"/>
      <point x="-41" y="-238" type="line"/>
      <point x="69" y="-238" type="line"/>
    </contour>
    <contour>
      <point x="164" y="499" type="curve" smooth="yes"/>
      <point x="124" y="499"/>
      <point x="88" y="462"/>
      <point x="88" y="420" type="curve" smooth="yes"/>
      <point x="88" y="386"/>
      <point x="113" y="359"/>
      <point x="148" y="359" type="curve" smooth="yes"/>
      <point x="189" y="359"/>
      <point x="225" y="394"/>
      <point x="225" y="437" type="curve" smooth="yes"/>
      <point x="225" y="472"/>
      <point x="199" y="499"/>
    </contour>
  </outline>
</glyph>
<glyph name="cent" format="2">
  <advance width="511"/>
  <unicode hex="00A2"/>
  <outline>
    <contour>
      <point x="186" y="-114" type="line"/>
      <point x="242" y="-114" type="line"/>
      <point x="264" y="-10" type="line"/>
      <point x="333" y="-10"/>
      <point x="402" y="14"/>
      <point x="455" y="63" type="curve"/>
      <point x="401" y="134" type="line"/>
      <point x="369" y="106"/>
      <point x="330" y="89"/>
      <point x="286" y="88" type="curve"/>
      <point x="353" y="405" type="line"/>
      <point x="386" y="396"/>
      <point x="415" y="375"/>
      <point x="435" y="342" type="curve"/>
      <point x="516" y="408" type="line"/>
      <point x="485" y="457"/>
      <point x="433" y="490"/>
      <point x="374" y="503" type="curve"/>
      <point x="398" y="616" type="line"/>
      <point x="341" y="616" type="line"/>
      <point x="318" y="508" type="line"/>
      <point x="169" y="508"/>
      <point x="45" y="379"/>
      <point x="45" y="217" type="curve" smooth="yes"/>
      <point x="45" y="107"/>
      <point x="112" y="21"/>
      <point x="209" y="-3" type="curve"/>
    </contour>
    <contour>
      <point x="231" y="100" type="line"/>
      <point x="186" y="120"/>
      <point x="155" y="166"/>
      <point x="155" y="226" type="curve" smooth="yes"/>
      <point x="155" y="319"/>
      <point x="218" y="397"/>
      <point x="296" y="408" type="curve"/>
    </contour>
  </outline>
</glyph>
<glyph name="sterling" format="2">
  <advance width="629"/>
  <unicode hex="00A3"/>
  <outline>
    <contour>
      <point x="42" y="-20" type="line"/>
      <point x="82" y="33"/>
      <point x="124" y="46"/>
      <point x="183" y="30" type="curve" smooth="yes"/>
      <point x="335" y="-15" type="line" smooth="yes"/>
      <point x="437" y="-46"/>
      <point x="511" y="-26"/>
      <point x="577" y="59" type="curve"/>
      <point x="506" y="116" type="line"/>
      <point x="467" y="67"/>
      <point x="427" y="55"/>
      <point x="372" y="72" type="curve" smooth="yes"/>
      <point x="226" y="114" type="line" smooth="yes"/>
      <point x="224" y="114"/>
      <point x="221" y="115"/>
      <point x="218" y="116" type="curve"/>
      <point x="249" y="141"/>
      <point x="267" y="182"/>
      <point x="267" y="233" type="curve" smooth="yes"/>
      <point x="270" y="295" type="line"/>
      <point x="434" y="295" type="line"/>
      <point x="452" y="373" type="line"/>
      <point x="271" y="373" type="line"/>
      <point x="272" y="456" type="line" smooth="yes"/>
      <point x="275" y="556"/>
      <point x="321" y="618"/>
      <point x="398" y="618" type="curve" smooth="yes"/>
      <point x="476" y="618"/>
      <point x="519" y="576"/>
      <point x="527" y="491" type="curve"/>
      <point x="627" y="516" type="line"/>
      <point x="610" y="643"/>
      <point x="531" y="711"/>
      <point x="401" y="711" type="curve" smooth="yes"/>
      <point x="263" y="711"/>
      <point x="172" y="602"/>
      <point x="168" y="446" type="curve" smooth="yes"/>
      <point x="165" y="373" type="line"/>
      <point x="82" y="373" type="line"/>
      <point x="65" y="295" type="line"/>
      <point x="165" y="295" type="line"/>
      <point x="162" y="204" type="line" smooth="yes"/>
      <point x="160" y="170"/>
      <point x="147" y="144"/>
      <point x="125" y="131" type="curve"/>
      <point x="66" y="129"/>
      <point x="16" y="99"/>
      <point x="-30" y="41" type="curve"/>
    </contour>
  </outline>
</glyph>
<glyph name="uni00A4" format="2">
  <advance width="684"/>
  <unicode hex="00A4"/>
  <outline>
    <contour>
      <point x="90" y="52" type="line"/>
      <point x="186" y="148" type="line"/>
      <point x="229" y="116"/>
      <point x="284" y="97"/>
      <point x="342" y="97" type="curve" smooth="yes"/>
      <point x="401" y="97"/>
      <point x="455" y="116"/>
      <point x="498" y="147" type="curve"/>
      <point x="595" y="51" type="line"/>
      <point x="651" y="108" type="line"/>
      <point x="556" y="204" type="line"/>
      <point x="588" y="247"/>
      <point x="607" y="302"/>
      <point x="607" y="362" type="curve" smooth="yes"/>
      <point x="607" y="423"/>
      <point x="588" y="478"/>
      <point x="554" y="522" type="curve"/>
      <point x="650" y="618" type="line"/>
      <point x="595" y="673" type="line"/>
      <point x="498" y="577" type="line"/>
      <point x="455" y="609"/>
      <point x="401" y="627"/>
      <point x="342" y="627" type="curve" smooth="yes"/>
      <point x="284" y="627"/>
      <point x="230" y="609"/>
      <point x="187" y="577" type="curve"/>
      <point x="91" y="674" type="line"/>
      <point x="34" y="617" type="line"/>
      <point x="129" y="521" type="line"/>
      <point x="96" y="477"/>
      <point x="77" y="423"/>
      <point x="77" y="362" type="curve" smooth="yes"/>
      <point x="77" y="302"/>
      <point x="96" y="247"/>
      <point x="128" y="203" type="curve"/>
      <point x="34" y="109" type="line"/>
    </contour>
    <contour>
      <point x="342" y="195" type="curve" smooth="yes"/>
      <point x="253" y="195"/>
      <point x="184" y="268"/>
      <point x="184" y="362" type="curve" smooth="yes"/>
      <point x="184" y="456"/>
      <point x="254" y="530"/>
      <point x="342" y="530" type="curve" smooth="yes"/>
      <point x="431" y="530"/>
      <point x="500" y="456"/>
      <point x="500" y="362" type="curve" smooth="yes"/>
      <point x="500" y="268"/>
      <point x="431" y="195"/>
    </contour>
  </outline>
</glyph>
<glyph name="yen" format="2">
  <advance width="674"/>
  <unicode hex="00A5"/>
  <outline>
    <contour>
      <point x="223" y="0" type="line"/>
      <point x="341" y="0" type="line"/>
      <point x="368" y="132" type="line"/>
      <point x="534" y="132" type="line"/>
      <point x="547" y="198" type="line"/>
      <point x="383" y="198" type="line"/>
      <point x="397" y="263" type="line"/>
      <point x="562" y="263" type="line"/>
      <point x="575" y="330" type="line"/>
      <point x="446" y="330" type="line"/>
      <point x="763" y="700" type="line"/>
      <point x="624" y="700" type="line"/>
      <point x="358" y="381" type="line"/>
      <point x="225" y="700" type="line"/>
      <point x="100" y="700" type="line"/>
      <point x="259" y="330" type="line"/>
      <point x="128" y="330" type="line"/>
      <point x="115" y="263" type="line"/>
      <point x="279" y="263" type="line"/>
      <point x="265" y="198" type="line"/>
      <point x="100" y="198" type="line"/>
      <point x="86" y="132" type="line"/>
      <point x="250" y="132" type="line"/>
    </contour>
  </outline>
</glyph>
<glyph name="uni00A6" format="2">
  <advance width="311"/>
  <unicode hex="00A6"/>
  <outline>
    <contour>
      <point x="114" y="287" type="line"/>
      <point x="215" y="287" type="line"/>
      <point x="303" y="700" type="line"/>
      <point x="202" y="700" type="line"/>
    </contour>
    <contour>
      <point x="9" y="-209" type="line"/>
      <point x="110" y="-209" type="line"/>
      <point x="198" y="204" type="line"/>
      <point x="97" y="204" type="line"/>
    </contour>
  </outline>
</glyph>
<glyph name="section" format="2">
  <advance width="564"/>
  <unicode hex="00A7"/>
  <outline>
    <contour>
      <point x="242" y="-50" type="curve" smooth="yes"/>
      <point x="346" y="-50"/>
      <point x="419" y="14"/>
      <point x="419" y="104" type="curve" smooth="yes"/>
      <point x="419" y="133"/>
      <point x="411" y="157"/>
      <point x="393" y="178" type="curve"/>
      <point x="474" y="196"/>
      <point x="524" y="252"/>
      <point x="524" y="328" type="curve" smooth="yes"/>
      <point x="524" y="383"/>
      <point x="493" y="420"/>
      <point x="415" y="461" type="curve" smooth="yes"/>
      <point x="322" y="509" type="line" smooth="yes"/>
      <point x="290" y="525"/>
      <point x="276" y="543"/>
      <point x="276" y="569" type="curve" smooth="yes"/>
      <point x="276" y="607"/>
      <point x="307" y="634"/>
      <point x="352" y="634" type="curve" smooth="yes"/>
      <point x="396" y="634"/>
      <point x="445" y="612"/>
      <point x="496" y="570" type="curve"/>
      <point x="553" y="637" type="line"/>
      <point x="496" y="684"/>
      <point x="425" y="711"/>
      <point x="356" y="711" type="curve" smooth="yes"/>
      <point x="252" y="711"/>
      <point x="179" y="647"/>
      <point x="179" y="557" type="curve" smooth="yes"/>
      <point x="179" y="528"/>
      <point x="188" y="503"/>
      <point x="205" y="482" type="curve"/>
      <point x="125" y="463"/>
      <point x="75" y="408"/>
      <point x="75" y="333" type="curve" smooth="yes"/>
      <point x="75" y="278"/>
      <point x="105" y="240"/>
      <point x="183" y="200" type="curve" smooth="yes"/>
      <point x="276" y="152" type="line" smooth="yes"/>
      <point x="307" y="135"/>
      <point x="321" y="117"/>
      <point x="321" y="92" type="curve" smooth="yes"/>
      <point x="321" y="53"/>
      <point x="290" y="27"/>
      <point x="246" y="27" type="curve" smooth="yes"/>
      <point x="201" y="27"/>
      <point x="152" y="48"/>
      <point x="100" y="90" type="curve"/>
      <point x="44" y="24" type="line"/>
      <point x="100" y="-24"/>
      <point x="171" y="-50"/>
    </contour>
    <contour>
      <point x="331" y="228" type="curve"/>
      <point x="224" y="282" type="line" smooth="yes"/>
      <point x="185" y="302"/>
      <point x="167" y="324"/>
      <point x="167" y="352" type="curve" smooth="yes"/>
      <point x="167" y="397"/>
      <point x="209" y="429"/>
      <point x="268" y="431" type="curve"/>
      <point x="374" y="379" type="line" smooth="yes"/>
      <point x="413" y="359"/>
      <point x="430" y="337"/>
      <point x="430" y="309" type="curve" smooth="yes"/>
      <point x="430" y="264"/>
      <point x="390" y="231"/>
    </contour>
  </outline>
</glyph>
<glyph name="dieresis" format="2">
  <advance width="600"/>
  <unicode hex="00A8"/>
  <outline>
    <contour>
      <point x="272" y="606" type="curve" smooth="yes"/>
      <point x="311" y="606"/>
      <point x="343" y="639"/>
      <point x="343" y="677" type="curve" smooth="yes"/>
      <point x="343" y="710"/>
      <point x="318" y="736"/>
      <point x="286" y="736" type="curve" smooth="yes"/>
      <point x="248" y="736"/>
      <point x="214" y="703"/>
      <point x="214" y="664" type="curve" smooth="yes"/>
      <point x="214" y="631"/>
      <point x="239" y="606"/>
    </contour>
    <contour>
      <point x="486" y="606" type="curve" smooth="yes"/>
      <point x="525" y="606"/>
      <point x="557" y="639"/>
      <point x="557" y="677" type="curve" smooth="yes"/>
      <point x="557" y="710"/>
      <point x="533" y="736"/>
      <point x="500" y="736" type="curve" smooth="yes"/>
      <point x="462" y="736"/>
      <point x="428" y="702"/>
      <point x="428" y="664" type="curve" smooth="yes"/>
      <point x="428" y="631"/>
      <point x="454" y="606"/>
    </contour>
  </outline>
</glyph>
<glyph name="copyright" format="2">
  <advance width="774"/>
  <unicode hex="00A9"/>
  <outline>
    <contour>
      <point x="391" y="164" type="curve" smooth="yes"/>
      <point x="438" y="164"/>
      <point x="484" y="182"/>
      <point x="521" y="214" type="curve"/>
      <point x="488" y="271" type="line"/>
      <point x="459" y="248"/>
      <point x="432" y="236"/>
      <point x="404" y="236" type="curve" smooth="yes"/>
      <point x="352" y="236"/>
      <point x="314" y="277"/>
      <point x="314" y="333" type="curve" smooth="yes"/>
      <point x="314" y="404"/>
      <point x="369" y="465"/>
      <point x="432" y="465" type="curve" smooth="yes"/>
      <point x="466" y="465"/>
      <point x="497" y="447"/>
      <point x="518" y="412" type="curve"/>
      <point x="576" y="462" type="line"/>
      <point x="549" y="508"/>
      <point x="494" y="537"/>
      <point x="437" y="537" type="curve" smooth="yes"/>
      <point x="331" y="537"/>
      <point x="237" y="438"/>
      <point x="237" y="325" type="curve" smooth="yes"/>
      <point x="237" y="232"/>
      <point x="303" y="164"/>
    </contour>
    <contour>
      <point x="373" y="-11" type="curve" smooth="yes"/>
      <point x="576" y="-11"/>
      <point x="747" y="172"/>
      <point x="747" y="390" type="curve" smooth="yes"/>
      <point x="747" y="575"/>
      <point x="617" y="711"/>
      <point x="441" y="711" type="curve" smooth="yes"/>
      <point x="238" y="711"/>
      <point x="67" y="527"/>
      <point x="67" y="308" type="curve" smooth="yes"/>
      <point x="67" y="124"/>
      <point x="197" y="-11"/>
    </contour>
    <contour>
      <point x="376" y="42" type="curve" smooth="yes"/>
      <point x="231" y="42"/>
      <point x="124" y="158"/>
      <point x="124" y="314" type="curve" smooth="yes"/>
      <point x="124" y="498"/>
      <point x="268" y="657"/>
      <point x="436" y="657" type="curve" smooth="yes"/>
      <point x="583" y="657"/>
      <point x="691" y="542"/>
      <point x="691" y="384" type="curve" smooth="yes"/>
      <point x="691" y="201"/>
      <point x="546" y="42"/>
    </contour>
  </outline>
</glyph>
<glyph name="ordfeminine" format="2">
  <advance width="419"/>
  <unicode hex="00AA"/>
  <outline>
    <contour>
      <point x="198" y="311" type="curve" smooth="yes"/>
      <point x="236" y="311"/>
      <point x="269" y="321"/>
      <point x="303" y="344" type="curve"/>
      <point x="297" y="316" type="line"/>
      <point x="385" y="316" type="line"/>
      <point x="436" y="552" type="line" smooth="yes"/>
      <point x="456" y="650"/>
      <point x="399" y="710"/>
      <point x="284" y="710" type="curve" smooth="yes"/>
      <point x="238" y="710"/>
      <point x="188" y="699"/>
      <point x="132" y="677" type="curve"/>
      <point x="154" y="608" type="line"/>
      <point x="204" y="627"/>
      <point x="237" y="634"/>
      <point x="265" y="634" type="curve" smooth="yes"/>
      <point x="332" y="634"/>
      <point x="359" y="606"/>
      <point x="347" y="550" type="curve" smooth="yes"/>
      <point x="341" y="522" type="line"/>
      <point x="308" y="538"/>
      <point x="269" y="547"/>
      <point x="231" y="547" type="curve" smooth="yes"/>
      <point x="132" y="547"/>
      <point x="70" y="498"/>
      <point x="70" y="420" type="curve" smooth="yes"/>
      <point x="70" y="354"/>
      <point x="120" y="311"/>
    </contour>
    <contour>
      <point x="231" y="376" type="curve" smooth="yes"/>
      <point x="183" y="376"/>
      <point x="155" y="395"/>
      <point x="155" y="427" type="curve" smooth="yes"/>
      <point x="155" y="463"/>
      <point x="188" y="486"/>
      <point x="238" y="486" type="curve" smooth="yes"/>
      <point x="271" y="486"/>
      <point x="302" y="478"/>
      <point x="328" y="463" type="curve"/>
      <point x="316" y="403" type="line"/>
      <point x="290" y="385"/>
      <point x="262" y="376"/>
    </contour>
  </outline>
</glyph>
<glyph name="uni00AC" format="2">
  <advance width="601"/>
  <unicode hex="00AC"/>
  <outline>
    <contour>
      <point x="367" y="0" type="line"/>
      <point x="476" y="0" type="line"/>
      <point x="546" y="332" type="line"/>
      <point x="80" y="332" type="line"/>
      <point x="60" y="238" type="line"/>
      <point x="418" y="238" type="line"/>
    </contour>
  </outline>
</glyph>
<glyph name="registered" format="2">
  <advance width="487"/>
  <unicode hex="00AE"/>
  <outline>
    <contour>
      <point x="279" y="308" type="curve" smooth="yes"/>
      <point x="394" y="308"/>
      <point x="493" y="415"/>
      <point x="493" y="538" type="curve"/>
      <point x="493" y="642"/>
      <point x="422" y="718"/>
      <point x="323" y="718" type="curve" smooth="yes"/>
      <point x="208" y="718"/>
      <point x="108" y="611"/>
      <point x="108" y="488" type="curve"/>
      <point x="108" y="384"/>
      <point x="180" y="308"/>
    </contour>
    <contour>
      <point x="283" y="349" type="curve" smooth="yes"/>
      <point x="204" y="349"/>
      <point x="151" y="405"/>
      <point x="151" y="489" type="curve"/>
      <point x="151" y="593"/>
      <point x="225" y="677"/>
      <point x="318" y="677" type="curve" smooth="yes"/>
      <point x="398" y="677"/>
      <point x="451" y="621"/>
      <point x="451" y="537" type="curve"/>
      <point x="451" y="433"/>
      <point x="376" y="349"/>
    </contour>
    <contour>
      <point x="214" y="420" type="line"/>
      <point x="254" y="420" type="line"/>
      <point x="268" y="488" type="line"/>
      <point x="295" y="488" type="line"/>
      <point x="317" y="420" type="line"/>
      <point x="359" y="420" type="line"/>
      <point x="336" y="494" type="line"/>
      <point x="361" y="505"/>
      <point x="377" y="529"/>
      <point x="377" y="555" type="curve" smooth="yes"/>
      <point x="377" y="589"/>
      <point x="358" y="608"/>
      <point x="324" y="608" type="curve" smooth="yes"/>
      <point x="254" y="608" type="line"/>
    </contour>
    <contour>
      <point x="275" y="519" type="line"/>
      <point x="287" y="575" type="line"/>
      <point x="313" y="575" type="line" smooth="yes"/>
      <point x="330" y="575"/>
      <point x="337" y="567"/>
      <point x="337" y="550" type="curve" smooth="yes"/>
      <point x="337" y="532"/>
      <point x="325" y="519"/>
      <point x="307" y="519" type="curve" smooth="yes"/>
    </contour>
  </outline>
</glyph>
<glyph name="macron" format="2">
  <advance width="600"/>
  <unicode hex="00AF"/>
  <outline>
    <contour>
      <point x="229" y="618" type="line"/>
      <point x="522" y="618" type="line"/>
      <point x="538" y="692" type="line"/>
      <point x="245" y="692" type="line"/>
    </contour>
  </outline>
</glyph>
<glyph name="degree" format="2">
  <advance width="402"/>
  <unicode hex="00B0"/>
  <outline>
    <contour>
      <point x="255" y="420" type="curve" smooth="yes"/>
      <point x="345" y="420"/>
      <point x="419" y="496"/>
      <point x="419" y="587" type="curve" smooth="yes"/>
      <point x="419" y="657"/>
      <point x="363" y="710"/>
      <point x="290" y="710" type="curve" smooth="yes"/>
      <point x="201" y="710"/>
      <point x="127" y="634"/>
      <point x="127" y="543" type="curve" smooth="yes"/>
      <point x="127" y="474"/>
      <point x="183" y="420"/>
    </contour>
    <contour>
      <point x="258" y="483" type="curve" smooth="yes"/>
      <point x="222" y="483"/>
      <point x="191" y="514"/>
      <point x="191" y="552" type="curve" smooth="yes"/>
      <point x="191" y="604"/>
      <point x="234" y="647"/>
      <point x="287" y="647" type="curve" smooth="yes"/>
      <point x="324" y="647"/>
      <point x="354" y="616"/>
      <point x="354" y="578" type="curve" smooth="yes"/>
      <point x="354" y="526"/>
      <point x="311" y="483"/>
    </contour>
  </outline>
</glyph>
<glyph name="plusminus" format="2">
  <advance width="599"/>
  <unicode hex="00B1"/>
  <outline>
    <contour>
      <point x="38" y="-1" type="line"/>
      <point x="458" y="-1" type="line"/>
      <point x="477" y="89" type="line"/>
      <point x="57" y="89" type="line"/>
    </contour>
    <contour>
      <point x="245" y="189" type="line"/>
      <point x="332" y="189" type="line"/>
      <point x="366" y="353" type="line"/>
      <point x="532" y="353" type="line"/>
      <point x="551" y="442" type="line"/>
      <point x="385" y="442" type="line"/>
      <point x="420" y="605" type="line"/>
      <point x="333" y="605" type="line"/>
      <point x="299" y="442" type="line"/>
      <point x="132" y="442" type="line"/>
      <point x="113" y="353" type="line"/>
      <point x="280" y="353" type="line"/>
    </contour>
  </outline>
</glyph>
<glyph name="twosuperior" format="2">
  <advance width="296"/>
  <unicode hex="00B2"/>
  <outline>
    <contour>
      <point x="49" y="350" type="line"/>
      <point x="296" y="350" type="line"/>
      <point x="308" y="409" type="line"/>
      <point x="155" y="409" type="line"/>
      <point x="278" y="509" type="line" smooth="yes"/>
      <point x="325" y="545"/>
      <point x="344" y="577"/>
      <point x="344" y="616" type="curve" smooth="yes"/>
      <point x="344" y="669"/>
      <point x="298" y="705"/>
      <point x="232" y="705" type="curve" smooth="yes"/>
      <point x="190" y="705"/>
      <point x="146" y="688"/>
      <point x="103" y="656" type="curve"/>
      <point x="131" y="606" type="line"/>
      <point x="166" y="633"/>
      <point x="193" y="644"/>
      <point x="220" y="644" type="curve" smooth="yes"/>
      <point x="253" y="644"/>
      <point x="274" y="627"/>
      <point x="274" y="602" type="curve" smooth="yes"/>
      <point x="274" y="581"/>
      <point x="260" y="560"/>
      <point x="231" y="538" type="curve" smooth="yes"/>
      <point x="60" y="400" type="line"/>
    </contour>
  </outline>
</glyph>
<glyph name="threesuperior" format="2">
  <advance width="316"/>
  <unicode hex="00B3"/>
  <outline>
    <contour>
      <point x="189" y="345" type="curve" smooth="yes"/>
      <point x="268" y="345"/>
      <point x="330" y="394"/>
      <point x="330" y="455" type="curve" smooth="yes"/>
      <point x="330" y="489"/>
      <point x="308" y="513"/>
      <point x="270" y="524" type="curve"/>
      <point x="319" y="536"/>
      <point x="356" y="571"/>
      <point x="356" y="611" type="curve" smooth="yes"/>
      <point x="356" y="667"/>
      <point x="307" y="706"/>
      <point x="239" y="706" type="curve" smooth="yes"/>
      <point x="196" y="706"/>
      <point x="150" y="691"/>
      <point x="108" y="662" type="curve"/>
      <point x="141" y="611" type="line"/>
      <point x="176" y="633"/>
      <point x="203" y="643"/>
      <point x="229" y="643" type="curve" smooth="yes"/>
      <point x="260" y="643"/>
      <point x="284" y="624"/>
      <point x="284" y="598" type="curve" smooth="yes"/>
      <point x="284" y="572"/>
      <point x="255" y="552"/>
      <point x="215" y="552" type="curve" smooth="yes"/>
      <point x="186" y="552" type="line"/>
      <point x="174" y="495" type="line"/>
      <point x="210" y="495" type="line" smooth="yes"/>
      <point x="242" y="495"/>
      <point x="262" y="479"/>
      <point x="262" y="453" type="curve" smooth="yes"/>
      <point x="262" y="426"/>
      <point x="232" y="407"/>
      <point x="194" y="407" type="curve" smooth="yes"/>
      <point x="159" y="407"/>
      <point x="128" y="421"/>
      <point x="102" y="448" type="curve"/>
      <point x="55" y="403" type="line"/>
      <point x="85" y="364"/>
      <point x="131" y="345"/>
    </contour>
  </outline>
</glyph>
<glyph name="acute" format="2">
  <advance width="600"/>
  <unicode hex="00B4"/>
  <outline>
    <contour>
      <point x="303" y="592" type="line"/>
      <point x="407" y="592" type="line"/>
      <point x="596" y="725" type="line"/>
      <point x="453" y="725" type="line"/>
    </contour>
  </outline>
</glyph>
<glyph name="uni00B5" format="2">
  <advance width="604"/>
  <unicode hex="00B5"/>
  <outline>
    <contour>
      <point x="-18" y="-210" type="line"/>
      <point x="96" y="-210" type="line"/>
      <point x="143" y="16" type="line"/>
      <point x="161" y="2"/>
      <point x="186" y="-7"/>
      <point x="216" y="-7" type="curve" smooth="yes"/>
      <point x="278" y="-7"/>
      <point x="331" y="21"/>
      <point x="372" y="77" type="curve"/>
      <point x="356" y="0" type="line"/>
      <point x="468" y="0" type="line"/>
      <point x="575" y="501" type="line"/>
      <point x="463" y="501" type="line"/>
      <point x="386" y="141" type="line"/>
      <point x="352" y="102"/>
      <point x="313" y="82"/>
      <point x="269" y="82" type="curve" smooth="yes"/>
      <point x="202" y="82"/>
      <point x="167" y="132"/>
      <point x="183" y="207" type="curve" smooth="yes"/>
      <point x="245" y="501" type="line"/>
      <point x="134" y="501" type="line"/>
    </contour>
  </outline>
</glyph>
<glyph name="paragraph" format="2">
  <advance width="669"/>
  <unicode hex="00B6"/>
  <outline>
    <contour>
      <point x="255" y="0" type="line"/>
      <point x="346" y="0" type="line"/>
      <point x="403" y="266" type="line"/>
      <point x="500" y="266" type="line"/>
      <point x="443" y="0" type="line"/>
      <point x="533" y="0" type="line"/>
      <point x="682" y="700" type="line"/>
      <point x="340" y="700" type="line" smooth="yes"/>
      <point x="196" y="700"/>
      <point x="93" y="597"/>
      <point x="93" y="454" type="curve" smooth="yes"/>
      <point x="93" y="342"/>
      <point x="173" y="266"/>
      <point x="294" y="266" type="curve" smooth="yes"/>
      <point x="312" y="266" type="line"/>
    </contour>
    <contour>
      <point x="422" y="358" type="line"/>
      <point x="475" y="607" type="line"/>
      <point x="572" y="607" type="line"/>
      <point x="519" y="358" type="line"/>
    </contour>
    <contour>
      <point x="300" y="358" type="line" smooth="yes"/>
      <point x="232" y="358"/>
      <point x="189" y="399"/>
      <point x="189" y="467" type="curve" smooth="yes"/>
      <point x="189" y="548"/>
      <point x="247" y="607"/>
      <point x="326" y="607" type="curve" smooth="yes"/>
      <point x="384" y="607" type="line"/>
      <point x="331" y="358" type="line"/>
    </contour>
  </outline>
</glyph>
<glyph name="periodcentered" format="2">
  <advance width="250"/>
  <unicode hex="00B7"/>
  <outline>
    <contour>
      <point x="123" y="214" type="curve" smooth="yes"/>
      <point x="163" y="214"/>
      <point x="199" y="252"/>
      <point x="199" y="294" type="curve" smooth="yes"/>
      <point x="199" y="331"/>
      <point x="174" y="359"/>
      <point x="139" y="359" type="curve" smooth="yes"/>
      <point x="98" y="359"/>
      <point x="62" y="322"/>
      <point x="62" y="278" type="curve" smooth="yes"/>
      <point x="62" y="241"/>
      <point x="88" y="214"/>
    </contour>
  </outline>
</glyph>
<glyph name="cedilla" format="2">
  <advance width="600"/>
  <unicode hex="00B8"/>
  <outline>
    <contour>
      <point x="207" y="-245" type="curve" smooth="yes"/>
      <point x="278" y="-245"/>
      <point x="333" y="-198"/>
      <point x="333" y="-137" type="curve" smooth="yes"/>
      <point x="333" y="-97"/>
      <point x="303" y="-68"/>
      <point x="250" y="-63" type="curve"/>
      <point x="278" y="0" type="line"/>
      <point x="222" y="0" type="line"/>
      <point x="177" y="-104" type="line"/>
      <point x="211" y="-104" type="line" smooth="yes"/>
      <point x="246" y="-104"/>
      <point x="269" y="-119"/>
      <point x="269" y="-144" type="curve" smooth="yes"/>
      <point x="269" y="-172"/>
      <point x="244" y="-191"/>
      <point x="205" y="-191" type="curve" smooth="yes"/>
      <point x="176" y="-191"/>
      <point x="150" y="-180"/>
      <point x="130" y="-159" type="curve"/>
      <point x="89" y="-201" type="line"/>
      <point x="114" y="-230"/>
      <point x="155" y="-245"/>
    </contour>
  </outline>
</glyph>
<glyph name="onesuperior" format="2">
  <advance width="181"/>
  <unicode hex="00B9"/>
  <outline>
    <contour>
      <point x="107" y="350" type="line"/>
      <point x="176" y="350" type="line"/>
      <point x="251" y="700" type="line"/>
      <point x="207" y="700" type="line"/>
      <point x="107" y="660" type="line"/>
      <point x="94" y="599" type="line"/>
      <point x="167" y="627" type="line"/>
    </contour>
  </outline>
</glyph>
<glyph name="ordmasculine" format="2">
  <advance width="468"/>
  <unicode hex="00BA"/>
  <outline>
    <contour>
      <point x="275" y="308" type="curve" smooth="yes"/>
      <point x="390" y="308"/>
      <point x="488" y="407"/>
      <point x="488" y="524" type="curve" smooth="yes"/>
      <point x="488" y="631"/>
      <point x="408" y="710"/>
      <point x="301" y="710" type="curve" smooth="yes"/>
      <point x="184" y="710"/>
      <point x="86" y="612"/>
      <point x="86" y="494" type="curve" smooth="yes"/>
      <point x="86" y="388"/>
      <point x="167" y="308"/>
    </contour>
    <contour>
      <point x="279" y="387" type="curve" smooth="yes"/>
      <point x="218" y="387"/>
      <point x="174" y="434"/>
      <point x="174" y="498" type="curve" smooth="yes"/>
      <point x="174" y="571"/>
      <point x="230" y="631"/>
      <point x="296" y="631" type="curve" smooth="yes"/>
      <point x="356" y="631"/>
      <point x="400" y="584"/>
      <point x="400" y="520" type="curve" smooth="yes"/>
      <point x="400" y="448"/>
      <point x="345" y="387"/>
    </contour>
  </outline>
</glyph>
<glyph name="guillemotright" format="2">
  <advance width="679"/>
  <unicode hex="00BB"/>
  <outline>
    <contour>
      <point x="474" y="501" type="line"/>
      <point x="364" y="501" type="line"/>
      <point x="527" y="252" type="line"/>
      <point x="252" y="0" type="line"/>
      <point x="365" y="0" type="line"/>
      <point x="643" y="250" type="line"/>
    </contour>
    <contour>
      <point x="221" y="501" type="line"/>
      <point x="111" y="501" type="line"/>
      <point x="273" y="252" type="line"/>
      <point x="-1" y="0" type="line"/>
      <point x="112" y="0" type="line"/>
      <point x="390" y="250" type="line"/>
    </contour>
  </outline>
</glyph>
<glyph name="questiondown" format="2">
  <advance width="512"/>
  <unicode hex="00BF"/>
  <outline>
    <contour>
      <point x="336" y="499" type="curve" smooth="yes"/>
      <point x="296" y="499"/>
      <point x="260" y="462"/>
      <point x="260" y="420" type="curve" smooth="yes"/>
      <point x="260" y="386"/>
      <point x="285" y="359"/>
      <point x="319" y="359" type="curve" smooth="yes"/>
      <point x="361" y="359"/>
      <point x="396" y="394"/>
      <point x="396" y="437" type="curve" smooth="yes"/>
      <point x="396" y="472"/>
      <point x="371" y="499"/>
    </contour>
    <contour>
      <point x="345" y="272" type="curve"/>
      <point x="254" y="272" type="line"/>
      <point x="245" y="220"/>
      <point x="225" y="192"/>
      <point x="175" y="164" type="curve" smooth="yes"/>
      <point x="131" y="137" type="line" smooth="yes"/>
      <point x="32" y="78"/>
      <point x="-10" y="20"/>
      <point x="-10" y="-58" type="curve" smooth="yes"/>
      <point x="-10" y="-153"/>
      <point x="70" y="-219"/>
      <point x="187" y="-219" type="curve" smooth="yes"/>
      <point x="277" y="-219"/>
      <point x="364" y="-172"/>
      <point x="424" y="-91" type="curve"/>
      <point x="349" y="-44" type="line"/>
      <point x="310" y="-92"/>
      <point x="257" y="-122"/>
      <point x="202" y="-122" type="curve" smooth="yes"/>
      <point x="139" y="-122"/>
      <point x="98" y="-89"/>
      <point x="98" y="-42" type="curve"/>
      <point x="98" y="-5"/>
      <point x="124" y="32"/>
      <point x="172" y="61" type="curve" smooth="yes"/>
      <point x="232" y="98" type="line" smooth="yes"/>
      <point x="301" y="138"/>
      <point x="330" y="185"/>
    </contour>
  </outline>
</glyph>
<glyph name="AE" format="2">
  <advance width="930"/>
  <unicode hex="00C6"/>
  <outline>
    <contour>
      <point x="-49" y="0" type="line"/>
      <point x="74" y="0" type="line"/>
      <point x="189" y="196" type="line"/>
      <point x="469" y="196" type="line"/>
      <point x="495" y="0" type="line"/>
      <point x="824" y="0" type="line"/>
      <point x="846" y="105" type="line"/>
      <point x="599" y="105" type="line"/>
      <point x="572" y="302" type="line"/>
      <point x="764" y="302" type="line"/>
      <point x="786" y="404" type="line"/>
      <point x="558" y="404" type="line"/>
      <point x="531" y="595" type="line"/>
      <point x="950" y="595" type="line"/>
      <point x="972" y="700" type="line"/>
      <point x="368" y="700" type="line"/>
    </contour>
    <contour>
      <point x="243" y="290" type="line"/>
      <point x="416" y="586" type="line"/>
      <point x="457" y="290" type="line"/>
    </contour>
  </outline>
</glyph>
<glyph name="Ccedilla" format="2">
  <advance width="712"/>
  <unicode hex="00C7"/>
  <outline>
    <contour>
      <point x="336" y="-245" type="curve" smooth="yes"/>
      <point x="407" y="-245"/>
      <point x="462" y="-198"/>
      <point x="462" y="-137" type="curve" smooth="yes"/>
      <point x="462" y="-97"/>
      <point x="431" y="-68"/>
      <point x="379" y="-63" type="curve"/>
      <point x="402" y="-11" type="line"/>
      <point x="494" y="-11"/>
      <point x="592" y="32"/>
      <point x="665" y="103" type="curve"/>
      <point x="601" y="182" type="line"/>
      <point x="547" y="127"/>
      <point x="479" y="96"/>
      <point x="411" y="96" type="curve" smooth="yes"/>
      <point x="284" y="96"/>
      <point x="191" y="194"/>
      <point x="191" y="327" type="curve" smooth="yes"/>
      <point x="191" y="480"/>
      <point x="302" y="602"/>
      <point x="442" y="602" type="curve" smooth="yes"/>
      <point x="521" y="602"/>
      <point x="587" y="566"/>
      <point x="626" y="499" type="curve"/>
      <point x="717" y="574" type="line"/>
      <point x="660" y="663"/>
      <point x="566" y="710"/>
      <point x="448" y="710" type="curve" smooth="yes"/>
      <point x="241" y="710"/>
      <point x="70" y="535"/>
      <point x="70" y="321" type="curve" smooth="yes"/>
      <point x="70" y="151"/>
      <point x="187" y="17"/>
      <point x="348" y="-7" type="curve"/>
      <point x="305" y="-104" type="line"/>
      <point x="339" y="-104" type="line" smooth="yes"/>
      <point x="375" y="-104"/>
      <point x="397" y="-119"/>
      <point x="397" y="-144" type="curve" smooth="yes"/>
      <point x="397" y="-172"/>
      <point x="373" y="-191"/>
      <point x="334" y="-191" type="curve" smooth="yes"/>
      <point x="304" y="-191"/>
      <point x="279" y="-180"/>
      <point x="259" y="-159" type="curve"/>
      <point x="217" y="-201" type="line"/>
      <point x="243" y="-230"/>
      <point x="284" y="-245"/>
    </contour>
  </outline>
</glyph>
<glyph name="multiply" format="2">
  <advance width="599"/>
  <unicode hex="00D7"/>
  <outline>
    <contour>
      <point x="134" y="148" type="line"/>
      <point x="311" y="302" type="line"/>
      <point x="422" y="148" type="line"/>
      <point x="489" y="204" type="line"/>
      <point x="376" y="358" type="line"/>
      <point x="555" y="513" type="line"/>
      <point x="512" y="570" type="line"/>
      <point x="335" y="416" type="line"/>
      <point x="224" y="569" type="line"/>
      <point x="158" y="513" type="line"/>
      <point x="270" y="359" type="line"/>
      <point x="93" y="205" type="line"/>
    </contour>
  </outline>
</glyph>
<glyph name="Oslash" format="2">
  <advance width="797"/>
  <unicode hex="00D8"/>
  <outline>
    <contour>
      <point x="392" y="-11" type="curve" smooth="yes"/>
      <point x="596" y="-11"/>
      <point x="765" y="166"/>
      <point x="765" y="380" type="curve" smooth="yes"/>
      <point x="765" y="455"/>
      <point x="743" y="522"/>
      <point x="705" y="577" type="curve"/>
      <point x="835" y="703" type="line"/>
      <point x="726" y="703" type="line"/>
      <point x="655" y="633" type="line"/>
      <point x="599" y="682"/>
      <point x="526" y="711"/>
      <point x="443" y="711" type="curve" smooth="yes"/>
      <point x="239" y="711"/>
      <point x="70" y="534"/>
      <point x="70" y="320" type="curve" smooth="yes"/>
      <point x="70" y="244"/>
      <point x="92" y="175"/>
      <point x="131" y="121" type="curve"/>
      <point x="4" y="-3" type="line"/>
      <point x="112" y="-3" type="line"/>
      <point x="182" y="66" type="line"/>
      <point x="238" y="17"/>
      <point x="310" y="-11"/>
    </contour>
    <contour>
      <point x="220" y="207" type="line"/>
      <point x="200" y="241"/>
      <point x="190" y="283"/>
      <point x="190" y="327" type="curve" smooth="yes"/>
      <point x="190" y="479"/>
      <point x="300" y="603"/>
      <point x="436" y="603" type="curve" smooth="yes"/>
      <point x="489" y="603"/>
      <point x="535" y="584"/>
      <point x="571" y="552" type="curve"/>
    </contour>
    <contour>
      <point x="400" y="97" type="curve" smooth="yes"/>
      <point x="347" y="97"/>
      <point x="301" y="115"/>
      <point x="266" y="147" type="curve"/>
      <point x="616" y="490" type="line"/>
      <point x="634" y="457"/>
      <point x="645" y="417"/>
      <point x="645" y="373" type="curve" smooth="yes"/>
      <point x="645" y="221"/>
      <point x="535" y="97"/>
    </contour>
  </outline>
</glyph>
<glyph name="Thorn" format="2">
  <advance width="657"/>
  <unicode hex="00DE"/>
  <outline>
    <contour>
      <point x="29" y="0" type="line"/>
      <point x="146" y="0" type="line"/>
      <point x="175" y="139" type="line"/>
      <point x="367" y="139" type="line" smooth="yes"/>
      <point x="521" y="139"/>
      <point x="627" y="236"/>
      <point x="627" y="377" type="curve" smooth="yes"/>
      <point x="627" y="495"/>
      <point x="547" y="565"/>
      <point x="413" y="565" type="curve" smooth="yes"/>
      <point x="266" y="565" type="line"/>
      <point x="295" y="700" type="line"/>
      <point x="178" y="700" type="line"/>
    </contour>
    <contour>
      <point x="196" y="236" type="line"/>
      <point x="244" y="463" type="line"/>
      <point x="388" y="463" type="line" smooth="yes"/>
      <point x="467" y="463"/>
      <point x="508" y="431"/>
      <point x="508" y="369" type="curve" smooth="yes"/>
      <point x="508" y="285"/>
      <point x="453" y="236"/>
      <point x="359" y="236" type="curve" smooth="yes"/>
    </contour>
  </outline>
</glyph>
<glyph name="germandbls" format="2">
  <advance width="642"/>
  <unicode hex="00DF"/>
  <outline>
    <contour>
      <point x="411" y="-12" type="curve" smooth="yes"/>
      <point x="519" y="-12"/>
      <point x="597" y="57"/>
      <point x="597" y="154" type="curve" smooth="yes"/>
      <point x="597" y="209"/>
      <point x="566" y="252"/>
      <point x="498" y="284" type="curve" smooth="yes"/>
      <point x="436" y="314" type="line" smooth="yes"/>
      <point x="413" y="325"/>
      <point x="402" y="339"/>
      <point x="402" y="357" type="curve" smooth="yes"/>
      <point x="402" y="430"/>
      <point x="599" y="419"/>
      <point x="599" y="581" type="curve" smooth="yes"/>
      <point x="599" y="680"/>
      <point x="508" y="752"/>
      <point x="385" y="752" type="curve" smooth="yes"/>
      <point x="243" y="752"/>
      <point x="149" y="669"/>
      <point x="121" y="533" type="curve" smooth="yes"/>
      <point x="11" y="0" type="line"/>
      <point x="122" y="0" type="line"/>
      <point x="229" y="516" type="line" smooth="yes"/>
      <point x="248" y="608"/>
      <point x="304" y="657"/>
      <point x="383" y="657" type="curve" smooth="yes"/>
      <point x="448" y="657"/>
      <point x="492" y="620"/>
      <point x="492" y="572" type="curve" smooth="yes"/>
      <point x="492" y="461"/>
      <point x="294" y="476"/>
      <point x="294" y="341" type="curve" smooth="yes"/>
      <point x="294" y="298"/>
      <point x="318" y="265"/>
      <point x="367" y="240" type="curve" smooth="yes"/>
      <point x="432" y="209" type="line" smooth="yes"/>
      <point x="479" y="187"/>
      <point x="495" y="169"/>
      <point x="495" y="142" type="curve" smooth="yes"/>
      <point x="495" y="99"/>
      <point x="462" y="72"/>
      <point x="410" y="72" type="curve" smooth="yes"/>
      <point x="360" y="72"/>
      <point x="312" y="97"/>
      <point x="279" y="141" type="curve"/>
      <point x="215" y="75" type="line"/>
      <point x="262" y="18"/>
      <point x="330" y="-12"/>
    </contour>
  </outline>
</glyph>
<glyph name="ae" format="2">
  <advance width="867"/>
  <unicode hex="00E6"/>
  <outline>
    <contour>
      <point x="199" y="-6" type="curve" smooth="yes"/>
      <point x="274" y="-6"/>
      <point x="337" y="19"/>
      <point x="401" y="75" type="curve"/>
      <point x="443" y="22"/>
      <point x="509" y="-9"/>
      <point x="588" y="-9" type="curve" smooth="yes"/>
      <point x="655" y="-9"/>
      <point x="711" y="8"/>
      <point x="772" y="51" type="curve"/>
      <point x="711" y="124" type="line"/>
      <point x="682" y="98"/>
      <point x="640" y="83"/>
      <point x="597" y="83" type="curve" smooth="yes"/>
      <point x="519" y="83"/>
      <point x="461" y="143"/>
      <point x="460" y="223" type="curve"/>
      <point x="821" y="223" type="line"/>
      <point x="824" y="243"/>
      <point x="825" y="263"/>
      <point x="825" y="286" type="curve" smooth="yes"/>
      <point x="825" y="417"/>
      <point x="740" y="509"/>
      <point x="617" y="509" type="curve" smooth="yes"/>
      <point x="550" y="509"/>
      <point x="489" y="481"/>
      <point x="442" y="434" type="curve"/>
      <point x="416" y="481"/>
      <point x="362" y="508"/>
      <point x="286" y="508" type="curve" smooth="yes"/>
      <point x="229" y="508"/>
      <point x="170" y="495"/>
      <point x="95" y="466" type="curve"/>
      <point x="122" y="384" type="line"/>
      <point x="179" y="406"/>
      <point x="220" y="416"/>
      <point x="257" y="416" type="curve" smooth="yes"/>
      <point x="340" y="416"/>
      <point x="379" y="378"/>
      <point x="363" y="303" type="curve" smooth="yes"/>
      <point x="356" y="266" type="line"/>
      <point x="318" y="284"/>
      <point x="273" y="293"/>
      <point x="225" y="293" type="curve" smooth="yes"/>
      <point x="108" y="293"/>
      <point x="32" y="230"/>
      <point x="32" y="133" type="curve" smooth="yes"/>
      <point x="32" y="49"/>
      <point x="98" y="-6"/>
    </contour>
    <contour>
      <point x="468" y="293" type="line"/>
      <point x="489" y="366"/>
      <point x="543" y="417"/>
      <point x="610" y="417" type="curve" smooth="yes"/>
      <point x="674" y="417"/>
      <point x="722" y="365"/>
      <point x="725" y="293" type="curve"/>
    </contour>
    <contour>
      <point x="231" y="72" type="curve" smooth="yes"/>
      <point x="169" y="72"/>
      <point x="133" y="98"/>
      <point x="133" y="143" type="curve" smooth="yes"/>
      <point x="133" y="190"/>
      <point x="174" y="221"/>
      <point x="239" y="221" type="curve" smooth="yes"/>
      <point x="283" y="221"/>
      <point x="321" y="213"/>
      <point x="354" y="197" type="curve"/>
      <point x="356" y="172"/>
      <point x="361" y="149"/>
      <point x="370" y="128" type="curve"/>
      <point x="327" y="91"/>
      <point x="279" y="72"/>
    </contour>
  </outline>
</glyph>
<glyph name="ccedilla" format="2">
  <advance width="511"/>
  <unicode hex="00E7"/>
  <outline>
    <contour>
      <point x="221" y="-245" type="curve" smooth="yes"/>
      <point x="292" y="-245"/>
      <point x="347" y="-198"/>
      <point x="347" y="-137" type="curve" smooth="yes"/>
      <point x="347" y="-96"/>
      <point x="316" y="-69"/>
      <point x="264" y="-63" type="curve"/>
      <point x="288" y="-9" type="line"/>
      <point x="349" y="-4"/>
      <point x="408" y="20"/>
      <point x="455" y="63" type="curve"/>
      <point x="401" y="134" type="line"/>
      <point x="368" y="105"/>
      <point x="328" y="88"/>
      <point x="285" y="88" type="curve" smooth="yes"/>
      <point x="210" y="88"/>
      <point x="155" y="145"/>
      <point x="155" y="225" type="curve" smooth="yes"/>
      <point x="155" y="326"/>
      <point x="228" y="409"/>
      <point x="315" y="409" type="curve" smooth="yes"/>
      <point x="367" y="409"/>
      <point x="408" y="386"/>
      <point x="435" y="341" type="curve"/>
      <point x="516" y="407" type="line"/>
      <point x="475" y="470"/>
      <point x="400" y="508"/>
      <point x="318" y="508" type="curve" smooth="yes"/>
      <point x="168" y="508"/>
      <point x="45" y="377"/>
      <point x="45" y="217" type="curve" smooth="yes"/>
      <point x="45" y="98"/>
      <point x="122" y="8"/>
      <point x="232" y="-7" type="curve"/>
      <point x="190" y="-104" type="line"/>
      <point x="224" y="-104" type="line" smooth="yes"/>
      <point x="260" y="-104"/>
      <point x="282" y="-119"/>
      <point x="282" y="-144" type="curve" smooth="yes"/>
      <point x="282" y="-172"/>
      <point x="257" y="-191"/>
      <point x="219" y="-191" type="curve" smooth="yes"/>
      <point x="189" y="-191"/>
      <point x="164" y="-180"/>
      <point x="144" y="-159" type="curve"/>
      <point x="102" y="-201" type="line"/>
      <point x="128" y="-230"/>
      <point x="169" y="-245"/>
    </contour>
  </outline>
</glyph>
<glyph name="eth" format="2">
  <advance width="581"/>
  <unicode hex="00F0"/>
  <outline>
    <contour>
      <point x="266" y="-10" type="curve" smooth="yes"/>
      <point x="433" y="-10"/>
      <point x="553" y="152"/>
      <point x="553" y="376" type="curve" smooth="yes"/>
      <point x="553" y="470"/>
      <point x="532" y="551"/>
      <point x="491" y="619" type="curve"/>
      <point x="582" y="665" type="line"/>
      <point x="557" y="726" type="line"/>
      <point x="450" y="673" type="line"/>
      <point x="423" y="705"/>
      <point x="390" y="731"/>
      <point x="351" y="754" type="curve"/>
      <point x="284" y="682" type="line"/>
      <point x="313" y="668"/>
      <point x="338" y="649"/>
      <point x="360" y="627" type="curve"/>
      <point x="280" y="587" type="line"/>
      <point x="305" y="525" type="line"/>
      <point x="403" y="575" type="line"/>
      <point x="441" y="517"/>
      <point x="460" y="448"/>
      <point x="459" y="371" type="curve"/>
      <point x="437" y="430"/>
      <point x="372" y="473"/>
      <point x="290" y="473" type="curve" smooth="yes"/>
      <point x="154" y="473"/>
      <point x="49" y="360"/>
      <point x="49" y="212" type="curve" smooth="yes"/>
      <point x="49" y="81"/>
      <point x="138" y="-10"/>
    </contour>
    <contour>
      <point x="271" y="87" type="curve" smooth="yes"/>
      <point x="201" y="87"/>
      <point x="150" y="142"/>
      <point x="150" y="219" type="curve" smooth="yes"/>
      <point x="150" y="309"/>
      <point x="220" y="386"/>
      <point x="303" y="386" type="curve" smooth="yes"/>
      <point x="372" y="386"/>
      <point x="423" y="330"/>
      <point x="423" y="255" type="curve" smooth="yes"/>
      <point x="423" y="166"/>
      <point x="353" y="87"/>
    </contour>
  </outline>
</glyph>
<glyph name="divide" format="2">
  <advance width="599"/>
  <unicode hex="00F7"/>
  <outline>
    <contour>
      <point x="105" y="313" type="line"/>
      <point x="524" y="313" type="line"/>
      <point x="543" y="402" type="line"/>
      <point x="123" y="402" type="line"/>
    </contour>
    <contour>
      <point x="276" y="84" type="curve" smooth="yes"/>
      <point x="318" y="84"/>
      <point x="353" y="120"/>
      <point x="353" y="160" type="curve" smooth="yes"/>
      <point x="353" y="198"/>
      <point x="324" y="227"/>
      <point x="288" y="227" type="curve" smooth="yes"/>
      <point x="245" y="227"/>
      <point x="209" y="191"/>
      <point x="209" y="150" type="curve" smooth="yes"/>
      <point x="209" y="113"/>
      <point x="238" y="84"/>
    </contour>
    <contour>
      <point x="363" y="494" type="curve" smooth="yes"/>
      <point x="405" y="494"/>
      <point x="440" y="530"/>
      <point x="440" y="569" type="curve" smooth="yes"/>
      <point x="440" y="607"/>
      <point x="411" y="636"/>
      <point x="375" y="636" type="curve" smooth="yes"/>
      <point x="332" y="636"/>
      <point x="296" y="601"/>
      <point x="296" y="560" type="curve" smooth="yes"/>
      <point x="296" y="522"/>
      <point x="325" y="494"/>
    </contour>
  </outline>
</glyph>
<glyph name="oslash" format="2">
  <advance width="589"/>
  <unicode hex="00F8"/>
  <outline>
    <contour>
      <point x="271" y="-10" type="curve" smooth="yes"/>
      <point x="419" y="-10"/>
      <point x="542" y="119"/>
      <point x="542" y="276" type="curve" smooth="yes"/>
      <point x="542" y="329"/>
      <point x="528" y="376"/>
      <point x="503" y="413" type="curve"/>
      <point x="595" y="503" type="line"/>
      <point x="509" y="503" type="line"/>
      <point x="463" y="458" type="line"/>
      <point x="424" y="491"/>
      <point x="375" y="510"/>
      <point x="317" y="510" type="curve" smooth="yes"/>
      <point x="167" y="510"/>
      <point x="46" y="382"/>
      <point x="46" y="224" type="curve" smooth="yes"/>
      <point x="46" y="171"/>
      <point x="60" y="124"/>
      <point x="85" y="87" type="curve"/>
      <point x="-6" y="-3" type="line"/>
      <point x="79" y="-3" type="line"/>
      <point x="125" y="42" type="line"/>
      <point x="163" y="9"/>
      <point x="213" y="-10"/>
    </contour>
    <contour>
      <point x="167" y="166" type="line"/>
      <point x="160" y="185"/>
      <point x="155" y="205"/>
      <point x="155" y="228" type="curve" smooth="yes"/>
      <point x="155" y="331"/>
      <point x="224" y="414"/>
      <point x="310" y="414" type="curve" smooth="yes"/>
      <point x="342" y="414"/>
      <point x="368" y="403"/>
      <point x="388" y="385" type="curve"/>
    </contour>
    <contour>
      <point x="277" y="88" type="curve" smooth="yes"/>
      <point x="246" y="88"/>
      <point x="220" y="98"/>
      <point x="200" y="116" type="curve"/>
      <point x="421" y="333" type="line"/>
      <point x="428" y="316"/>
      <point x="432" y="296"/>
      <point x="432" y="274" type="curve" smooth="yes"/>
      <point x="432" y="169"/>
      <point x="364" y="88"/>
    </contour>
  </outline>
</glyph>
<glyph name="thorn" format="2">
  <advance width="599"/>
  <unicode hex="00FE"/>
  <outline>
    <contour>
      <point x="-31" y="-209" type="line"/>
      <point x="81" y="-209" type="line"/>
      <point x="142" y="79" type="line"/>
      <point x="173" y="24"/>
      <point x="228" y="-6"/>
      <point x="296" y="-6" type="curve" smooth="yes"/>
      <point x="437" y="-6"/>
      <point x="552" y="121"/>
      <point x="552" y="276" type="curve" smooth="yes"/>
      <point x="552" y="406"/>
      <point x="468" y="504"/>
      <point x="358" y="504" type="curve" smooth="yes"/>
      <point x="304" y="504"/>
      <point x="255" y="483"/>
      <point x="218" y="445" type="curve"/>
      <point x="280" y="737" type="line"/>
      <point x="166" y="717" type="line"/>
    </contour>
    <contour>
      <point x="312" y="410" type="curve" smooth="yes"/>
      <point x="389" y="410"/>
      <point x="443" y="352"/>
      <point x="443" y="267" type="curve" smooth="yes"/>
      <point x="443" y="167"/>
      <point x="372" y="90"/>
      <point x="279" y="90" type="curve" smooth="yes"/>
      <point x="229" y="90"/>
      <point x="181" y="117"/>
      <point x="158" y="158" type="curve"/>
      <point x="201" y="363" type="line"/>
      <point x="233" y="394"/>
      <point x="270" y="410"/>
    </contour>
  </outline>
</glyph>
<glyph name="Aogonek" format="2">
  <advance width="683"/>
  <unicode hex="0104"/>
  <outline>
    <contour>
      <point x="527" y="-232" type="curve" smooth="yes"/>
      <point x="556" y="-232"/>
      <point x="585" y="-225"/>
      <point x="606" y="-213" type="curve"/>
      <point x="602" y="-160" type="line"/>
      <point x="590" y="-166"/>
      <point x="571" y="-170"/>
      <point x="555" y="-170" type="curve" smooth="yes"/>
      <point x="525" y="-170"/>
      <point x="504" y="-154"/>
      <point x="504" y="-127" type="curve" smooth="yes"/>
      <point x="504" y="-85"/>
      <point x="543" y="-43"/>
      <point x="623" y="0" type="curve"/>
      <point x="503" y="700" type="line"/>
      <point x="366" y="700" type="line"/>
      <point x="-49" y="0" type="line"/>
      <point x="81" y="0" type="line"/>
      <point x="192" y="196" type="line"/>
      <point x="472" y="196" type="line"/>
      <point x="502" y="0" type="line"/>
      <point x="554" y="0" type="line"/>
      <point x="474" y="-48"/>
      <point x="435" y="-98"/>
      <point x="435" y="-154" type="curve" smooth="yes"/>
      <point x="435" y="-201"/>
      <point x="471" y="-232"/>
    </contour>
    <contour>
      <point x="244" y="290" type="line"/>
      <point x="412" y="586" type="line"/>
      <point x="458" y="290" type="line"/>
    </contour>
  </outline>
</glyph>
<glyph name="aogonek" format="2">
  <advance width="540"/>
  <unicode hex="0105"/>
  <outline>
    <contour>
      <point x="325" y="-232" type="curve" smooth="yes"/>
      <point x="354" y="-232"/>
      <point x="383" y="-225"/>
      <point x="404" y="-213" type="curve"/>
      <point x="400" y="-160" type="line"/>
      <point x="388" y="-166"/>
      <point x="369" y="-170"/>
      <point x="353" y="-170" type="curve" smooth="yes"/>
      <point x="323" y="-170"/>
      <point x="302" y="-154"/>
      <point x="302" y="-127" type="curve" smooth="yes"/>
      <point x="302" y="-85"/>
      <point x="341" y="-43"/>
      <point x="422" y="0" type="curve"/>
      <point x="489" y="304" type="line" smooth="yes"/>
      <point x="517" y="431"/>
      <point x="444" y="508"/>
      <point x="298" y="508" type="curve" smooth="yes"/>
      <point x="241" y="508"/>
      <point x="180" y="494"/>
      <point x="108" y="466" type="curve"/>
      <point x="135" y="384" type="line"/>
      <point x="192" y="406"/>
      <point x="234" y="416"/>
      <point x="271" y="416" type="curve" smooth="yes"/>
      <point x="359" y="416"/>
      <point x="395" y="377"/>
      <point x="378" y="300" type="curve" smooth="yes"/>
      <point x="368" y="257" type="line"/>
      <point x="327" y="280"/>
      <point x="275" y="293"/>
      <point x="221" y="293" type="curve" smooth="yes"/>
      <point x="101" y="293"/>
      <point x="24" y="230"/>
      <point x="24" y="132" type="curve" smooth="yes"/>
      <point x="24" y="48"/>
      <point x="87" y="-6"/>
      <point x="185" y="-6" type="curve" smooth="yes"/>
      <point x="232" y="-6"/>
      <point x="274" y="10"/>
      <point x="322" y="45" type="curve"/>
      <point x="312" y="0" type="line"/>
      <point x="352" y="0" type="line"/>
      <point x="272" y="-48"/>
      <point x="233" y="-98"/>
      <point x="233" y="-154" type="curve" smooth="yes"/>
      <point x="233" y="-201"/>
      <point x="269" y="-232"/>
    </contour>
    <contour>
      <point x="225" y="72" type="curve" smooth="yes"/>
      <point x="163" y="72"/>
      <point x="127" y="98"/>
      <point x="127" y="143" type="curve" smooth="yes"/>
      <point x="127" y="189"/>
      <point x="169" y="221"/>
      <point x="234" y="221" type="curve" smooth="yes"/>
      <point x="282" y="221"/>
      <point x="322" y="212"/>
      <point x="354" y="193" type="curve"/>
      <point x="335" y="109" type="line"/>
      <point x="300" y="83"/>
      <point x="265" y="72"/>
    </contour>
  </outline>
</glyph>
<glyph name="Dcroat" format="2">
  <advance width="753"/>
  <unicode hex="0110"/>
  <outline>
    <contour>
      <point x="51" y="0" type="line"/>
      <point x="335" y="0" type="line" smooth="yes"/>
      <point x="547" y="0"/>
      <point x="722" y="177"/>
      <point x="722" y="389" type="curve" smooth="yes"/>
      <point x="722" y="571"/>
      <point x="596" y="700"/>
      <point x="419" y="700" type="curve" smooth="yes"/>
      <point x="200" y="700" type="line"/>
      <point x="136" y="397" type="line"/>
      <point x="48" y="397" type="line"/>
      <point x="30" y="309" type="line"/>
      <point x="117" y="309" type="line"/>
    </contour>
    <contour>
      <point x="191" y="104" type="line"/>
      <point x="234" y="309" type="line"/>
      <point x="390" y="309" type="line"/>
      <point x="408" y="397" type="line"/>
      <point x="253" y="397" type="line"/>
      <point x="295" y="596" type="line"/>
      <point x="409" y="596" type="line" smooth="yes"/>
      <point x="521" y="596"/>
      <point x="600" y="508"/>
      <point x="600" y="382" type="curve" smooth="yes"/>
      <point x="600" y="228"/>
      <point x="487" y="104"/>
      <point x="348" y="104" type="curve" smooth="yes"/>
    </contour>
  </outline>
</glyph>
<glyph name="Eogonek" format="2">
  <advance width="630"/>
  <unicode hex="0118"/>
  <outline>
    <contour>
      <point x="426" y="-232" type="curve" smooth="yes"/>
      <point x="455" y="-232"/>
      <point x="484" y="-225"/>
      <point x="505" y="-213" type="curve"/>
      <point x="501" y="-160" type="line"/>
      <point x="489" y="-166"/>
      <point x="470" y="-170"/>
      <point x="454" y="-170" type="curve" smooth="yes"/>
      <point x="424" y="-170"/>
      <point x="404" y="-154"/>
      <point x="404" y="-127" type="curve" smooth="yes"/>
      <point x="404" y="-85"/>
      <point x="442" y="-43"/>
      <point x="523" y="0" type="curve"/>
      <point x="545" y="102" type="line"/>
      <point x="167" y="102" type="line"/>
      <point x="210" y="303" type="line"/>
      <point x="471" y="303" type="line"/>
      <point x="492" y="403" type="line"/>
      <point x="231" y="403" type="line"/>
      <point x="273" y="598" type="line"/>
      <point x="645" y="598" type="line"/>
      <point x="668" y="700" type="line"/>
      <point x="177" y="700" type="line"/>
      <point x="28" y="0" type="line"/>
      <point x="453" y="0" type="line"/>
      <point x="373" y="-48"/>
      <point x="334" y="-98"/>
      <point x="334" y="-154" type="curve" smooth="yes"/>
      <point x="334" y="-201"/>
      <point x="370" y="-232"/>
    </contour>
  </outline>
</glyph>
<glyph name="eogonek" format="2">
  <advance width="562"/>
  <unicode hex="0119"/>
  <outline>
    <contour>
      <point x="263" y="-232" type="curve" smooth="yes"/>
      <point x="292" y="-232"/>
      <point x="321" y="-225"/>
      <point x="342" y="-213" type="curve"/>
      <point x="338" y="-160" type="line"/>
      <point x="326" y="-166"/>
      <point x="307" y="-170"/>
      <point x="291" y="-170" type="curve" smooth="yes"/>
      <point x="261" y="-170"/>
      <point x="240" y="-154"/>
      <point x="240" y="-127" type="curve" smooth="yes"/>
      <point x="240" y="-85"/>
      <point x="279" y="-44"/>
      <point x="359" y="0" type="curve"/>
      <point x="394" y="9"/>
      <point x="429" y="25"/>
      <point x="465" y="50" type="curve"/>
      <point x="405" y="123" type="line"/>
      <point x="375" y="97"/>
      <point x="333" y="83"/>
      <point x="290" y="83" type="curve" smooth="yes"/>
      <point x="212" y="83"/>
      <point x="155" y="144"/>
      <point x="153" y="223" type="curve"/>
      <point x="514" y="223" type="line"/>
      <point x="517" y="243"/>
      <point x="518" y="263"/>
      <point x="518" y="286" type="curve" smooth="yes"/>
      <point x="518" y="417"/>
      <point x="432" y="509"/>
      <point x="309" y="509" type="curve" smooth="yes"/>
      <point x="164" y="509"/>
      <point x="45" y="380"/>
      <point x="45" y="224" type="curve" smooth="yes"/>
      <point x="45" y="88"/>
      <point x="140" y="-7"/>
      <point x="274" y="-10" type="curve"/>
      <point x="205" y="-55"/>
      <point x="171" y="-102"/>
      <point x="171" y="-154" type="curve" smooth="yes"/>
      <point x="171" y="-201"/>
      <point x="207" y="-232"/>
    </contour>
    <contour>
      <point x="302" y="416" type="curve" smooth="yes"/>
      <point x="368" y="416"/>
      <point x="415" y="364"/>
      <point x="418" y="293" type="curve"/>
      <point x="161" y="293" type="line"/>
      <point x="182" y="366"/>
      <point x="236" y="416"/>
    </contour>
  </outline>
</glyph>
<glyph name="gcommaaccent" format="2">
  <advance width="594"/>
  <unicode hex="0123"/>
  <outline>
    <contour>
      <point x="498" y="816" type="line"/>
      <point x="419" y="816" type="line"/>
      <point x="295" y="617" type="line"/>
      <point x="401" y="617" type="line"/>
    </contour>
    <component base="g"/>
  </outline>
</glyph>
<glyph name="Hbar" format="2">
  <advance width="770"/>
  <unicode hex="0126"/>
  <outline>
    <contour>
      <point x="41" y="0" type="line"/>
      <point x="158" y="0" type="line"/>
      <point x="222" y="300" type="line"/>
      <point x="564" y="300" type="line"/>
      <point x="500" y="0" type="line"/>
      <point x="617" y="0" type="line"/>
      <point x="725" y="508" type="line"/>
      <point x="809" y="508" type="line"/>
      <point x="830" y="596" type="line"/>
      <point x="744" y="596" type="line"/>
      <point x="766" y="700" type="line"/>
      <point x="649" y="700" type="line"/>
      <point x="627" y="596" type="line"/>
      <point x="285" y="596" type="line"/>
      <point x="307" y="700" type="line"/>
      <point x="190" y="700" type="line"/>
      <point x="168" y="596" type="line"/>
      <point x="84" y="596" type="line"/>
      <point x="63" y="508" type="line"/>
      <point x="149" y="508" type="line"/>
    </contour>
    <contour>
      <point x="243" y="400" type="line"/>
      <point x="266" y="508" type="line"/>
      <point x="608" y="508" type="line"/>
      <point x="585" y="400" type="line"/>
    </contour>
  </outline>
</glyph>
<glyph name="hbar" format="2">
  <advance width="578"/>
  <unicode hex="0127"/>
  <outline>
    <contour>
      <point x="22" y="0" type="line"/>
      <point x="133" y="0" type="line"/>
      <point x="208" y="358" type="line"/>
      <point x="240" y="397"/>
      <point x="280" y="418"/>
      <point x="324" y="418" type="curve" smooth="yes"/>
      <point x="393" y="418"/>
      <point x="428" y="366"/>
      <point x="411" y="290" type="curve" smooth="yes"/>
      <point x="348" y="0" type="line"/>
      <point x="459" y="0" type="line"/>
      <point x="527" y="317" type="line" smooth="yes"/>
      <point x="551" y="428"/>
      <point x="494" y="507"/>
      <point x="386" y="507" type="curve" smooth="yes"/>
      <point x="324" y="507"/>
      <point x="268" y="478"/>
      <point x="222" y="421" type="curve"/>
      <point x="252" y="567" type="line"/>
      <point x="379" y="567" type="line"/>
      <point x="394" y="634" type="line"/>
      <point x="267" y="634" type="line"/>
      <point x="287" y="733" type="line"/>
      <point x="171" y="714" type="line"/>
      <point x="155" y="634" type="line"/>
      <point x="101" y="634" type="line"/>
      <point x="85" y="567" type="line"/>
      <point x="140" y="567" type="line"/>
    </contour>
  </outline>
</glyph>
<glyph name="Iogonek" format="2">
  <advance width="272"/>
  <unicode hex="012E"/>
  <outline>
    <contour>
      <point x="43" y="-232" type="curve" smooth="yes"/>
      <point x="72" y="-232"/>
      <point x="101" y="-225"/>
      <point x="122" y="-213" type="curve"/>
      <point x="118" y="-160" type="line"/>
      <point x="106" y="-166"/>
      <point x="87" y="-170"/>
      <point x="71" y="-170" type="curve" smooth="yes"/>
      <point x="41" y="-170"/>
      <point x="20" y="-154"/>
      <point x="20" y="-127" type="curve" smooth="yes"/>
      <point x="20" y="-85"/>
      <point x="59" y="-43"/>
      <point x="140" y="0" type="curve"/>
      <point x="289" y="700" type="line"/>
      <point x="171" y="700" type="line"/>
      <point x="22" y="0" type="line"/>
      <point x="70" y="0" type="line"/>
      <point x="-10" y="-48"/>
      <point x="-49" y="-98"/>
      <point x="-49" y="-154" type="curve" smooth="yes"/>
      <point x="-49" y="-201"/>
      <point x="-13" y="-232"/>
    </contour>
  </outline>
</glyph>
<glyph name="iogonek" format="2">
  <advance width="249"/>
  <unicode hex="012F"/>
  <outline>
    <contour>
      <point x="202" y="603" type="curve" smooth="yes"/>
      <point x="244" y="603"/>
      <point x="279" y="638"/>
      <point x="279" y="680" type="curve" smooth="yes"/>
      <point x="279" y="715"/>
      <point x="251" y="742"/>
      <point x="217" y="742" type="curve" smooth="yes"/>
      <point x="176" y="742"/>
      <point x="140" y="705"/>
      <point x="140" y="664" type="curve" smooth="yes"/>
      <point x="140" y="629"/>
      <point x="166" y="603"/>
    </contour>
    <contour>
      <point x="29" y="-232" type="curve" smooth="yes"/>
      <point x="58" y="-232"/>
      <point x="87" y="-225"/>
      <point x="108" y="-213" type="curve"/>
      <point x="104" y="-160" type="line"/>
      <point x="92" y="-166"/>
      <point x="73" y="-170"/>
      <point x="57" y="-170" type="curve" smooth="yes"/>
      <point x="27" y="-170"/>
      <point x="6" y="-154"/>
      <point x="6" y="-127" type="curve" smooth="yes"/>
      <point x="6" y="-85"/>
      <point x="45" y="-43"/>
      <point x="126" y="0" type="curve"/>
      <point x="234" y="501" type="line"/>
      <point x="123" y="501" type="line"/>
      <point x="14" y="0" type="line"/>
      <point x="56" y="0" type="line"/>
      <point x="-24" y="-48"/>
      <point x="-63" y="-98"/>
      <point x="-63" y="-154" type="curve" smooth="yes"/>
      <point x="-63" y="-201"/>
      <point x="-27" y="-232"/>
    </contour>
  </outline>
</glyph>
<glyph name="dotlessi" format="2">
  <advance width="249"/>
  <unicode hex="0131"/>
  <anchor x="178" y="501" name="top"/>
  <anchor x="125" y="0" name="bottom"/>
  <outline>
    <contour>
      <point x="14" y="0" type="line"/>
      <point x="126" y="0" type="line"/>
      <point x="234" y="501" type="line"/>
      <point x="123" y="501" type="line"/>
    </contour>
  </outline>
</glyph>
<glyph name="kgreenlandic" format="2">
  <advance width="525"/>
  <unicode hex="0138"/>
  <outline>
    <contour>
      <point x="14" y="0" type="line"/>
      <point x="126" y="0" type="line"/>
      <point x="174" y="224" type="line"/>
      <point x="331" y="0" type="line"/>
      <point x="464" y="0" type="line"/>
      <point x="279" y="251" type="line"/>
      <point x="570" y="501" type="line"/>
      <point x="431" y="501" type="line"/>
      <point x="187" y="283" type="line"/>
      <point x="234" y="501" type="line"/>
      <point x="124" y="501" type="line"/>
    </contour>
  </outline>
</glyph>
<glyph name="lacute" format="2">
  <advance width="249"/>
  <unicode hex="013A"/>
  <outline>
    <contour>
      <point x="14" y="0" type="line"/>
      <point x="126" y="0" type="line"/>
      <point x="277" y="728" type="line"/>
      <point x="167" y="728" type="line"/>
    </contour>
    <component base="acute" xOffset="-123" yOffset="197"/>
  </outline>
</glyph>
<glyph name="Lslash" format="2">
  <advance width="645"/>
  <unicode hex="0141"/>
  <outline>
    <contour>
      <point x="51" y="0" type="line"/>
      <point x="534" y="0" type="line"/>
      <point x="556" y="104" type="line"/>
      <point x="190" y="104" type="line"/>
      <point x="233" y="305" type="line"/>
      <point x="425" y="422" type="line"/>
      <point x="447" y="528" type="line"/>
      <point x="255" y="411" type="line"/>
      <point x="317" y="700" type="line"/>
      <point x="200" y="700" type="line"/>
      <point x="122" y="334" type="line"/>
      <point x="14" y="269" type="line"/>
      <point x="-8" y="163" type="line"/>
      <point x="100" y="228" type="line"/>
    </contour>
  </outline>
</glyph>
<glyph name="lslash" format="2">
  <advance width="293"/>
  <unicode hex="0142"/>
  <outline>
    <contour>
      <point x="41" y="0" type="line"/>
      <point x="152" y="0" type="line"/>
      <point x="225" y="346" type="line"/>
      <point x="330" y="417" type="line"/>
      <point x="353" y="527" type="line"/>
      <point x="248" y="458" type="line"/>
      <point x="306" y="733" type="line"/>
      <point x="191" y="714" type="line"/>
      <point x="120" y="375" type="line"/>
      <point x="19" y="308" type="line"/>
      <point x="-4" y="197" type="line"/>
      <point x="96" y="263" type="line"/>
    </contour>
  </outline>
</glyph>
<glyph name="Eng" format="2">
  <advance width="747"/>
  <unicode hex="014A"/>
  <outline>
    <contour>
      <point x="432" y="-212" type="curve" smooth="yes"/>
      <point x="516" y="-212"/>
      <point x="574" y="-163"/>
      <point x="593" y="-76" type="curve" smooth="yes"/>
      <point x="758" y="700" type="line"/>
      <point x="647" y="700" type="line"/>
      <point x="541" y="193" type="line"/>
      <point x="294" y="700" type="line"/>
      <point x="177" y="700" type="line"/>
      <point x="28" y="0" type="line"/>
      <point x="139" y="0" type="line"/>
      <point x="248" y="528" type="line"/>
      <point x="505" y="6" type="line"/>
      <point x="490" y="-63" type="line" smooth="yes"/>
      <point x="482" y="-101"/>
      <point x="463" y="-119"/>
      <point x="428" y="-119" type="curve" smooth="yes"/>
      <point x="408" y="-119"/>
      <point x="394" y="-116"/>
      <point x="383" y="-113" type="curve"/>
      <point x="364" y="-201" type="line"/>
      <point x="378" y="-207"/>
      <point x="404" y="-212"/>
    </contour>
  </outline>
</glyph>
<glyph name="eng" format="2">
  <advance width="571"/>
  <unicode hex="014B"/>
  <outline>
    <contour>
      <point x="274" y="-215" type="curve" smooth="yes"/>
      <point x="358" y="-215"/>
      <point x="417" y="-166"/>
      <point x="436" y="-78" type="curve" smooth="yes"/>
      <point x="520" y="318" type="line" smooth="yes"/>
      <point x="544" y="428"/>
      <point x="485" y="507"/>
      <point x="379" y="507" type="curve" smooth="yes"/>
      <point x="318" y="507"/>
      <point x="264" y="479"/>
      <point x="218" y="426" type="curve"/>
      <point x="234" y="501" type="line"/>
      <point x="123" y="501" type="line"/>
      <point x="14" y="0" type="line"/>
      <point x="126" y="0" type="line"/>
      <point x="205" y="363" type="line"/>
      <point x="237" y="399"/>
      <point x="275" y="418"/>
      <point x="316" y="418" type="curve" smooth="yes"/>
      <point x="384" y="418"/>
      <point x="419" y="366"/>
      <point x="403" y="291" type="curve" smooth="yes"/>
      <point x="327" y="-66" type="line" smooth="yes"/>
      <point x="319" y="-102"/>
      <point x="301" y="-118"/>
      <point x="269" y="-118" type="curve" smooth="yes"/>
      <point x="249" y="-118"/>
      <point x="236" y="-116"/>
      <point x="224" y="-112" type="curve"/>
      <point x="205" y="-204" type="line"/>
      <point x="220" y="-210"/>
      <point x="250" y="-215"/>
    </contour>
  </outline>
</glyph>
<glyph name="OE" format="2">
  <advance width="1062"/>
  <unicode hex="0152"/>
  <outline>
    <contour>
      <point x="388" y="0" type="curve" smooth="yes"/>
      <point x="953" y="0" type="line"/>
      <point x="975" y="105" type="line"/>
      <point x="614" y="105" type="line"/>
      <point x="672" y="154"/>
      <point x="715" y="224"/>
      <point x="729" y="302" type="curve"/>
      <point x="899" y="302" type="line"/>
      <point x="921" y="404" type="line"/>
      <point x="737" y="404" type="line"/>
      <point x="734" y="480"/>
      <point x="704" y="548"/>
      <point x="655" y="595" type="curve"/>
      <point x="1080" y="595" type="line"/>
      <point x="1102" y="700" type="line"/>
      <point x="446" y="700" type="line" smooth="yes"/>
      <point x="237" y="700"/>
      <point x="69" y="531"/>
      <point x="69" y="318" type="curve" smooth="yes"/>
      <point x="69" y="132"/>
      <point x="201" y="0"/>
    </contour>
    <contour>
      <point x="386" y="107" type="curve" smooth="yes"/>
      <point x="270" y="107"/>
      <point x="186" y="198"/>
      <point x="186" y="325" type="curve" smooth="yes"/>
      <point x="186" y="471"/>
      <point x="296" y="593"/>
      <point x="427" y="593" type="curve" smooth="yes"/>
      <point x="542" y="593"/>
      <point x="625" y="501"/>
      <point x="625" y="376" type="curve" smooth="yes"/>
      <point x="625" y="229"/>
      <point x="517" y="107"/>
    </contour>
  </outline>
</glyph>
<glyph name="oe" format="2">
  <advance width="950"/>
  <unicode hex="0153"/>
  <outline>
    <contour>
      <point x="271" y="-10" type="curve" smooth="yes"/>
      <point x="352" y="-10"/>
      <point x="425" y="30"/>
      <point x="473" y="93" type="curve"/>
      <point x="512" y="30"/>
      <point x="583" y="-9"/>
      <point x="669" y="-9" type="curve" smooth="yes"/>
      <point x="736" y="-9"/>
      <point x="792" y="8"/>
      <point x="853" y="51" type="curve"/>
      <point x="793" y="123" type="line"/>
      <point x="763" y="97"/>
      <point x="722" y="83"/>
      <point x="678" y="83" type="curve" smooth="yes"/>
      <point x="600" y="83"/>
      <point x="543" y="142"/>
      <point x="541" y="223" type="curve"/>
      <point x="902" y="223" type="line"/>
      <point x="905" y="243"/>
      <point x="907" y="263"/>
      <point x="907" y="286" type="curve" smooth="yes"/>
      <point x="907" y="417"/>
      <point x="821" y="509"/>
      <point x="698" y="509" type="curve" smooth="yes"/>
      <point x="619" y="509"/>
      <point x="548" y="469"/>
      <point x="500" y="408" type="curve"/>
      <point x="463" y="471"/>
      <point x="398" y="510"/>
      <point x="317" y="510" type="curve" smooth="yes"/>
      <point x="167" y="510"/>
      <point x="46" y="382"/>
      <point x="46" y="224" type="curve" smooth="yes"/>
      <point x="46" y="88"/>
      <point x="141" y="-10"/>
    </contour>
    <contour>
      <point x="277" y="88" type="curve" smooth="yes"/>
      <point x="204" y="88"/>
      <point x="155" y="144"/>
      <point x="155" y="228" type="curve" smooth="yes"/>
      <point x="155" y="331"/>
      <point x="224" y="414"/>
      <point x="310" y="414" type="curve" smooth="yes"/>
      <point x="384" y="414"/>
      <point x="432" y="357"/>
      <point x="432" y="274" type="curve" smooth="yes"/>
      <point x="432" y="169"/>
      <point x="364" y="88"/>
    </contour>
    <contour>
      <point x="691" y="417" type="curve" smooth="yes"/>
      <point x="756" y="417"/>
      <point x="804" y="364"/>
      <point x="806" y="293" type="curve"/>
      <point x="549" y="293" type="line"/>
      <point x="570" y="366"/>
      <point x="624" y="417"/>
    </contour>
  </outline>
</glyph>
<glyph name="Scedilla" format="2">
  <advance width="626"/>
  <unicode hex="015E"/>
  <outline>
    <contour>
      <point x="253" y="-245" type="curve" smooth="yes"/>
      <point x="324" y="-245"/>
      <point x="379" y="-198"/>
      <point x="379" y="-137" type="curve" smooth="yes"/>
      <point x="379" y="-96"/>
      <point x="349" y="-69"/>
      <point x="296" y="-63" type="curve"/>
      <point x="320" y="-10" type="line"/>
      <point x="476" y="-8"/>
      <point x="584" y="84"/>
      <point x="584" y="218" type="curve" smooth="yes"/>
      <point x="584" y="306"/>
      <point x="527" y="363"/>
      <point x="409" y="395" type="curve" smooth="yes"/>
      <point x="291" y="424" type="line" smooth="yes"/>
      <point x="226" y="442"/>
      <point x="197" y="469"/>
      <point x="197" y="513" type="curve" smooth="yes"/>
      <point x="197" y="572"/>
      <point x="249" y="611"/>
      <point x="329" y="611" type="curve" smooth="yes"/>
      <point x="412" y="611"/>
      <point x="489" y="578"/>
      <point x="553" y="515" type="curve"/>
      <point x="626" y="598" type="line"/>
      <point x="553" y="670"/>
      <point x="449" y="709"/>
      <point x="336" y="709" type="curve" smooth="yes"/>
      <point x="183" y="709"/>
      <point x="83" y="626"/>
      <point x="83" y="498" type="curve" smooth="yes"/>
      <point x="83" y="414"/>
      <point x="135" y="355"/>
      <point x="235" y="328" type="curve" smooth="yes"/>
      <point x="357" y="296" type="line" smooth="yes"/>
      <point x="438" y="273"/>
      <point x="467" y="248"/>
      <point x="467" y="201" type="curve" smooth="yes"/>
      <point x="467" y="135"/>
      <point x="405" y="87"/>
      <point x="319" y="87" type="curve" smooth="yes"/>
      <point x="240" y="87"/>
      <point x="169" y="125"/>
      <point x="85" y="208" type="curve"/>
      <point x="11" y="125" type="line"/>
      <point x="84" y="47"/>
      <point x="168" y="3"/>
      <point x="264" y="-8" type="curve"/>
      <point x="222" y="-104" type="line"/>
      <point x="256" y="-104" type="line" smooth="yes"/>
      <point x="292" y="-104"/>
      <point x="314" y="-119"/>
      <point x="314" y="-144" type="curve" smooth="yes"/>
      <point x="314" y="-172"/>
      <point x="290" y="-191"/>
      <point x="251" y="-191" type="curve" smooth="yes"/>
      <point x="222" y="-191"/>
      <point x="196" y="-180"/>
      <point x="176" y="-159" type="curve"/>
      <point x="134" y="-201" type="line"/>
      <point x="160" y="-230"/>
      <point x="201" y="-245"/>
    </contour>
  </outline>
</glyph>
<glyph name="scedilla" format="2">
  <advance width="471"/>
  <unicode hex="015F"/>
  <outline>
    <contour>
      <point x="163" y="-245" type="curve" smooth="yes"/>
      <point x="234" y="-245"/>
      <point x="289" y="-198"/>
      <point x="289" y="-137" type="curve" smooth="yes"/>
      <point x="289" y="-96"/>
      <point x="259" y="-69"/>
      <point x="207" y="-63" type="curve"/>
      <point x="230" y="-10" type="line"/>
      <point x="338" y="-6"/>
      <point x="418" y="66"/>
      <point x="418" y="161" type="curve" smooth="yes"/>
      <point x="418" y="223"/>
      <point x="378" y="264"/>
      <point x="295" y="287" type="curve" smooth="yes"/>
      <point x="210" y="310" type="line" smooth="yes"/>
      <point x="167" y="322"/>
      <point x="152" y="337"/>
      <point x="152" y="365" type="curve" smooth="yes"/>
      <point x="152" y="401"/>
      <point x="183" y="424"/>
      <point x="235" y="424" type="curve" smooth="yes"/>
      <point x="281" y="424"/>
      <point x="334" y="403"/>
      <point x="383" y="364" type="curve"/>
      <point x="445" y="435" type="line"/>
      <point x="385" y="484"/>
      <point x="316" y="510"/>
      <point x="241" y="510" type="curve" smooth="yes"/>
      <point x="126" y="510"/>
      <point x="53" y="448"/>
      <point x="53" y="351" type="curve" smooth="yes"/>
      <point x="53" y="286"/>
      <point x="92" y="242"/>
      <point x="170" y="220" type="curve" smooth="yes"/>
      <point x="255" y="198" type="line" smooth="yes"/>
      <point x="297" y="187"/>
      <point x="314" y="171"/>
      <point x="314" y="144" type="curve" smooth="yes"/>
      <point x="314" y="106"/>
      <point x="274" y="76"/>
      <point x="221" y="76" type="curve" smooth="yes"/>
      <point x="166" y="76"/>
      <point x="123" y="94"/>
      <point x="60" y="145" type="curve"/>
      <point x="-2" y="73" type="line"/>
      <point x="43" y="29"/>
      <point x="105" y="0"/>
      <point x="175" y="-8" type="curve"/>
      <point x="133" y="-104" type="line"/>
      <point x="167" y="-104" type="line" smooth="yes"/>
      <point x="203" y="-104"/>
      <point x="225" y="-119"/>
      <point x="225" y="-144" type="curve" smooth="yes"/>
      <point x="225" y="-172"/>
      <point x="200" y="-191"/>
      <point x="161" y="-191" type="curve" smooth="yes"/>
      <point x="132" y="-191"/>
      <point x="106" y="-180"/>
      <point x="87" y="-159" type="curve"/>
      <point x="45" y="-201" type="line"/>
      <point x="70" y="-230"/>
      <point x="112" y="-245"/>
    </contour>
  </outline>
</glyph>
<glyph name="Tcedilla" format="2">
  <advance width="626"/>
  <unicode hex="0162"/>
  <outline>
    <contour>
      <point x="216" y="-245" type="curve" smooth="yes"/>
      <point x="287" y="-245"/>
      <point x="342" y="-198"/>
      <point x="342" y="-137" type="curve" smooth="yes"/>
      <point x="342" y="-96"/>
      <point x="311" y="-69"/>
      <point x="259" y="-63" type="curve"/>
      <point x="286" y="0" type="line"/>
      <point x="317" y="0" type="line"/>
      <point x="445" y="596" type="line"/>
      <point x="672" y="596" type="line"/>
      <point x="695" y="700" type="line"/>
      <point x="119" y="700" type="line"/>
      <point x="96" y="596" type="line"/>
      <point x="327" y="596" type="line"/>
      <point x="200" y="0" type="line"/>
      <point x="230" y="0" type="line"/>
      <point x="185" y="-104" type="line"/>
      <point x="219" y="-104" type="line" smooth="yes"/>
      <point x="255" y="-104"/>
      <point x="277" y="-119"/>
      <point x="277" y="-144" type="curve" smooth="yes"/>
      <point x="277" y="-172"/>
      <point x="252" y="-191"/>
      <point x="214" y="-191" type="curve" smooth="yes"/>
      <point x="184" y="-191"/>
      <point x="158" y="-180"/>
      <point x="139" y="-159" type="curve"/>
      <point x="97" y="-201" type="line"/>
      <point x="123" y="-230"/>
      <point x="164" y="-245"/>
    </contour>
  </outline>
</glyph>
<glyph name="tcedilla" format="2">
  <advance width="406"/>
  <unicode hex="0163"/>
  <outline>
    <contour>
      <point x="178" y="-245" type="curve" smooth="yes"/>
      <point x="249" y="-245"/>
      <point x="304" y="-198"/>
      <point x="304" y="-137" type="curve" smooth="yes"/>
      <point x="304" y="-96"/>
      <point x="274" y="-69"/>
      <point x="221" y="-63" type="curve"/>
      <point x="245" y="-8" type="line"/>
      <point x="271" y="-7"/>
      <point x="299" y="-4"/>
      <point x="321" y="2" type="curve"/>
      <point x="341" y="97" type="line"/>
      <point x="310" y="89"/>
      <point x="300" y="88"/>
      <point x="284" y="88" type="curve" smooth="yes"/>
      <point x="227" y="88"/>
      <point x="209" y="108"/>
      <point x="220" y="160" type="curve" smooth="yes"/>
      <point x="274" y="411" type="line"/>
      <point x="411" y="411" type="line"/>
      <point x="431" y="501" type="line"/>
      <point x="294" y="501" type="line"/>
      <point x="329" y="663" type="line"/>
      <point x="212" y="639" type="line"/>
      <point x="182" y="501" type="line"/>
      <point x="86" y="501" type="line"/>
      <point x="66" y="411" type="line"/>
      <point x="164" y="411" type="line"/>
      <point x="106" y="140" type="line" smooth="yes"/>
      <point x="88" y="60"/>
      <point x="119" y="10"/>
      <point x="191" y="-4" type="curve"/>
      <point x="147" y="-104" type="line"/>
      <point x="181" y="-104" type="line" smooth="yes"/>
      <point x="217" y="-104"/>
      <point x="239" y="-119"/>
      <point x="239" y="-144" type="curve" smooth="yes"/>
      <point x="239" y="-172"/>
      <point x="215" y="-191"/>
      <point x="176" y="-191" type="curve" smooth="yes"/>
      <point x="147" y="-191"/>
      <point x="121" y="-180"/>
      <point x="101" y="-159" type="curve"/>
      <point x="59" y="-201" type="line"/>
      <point x="85" y="-230"/>
      <point x="126" y="-245"/>
    </contour>
  </outline>
</glyph>
<glyph name="tcaron" format="2">
  <advance width="406"/>
  <unicode hex="0165"/>
  <outline>
    <contour>
      <point x="386" y="594" type="line"/>
      <point x="458" y="594" type="line"/>
      <point x="538" y="794" type="line"/>
      <point x="433" y="774" type="line"/>
    </contour>
    <component base="t"/>
  </outline>
</glyph>
<glyph name="Tbar" format="2">
  <advance width="626"/>
  <unicode hex="0166"/>
  <outline>
    <contour>
      <point x="200" y="0" type="line"/>
      <point x="317" y="0" type="line"/>
      <point x="378" y="286" type="line"/>
      <point x="516" y="286" type="line"/>
      <point x="536" y="374" type="line"/>
      <point x="397" y="374" type="line"/>
      <point x="445" y="596" type="line"/>
      <point x="672" y="596" type="line"/>
      <point x="695" y="700" type="line"/>
      <point x="119" y="700" type="line"/>
      <point x="96" y="596" type="line"/>
      <point x="327" y="596" type="line"/>
      <point x="280" y="374" type="line"/>
      <point x="141" y="374" type="line"/>
      <point x="121" y="286" type="line"/>
      <point x="261" y="286" type="line"/>
    </contour>
  </outline>
</glyph>
<glyph name="tbar" format="2">
  <advance width="406"/>
  <unicode hex="0167"/>
  <outline>
    <contour>
      <point x="236" y="-8" type="curve" smooth="yes"/>
      <point x="266" y="-8"/>
      <point x="297" y="-4"/>
      <point x="321" y="2" type="curve"/>
      <point x="341" y="97" type="line"/>
      <point x="310" y="89"/>
      <point x="300" y="88"/>
      <point x="284" y="88" type="curve" smooth="yes"/>
      <point x="227" y="88"/>
      <point x="209" y="108"/>
      <point x="220" y="160" type="curve" smooth="yes"/>
      <point x="238" y="243" type="line"/>
      <point x="374" y="243" type="line"/>
      <point x="389" y="312" type="line"/>
      <point x="253" y="312" type="line"/>
      <point x="274" y="411" type="line"/>
      <point x="411" y="411" type="line"/>
      <point x="431" y="501" type="line"/>
      <point x="294" y="501" type="line"/>
      <point x="329" y="663" type="line"/>
      <point x="212" y="639" type="line"/>
      <point x="182" y="501" type="line"/>
      <point x="86" y="501" type="line"/>
      <point x="66" y="411" type="line"/>
      <point x="164" y="411" type="line"/>
      <point x="142" y="312" type="line"/>
      <point x="46" y="312" type="line"/>
      <point x="30" y="243" type="line"/>
      <point x="128" y="243" type="line"/>
      <point x="106" y="140" type="line" smooth="yes"/>
      <point x="85" y="45"/>
      <point x="132" y="-8"/>
    </contour>
  </outline>
</glyph>
<glyph name="Uogonek" format="2">
  <advance width="714"/>
  <unicode hex="0172"/>
  <outline>
    <contour>
      <point x="309" y="-232" type="curve" smooth="yes"/>
      <point x="338" y="-232"/>
      <point x="367" y="-225"/>
      <point x="389" y="-213" type="curve"/>
      <point x="384" y="-160" type="line"/>
      <point x="372" y="-166"/>
      <point x="353" y="-170"/>
      <point x="338" y="-170" type="curve" smooth="yes"/>
      <point x="307" y="-170"/>
      <point x="287" y="-154"/>
      <point x="287" y="-127" type="curve" smooth="yes"/>
      <point x="287" y="-86"/>
      <point x="324" y="-46"/>
      <point x="400" y="-3" type="curve"/>
      <point x="527" y="23"/>
      <point x="616" y="124"/>
      <point x="650" y="281" type="curve" smooth="yes"/>
      <point x="739" y="700" type="line"/>
      <point x="622" y="700" type="line"/>
      <point x="535" y="291" type="line" smooth="yes"/>
      <point x="510" y="171"/>
      <point x="434" y="97"/>
      <point x="338" y="97" type="curve" smooth="yes"/>
      <point x="228" y="97"/>
      <point x="171" y="183"/>
      <point x="197" y="308" type="curve" smooth="yes"/>
      <point x="281" y="700" type="line"/>
      <point x="163" y="700" type="line"/>
      <point x="82" y="318" type="line" smooth="yes"/>
      <point x="41" y="128"/>
      <point x="138" y="-5"/>
      <point x="320" y="-10" type="curve"/>
      <point x="252" y="-55"/>
      <point x="217" y="-102"/>
      <point x="217" y="-154" type="curve" smooth="yes"/>
      <point x="217" y="-201"/>
      <point x="253" y="-232"/>
    </contour>
  </outline>
</glyph>
<glyph name="uogonek" format="2">
  <advance width="570"/>
  <unicode hex="0173"/>
  <outline>
    <contour>
      <point x="350" y="-232" type="curve" smooth="yes"/>
      <point x="379" y="-232"/>
      <point x="408" y="-225"/>
      <point x="430" y="-213" type="curve"/>
      <point x="425" y="-160" type="line"/>
      <point x="413" y="-166"/>
      <point x="394" y="-170"/>
      <point x="379" y="-170" type="curve" smooth="yes"/>
      <point x="348" y="-170"/>
      <point x="328" y="-154"/>
      <point x="328" y="-127" type="curve" smooth="yes"/>
      <point x="328" y="-85"/>
      <point x="367" y="-43"/>
      <point x="447" y="0" type="curve"/>
      <point x="556" y="501" type="line"/>
      <point x="444" y="501" type="line"/>
      <point x="365" y="138" type="line"/>
      <point x="333" y="101"/>
      <point x="295" y="83"/>
      <point x="254" y="83" type="curve" smooth="yes"/>
      <point x="186" y="83"/>
      <point x="150" y="134"/>
      <point x="167" y="210" type="curve" smooth="yes"/>
      <point x="230" y="501" type="line"/>
      <point x="119" y="501" type="line"/>
      <point x="51" y="184" type="line" smooth="yes"/>
      <point x="27" y="74"/>
      <point x="86" y="-7"/>
      <point x="191" y="-7" type="curve" smooth="yes"/>
      <point x="251" y="-7"/>
      <point x="306" y="21"/>
      <point x="351" y="75" type="curve"/>
      <point x="336" y="0" type="line"/>
      <point x="377" y="0" type="line"/>
      <point x="297" y="-48"/>
      <point x="258" y="-98"/>
      <point x="258" y="-154" type="curve" smooth="yes"/>
      <point x="258" y="-201"/>
      <point x="294" y="-232"/>
    </contour>
  </outline>
</glyph>
<glyph name="dotlessj" format="2">
  <advance width="249"/>
  <unicode hex="0237"/>
  <anchor x="179" y="501" name="top"/>
  <outline>
    <contour>
      <point x="-53" y="-215" type="curve" smooth="yes"/>
      <point x="33" y="-215"/>
      <point x="91" y="-165"/>
      <point x="109" y="-78" type="curve" smooth="yes"/>
      <point x="235" y="501" type="line"/>
      <point x="123" y="501" type="line"/>
      <point x="1" y="-69" type="line" smooth="yes"/>
      <point x="-7" y="-105"/>
      <point x="-25" y="-120"/>
      <point x="-58" y="-120" type="curve" smooth="yes"/>
      <point x="-78" y="-120"/>
      <point x="-91" y="-118"/>
      <point x="-103" y="-114" type="curve"/>
      <point x="-122" y="-204" type="line"/>
      <point x="-106" y="-210"/>
      <point x="-76" y="-215"/>
    </contour>
  </outline>
</glyph>
<glyph name="circumflex" format="2">
  <advance width="600"/>
  <unicode hex="02C6"/>
  <outline>
    <contour>
      <point x="198" y="588" type="line"/>
      <point x="289" y="588" type="line"/>
      <point x="393" y="672" type="line"/>
      <point x="462" y="588" type="line"/>
      <point x="546" y="588" type="line"/>
      <point x="455" y="726" type="line"/>
      <point x="344" y="726" type="line"/>
    </contour>
  </outline>
</glyph>
<glyph name="caron" format="2">
  <advance width="600"/>
  <unicode hex="02C7"/>
  <outline>
    <contour>
      <point x="315" y="593" type="line"/>
      <point x="426" y="593" type="line"/>
      <point x="572" y="730" type="line"/>
      <point x="481" y="730" type="line"/>
      <point x="378" y="647" type="line"/>
      <point x="309" y="730" type="line"/>
      <point x="225" y="730" type="line"/>
    </contour>
  </outline>
</glyph>
<glyph name="breve" format="2">
  <advance width="600"/>
  <unicode hex="02D8"/>
  <outline>
    <contour>
      <point x="381" y="585" type="curve" smooth="yes"/>
      <point x="464" y="585"/>
      <point x="531" y="632"/>
      <point x="567" y="714" type="curve"/>
      <point x="498" y="735" type="line"/>
      <point x="473" y="680"/>
      <point x="433" y="650"/>
      <point x="384" y="650" type="curve" smooth="yes"/>
      <point x="331" y="650"/>
      <point x="301" y="681"/>
      <point x="297" y="740" type="curve"/>
      <point x="231" y="726" type="line"/>
      <point x="234" y="639"/>
      <point x="292" y="585"/>
    </contour>
  </outline>
</glyph>
<glyph name="dotaccent" format="2">
  <unicode hex="02D9"/>
  <guideline x="340" y="703" angle="0.0" identifier="U1JLGBQLuf"/>
  <guideline x="342" y="646" angle="0.0" identifier="24p1dHp2rB"/>
  <outline>
    <contour>
      <point x="378" y="606" type="curve" smooth="yes"/>
      <point x="418" y="606"/>
      <point x="453" y="641"/>
      <point x="453" y="681" type="curve" smooth="yes"/>
      <point x="453" y="715"/>
      <point x="426" y="743"/>
      <point x="393" y="743" type="curve" smooth="yes"/>
      <point x="352" y="743"/>
      <point x="317" y="708"/>
      <point x="317" y="667" type="curve" smooth="yes"/>
      <point x="317" y="633"/>
      <point x="343" y="606"/>
    </contour>
  </outline>
</glyph>
<glyph name="ring" format="2">
  <advance width="600"/>
  <unicode hex="02DA"/>
  <outline>
    <contour>
      <point x="382" y="579" type="curve" smooth="yes"/>
      <point x="449" y="579"/>
      <point x="509" y="640"/>
      <point x="509" y="709" type="curve" smooth="yes"/>
      <point x="509" y="768"/>
      <point x="464" y="812"/>
      <point x="401" y="812" type="curve" smooth="yes"/>
      <point x="334" y="812"/>
      <point x="275" y="751"/>
      <point x="275" y="682" type="curve" smooth="yes"/>
      <point x="275" y="623"/>
      <point x="320" y="579"/>
    </contour>
    <contour>
      <point x="384" y="630" type="curve" smooth="yes"/>
      <point x="352" y="630"/>
      <point x="328" y="654"/>
      <point x="328" y="687" type="curve" smooth="yes"/>
      <point x="328" y="727"/>
      <point x="361" y="761"/>
      <point x="399" y="761" type="curve" smooth="yes"/>
      <point x="432" y="761"/>
      <point x="455" y="737"/>
      <point x="455" y="703" type="curve" smooth="yes"/>
      <point x="455" y="663"/>
      <point x="423" y="630"/>
    </contour>
  </outline>
</glyph>
<glyph name="ogonek" format="2">
  <advance width="600"/>
  <unicode hex="02DB"/>
  <outline>
    <contour>
      <point x="200" y="-232" type="curve" smooth="yes"/>
      <point x="229" y="-232"/>
      <point x="258" y="-225"/>
      <point x="279" y="-213" type="curve"/>
      <point x="275" y="-160" type="line"/>
      <point x="263" y="-166"/>
      <point x="244" y="-170"/>
      <point x="228" y="-170" type="curve" smooth="yes"/>
      <point x="198" y="-170"/>
      <point x="177" y="-154"/>
      <point x="177" y="-127" type="curve" smooth="yes"/>
      <point x="177" y="-85"/>
      <point x="216" y="-43"/>
      <point x="297" y="0" type="curve"/>
      <point x="263" y="20" type="line"/>
      <point x="159" y="-34"/>
      <point x="108" y="-90"/>
      <point x="108" y="-154" type="curve" smooth="yes"/>
      <point x="108" y="-201"/>
      <point x="144" y="-232"/>
    </contour>
  </outline>
</glyph>
<glyph name="tilde" format="2">
  <advance width="600"/>
  <unicode hex="02DC"/>
  <outline>
    <contour>
      <point x="258" y="589" type="line"/>
      <point x="279" y="636"/>
      <point x="293" y="652"/>
      <point x="314" y="652" type="curve" smooth="yes"/>
      <point x="355" y="652"/>
      <point x="397" y="586"/>
      <point x="461" y="586" type="curve" smooth="yes"/>
      <point x="506" y="586"/>
      <point x="545" y="624"/>
      <point x="579" y="699" type="curve"/>
      <point x="514" y="721" type="line"/>
      <point x="491" y="670"/>
      <point x="481" y="658"/>
      <point x="463" y="658" type="curve" smooth="yes"/>
      <point x="425" y="658"/>
      <point x="378" y="725"/>
      <point x="315" y="725" type="curve" smooth="yes"/>
      <point x="270" y="725"/>
      <point x="229" y="687"/>
      <point x="194" y="611" type="curve"/>
    </contour>
  </outline>
</glyph>
<glyph name="hungarumlaut" format="2">
  <advance width="600"/>
  <unicode hex="02DD"/>
  <outline>
    <contour>
      <point x="364" y="724" type="line"/>
      <point x="208" y="592" type="line"/>
      <point x="299" y="592" type="line"/>
      <point x="473" y="724" type="line"/>
    </contour>
    <contour>
      <point x="557" y="724" type="line"/>
      <point x="401" y="592" type="line"/>
      <point x="488" y="592" type="line"/>
      <point x="668" y="724" type="line"/>
    </contour>
  </outline>
</glyph>
<glyph name="endash" format="2">
  <advance width="546"/>
  <unicode hex="2013"/>
  <outline>
    <contour>
      <point x="51" y="236" type="line"/>
      <point x="486" y="236" type="line"/>
      <point x="506" y="332" type="line"/>
      <point x="72" y="332" type="line"/>
    </contour>
  </outline>
</glyph>
<glyph name="uni2015" format="2">
  <advance width="918"/>
  <unicode hex="2015"/>
  <outline>
    <contour>
      <point x="51" y="236" type="line"/>
      <point x="858" y="236" type="line"/>
      <point x="878" y="332" type="line"/>
      <point x="72" y="332" type="line"/>
    </contour>
  </outline>
</glyph>
<glyph name="quotedblleft" format="2">
  <advance width="441"/>
  <unicode hex="201C"/>
  <outline>
    <contour>
      <point x="326" y="750" type="line"/>
      <point x="243" y="750" type="line"/>
      <point x="96" y="486" type="line"/>
      <point x="208" y="486" type="line"/>
    </contour>
    <contour>
      <point x="517" y="750" type="line"/>
      <point x="434" y="750" type="line"/>
      <point x="286" y="486" type="line"/>
      <point x="399" y="486" type="line"/>
    </contour>
  </outline>
</glyph>
<glyph name="dagger" format="2">
  <advance width="440"/>
  <unicode hex="2020"/>
  <outline>
    <contour>
      <point x="122" y="0" type="line"/>
      <point x="210" y="0" type="line"/>
      <point x="301" y="427" type="line"/>
      <point x="430" y="427" type="line"/>
      <point x="448" y="507" type="line"/>
      <point x="318" y="507" type="line"/>
      <point x="359" y="700" type="line"/>
      <point x="271" y="700" type="line"/>
      <point x="229" y="507" type="line"/>
      <point x="101" y="507" type="line"/>
      <point x="83" y="427" type="line"/>
      <point x="212" y="427" type="line"/>
    </contour>
  </outline>
</glyph>
<glyph name="daggerdbl" format="2">
  <advance width="440"/>
  <unicode hex="2021"/>
  <outline>
    <contour>
      <point x="122" y="0" type="line"/>
      <point x="210" y="0" type="line"/>
      <point x="252" y="193" type="line"/>
      <point x="379" y="193" type="line"/>
      <point x="397" y="273" type="line"/>
      <point x="269" y="273" type="line"/>
      <point x="301" y="427" type="line"/>
      <point x="430" y="427" type="line"/>
      <point x="448" y="507" type="line"/>
      <point x="318" y="507" type="line"/>
      <point x="359" y="700" type="line"/>
      <point x="271" y="700" type="line"/>
      <point x="229" y="507" type="line"/>
      <point x="101" y="507" type="line"/>
      <point x="83" y="427" type="line"/>
      <point x="212" y="427" type="line"/>
      <point x="180" y="273" type="line"/>
      <point x="51" y="273" type="line"/>
      <point x="33" y="193" type="line"/>
      <point x="163" y="193" type="line"/>
    </contour>
  </outline>
</glyph>
<glyph name="bullet" format="2">
  <advance width="351"/>
  <unicode hex="2022"/>
  <outline>
    <contour>
      <point x="181" y="230" type="curve" smooth="yes"/>
      <point x="243" y="230"/>
      <point x="299" y="288"/>
      <point x="299" y="354" type="curve" smooth="yes"/>
      <point x="299" y="409"/>
      <point x="259" y="450"/>
      <point x="206" y="450" type="curve" smooth="yes"/>
      <point x="141" y="450"/>
      <point x="87" y="393"/>
      <point x="87" y="327" type="curve" smooth="yes"/>
      <point x="87" y="272"/>
      <point x="128" y="230"/>
    </contour>
  </outline>
</glyph>
<glyph name="guilsinglleft" format="2">
  <advance width="417"/>
  <unicode hex="2039"/>
  <outline>
    <contour>
      <point x="205" y="0" type="line"/>
      <point x="315" y="0" type="line"/>
      <point x="152" y="248" type="line"/>
      <point x="427" y="501" type="line"/>
      <point x="314" y="501" type="line"/>
      <point x="36" y="251" type="line"/>
    </contour>
  </outline>
</glyph>
<glyph name="guilsinglright" format="2">
  <advance width="426"/>
  <unicode hex="203A"/>
  <outline>
    <contour>
      <point x="221" y="501" type="line"/>
      <point x="111" y="501" type="line"/>
      <point x="273" y="252" type="line"/>
      <point x="-1" y="0" type="line"/>
      <point x="112" y="0" type="line"/>
      <point x="390" y="250" type="line"/>
    </contour>
  </outline>
</glyph>
<glyph name="fraction" format="2">
  <advance width="566"/>
  <unicode hex="2044"/>
  <outline>
    <contour>
      <point x="-15" y="0" type="line"/>
      <point x="63" y="0" type="line"/>
      <point x="601" y="700" type="line"/>
      <point x="521" y="700" type="line"/>
    </contour>
  </outline>
</glyph>
<glyph name="uni2070" format="2">
  <advance width="353"/>
  <unicode hex="2070"/>
  <outline>
    <contour>
      <point x="209" y="345" type="curve" smooth="yes"/>
      <point x="307" y="345"/>
      <point x="386" y="444"/>
      <point x="386" y="566" type="curve" smooth="yes"/>
      <point x="386" y="651"/>
      <point x="336" y="705"/>
      <point x="257" y="705" type="curve" smooth="yes"/>
      <point x="160" y="705"/>
      <point x="80" y="607"/>
      <point x="80" y="485" type="curve" smooth="yes"/>
      <point x="80" y="399"/>
      <point x="130" y="345"/>
    </contour>
    <contour>
      <point x="216" y="407" type="curve" smooth="yes"/>
      <point x="173" y="407"/>
      <point x="148" y="438"/>
      <point x="148" y="490" type="curve" smooth="yes"/>
      <point x="148" y="573"/>
      <point x="194" y="644"/>
      <point x="250" y="644" type="curve" smooth="yes"/>
      <point x="292" y="644"/>
      <point x="318" y="612"/>
      <point x="318" y="561" type="curve" smooth="yes"/>
      <point x="318" y="477"/>
      <point x="272" y="407"/>
    </contour>
  </outline>
</glyph>
<glyph name="uni2074" format="2">
  <advance width="340"/>
  <unicode hex="2074"/>
  <outline>
    <contour>
      <point x="232" y="350" type="line"/>
      <point x="301" y="350" type="line"/>
      <point x="318" y="431" type="line"/>
      <point x="359" y="431" type="line"/>
      <point x="372" y="488" type="line"/>
      <point x="330" y="488" type="line"/>
      <point x="375" y="700" type="line"/>
      <point x="295" y="700" type="line"/>
      <point x="74" y="489" type="line"/>
      <point x="62" y="431" type="line"/>
      <point x="249" y="431" type="line"/>
    </contour>
    <contour>
      <point x="146" y="488" type="line"/>
      <point x="291" y="627" type="line"/>
      <point x="261" y="488" type="line"/>
    </contour>
  </outline>
</glyph>
<glyph name="uni2075" format="2">
  <advance width="309"/>
  <unicode hex="2075"/>
  <outline>
    <contour>
      <point x="185" y="345" type="curve"/>
      <point x="268" y="345"/>
      <point x="331" y="401"/>
      <point x="331" y="474" type="curve" smooth="yes"/>
      <point x="331" y="530"/>
      <point x="285" y="569"/>
      <point x="217" y="569" type="curve" smooth="yes"/>
      <point x="200" y="569"/>
      <point x="182" y="566"/>
      <point x="163" y="559" type="curve"/>
      <point x="184" y="642" type="line"/>
      <point x="349" y="642" type="line"/>
      <point x="362" y="700" type="line"/>
      <point x="139" y="700" type="line"/>
      <point x="95" y="524" type="line"/>
      <point x="138" y="506" type="line"/>
      <point x="157" y="514"/>
      <point x="173" y="517"/>
      <point x="195" y="517" type="curve" smooth="yes"/>
      <point x="234" y="517"/>
      <point x="259" y="497"/>
      <point x="259" y="464" type="curve" smooth="yes"/>
      <point x="259" y="429"/>
      <point x="227" y="402"/>
      <point x="187" y="402" type="curve"/>
      <point x="157" y="402"/>
      <point x="131" y="413"/>
      <point x="98" y="441" type="curve"/>
      <point x="56" y="392" type="line"/>
      <point x="90" y="360"/>
      <point x="132" y="345"/>
    </contour>
  </outline>
</glyph>
<glyph name="uni2076" format="2">
  <advance width="329"/>
  <unicode hex="2076"/>
  <outline>
    <contour>
      <point x="210" y="345" type="curve" smooth="yes"/>
      <point x="286" y="345"/>
      <point x="348" y="402"/>
      <point x="348" y="472" type="curve" smooth="yes"/>
      <point x="348" y="525"/>
      <point x="307" y="563"/>
      <point x="249" y="563" type="curve" smooth="yes"/>
      <point x="213" y="563"/>
      <point x="178" y="548"/>
      <point x="152" y="522" type="curve"/>
      <point x="164" y="592"/>
      <point x="210" y="644"/>
      <point x="266" y="644" type="curve" smooth="yes"/>
      <point x="290" y="644"/>
      <point x="315" y="634"/>
      <point x="337" y="616" type="curve"/>
      <point x="377" y="668" type="line"/>
      <point x="347" y="693"/>
      <point x="315" y="704"/>
      <point x="276" y="704" type="curve" smooth="yes"/>
      <point x="169" y="704"/>
      <point x="81" y="606"/>
      <point x="81" y="486" type="curve" smooth="yes"/>
      <point x="81" y="399"/>
      <point x="131" y="345"/>
    </contour>
    <contour>
      <point x="217" y="405" type="curve" smooth="yes"/>
      <point x="175" y="405"/>
      <point x="150" y="436"/>
      <point x="149" y="484" type="curve"/>
      <point x="171" y="502"/>
      <point x="197" y="513"/>
      <point x="222" y="513" type="curve" smooth="yes"/>
      <point x="257" y="513"/>
      <point x="281" y="492"/>
      <point x="281" y="463" type="curve" smooth="yes"/>
      <point x="281" y="431"/>
      <point x="252" y="405"/>
    </contour>
  </outline>
</glyph>
<glyph name="uni2077" format="2">
  <advance width="307"/>
  <unicode hex="2077"/>
  <outline>
    <contour>
      <point x="78" y="350" type="line"/>
      <point x="165" y="350" type="line"/>
      <point x="374" y="647" type="line"/>
      <point x="385" y="700" type="line"/>
      <point x="116" y="700" type="line"/>
      <point x="102" y="638" type="line"/>
      <point x="293" y="638" type="line"/>
    </contour>
  </outline>
</glyph>
<glyph name="uni2078" format="2">
  <advance width="327"/>
  <unicode hex="2078"/>
  <outline>
    <contour>
      <point x="196" y="345" type="curve" smooth="yes"/>
      <point x="275" y="345"/>
      <point x="339" y="393"/>
      <point x="339" y="453" type="curve" smooth="yes"/>
      <point x="339" y="488"/>
      <point x="316" y="515"/>
      <point x="282" y="526" type="curve"/>
      <point x="328" y="539"/>
      <point x="361" y="576"/>
      <point x="361" y="618" type="curve" smooth="yes"/>
      <point x="361" y="668"/>
      <point x="312" y="706"/>
      <point x="247" y="706" type="curve" smooth="yes"/>
      <point x="174" y="706"/>
      <point x="112" y="657"/>
      <point x="112" y="599" type="curve" smooth="yes"/>
      <point x="112" y="569"/>
      <point x="129" y="546"/>
      <point x="158" y="533" type="curve"/>
      <point x="106" y="522"/>
      <point x="68" y="482"/>
      <point x="68" y="435" type="curve" smooth="yes"/>
      <point x="68" y="382"/>
      <point x="121" y="345"/>
    </contour>
    <contour>
      <point x="232" y="555" type="curve" smooth="yes"/>
      <point x="202" y="555"/>
      <point x="180" y="573"/>
      <point x="180" y="597" type="curve" smooth="yes"/>
      <point x="180" y="626"/>
      <point x="207" y="649"/>
      <point x="241" y="649" type="curve" smooth="yes"/>
      <point x="269" y="649"/>
      <point x="292" y="630"/>
      <point x="292" y="606" type="curve" smooth="yes"/>
      <point x="292" y="579"/>
      <point x="264" y="555"/>
    </contour>
    <contour>
      <point x="201" y="402" type="curve" smooth="yes"/>
      <point x="165" y="402"/>
      <point x="139" y="421"/>
      <point x="139" y="449" type="curve" smooth="yes"/>
      <point x="139" y="479"/>
      <point x="169" y="503"/>
      <point x="208" y="503" type="curve" smooth="yes"/>
      <point x="244" y="503"/>
      <point x="270" y="483"/>
      <point x="270" y="456" type="curve" smooth="yes"/>
      <point x="270" y="426"/>
      <point x="239" y="402"/>
    </contour>
  </outline>
</glyph>
<glyph name="uni2079" format="2">
  <advance width="329"/>
  <unicode hex="2079"/>
  <outline>
    <contour>
      <point x="232" y="704" type="curve" smooth="yes"/>
      <point x="156" y="704"/>
      <point x="94" y="647"/>
      <point x="94" y="577" type="curve" smooth="yes"/>
      <point x="94" y="524"/>
      <point x="135" y="486"/>
      <point x="193" y="486" type="curve" smooth="yes"/>
      <point x="229" y="486"/>
      <point x="264" y="501"/>
      <point x="290" y="527" type="curve"/>
      <point x="278" y="457"/>
      <point x="232" y="405"/>
      <point x="176" y="405" type="curve" smooth="yes"/>
      <point x="152" y="405"/>
      <point x="127" y="415"/>
      <point x="105" y="433" type="curve"/>
      <point x="65" y="381" type="line"/>
      <point x="95" y="356"/>
      <point x="127" y="345"/>
      <point x="166" y="345" type="curve" smooth="yes"/>
      <point x="273" y="345"/>
      <point x="361" y="443"/>
      <point x="361" y="563" type="curve" smooth="yes"/>
      <point x="361" y="650"/>
      <point x="311" y="704"/>
    </contour>
    <contour>
      <point x="225" y="644" type="curve" smooth="yes"/>
      <point x="267" y="644"/>
      <point x="292" y="613"/>
      <point x="293" y="565" type="curve"/>
      <point x="271" y="547"/>
      <point x="245" y="536"/>
      <point x="220" y="536" type="curve" smooth="yes"/>
      <point x="185" y="536"/>
      <point x="161" y="557"/>
      <point x="161" y="586" type="curve" smooth="yes"/>
      <point x="161" y="618"/>
      <point x="190" y="644"/>
    </contour>
  </outline>
</glyph>
<glyph name="uni2080" format="2">
  <advance width="352"/>
  <unicode hex="2080"/>
  <outline>
    <contour>
      <point x="135" y="-5" type="curve" smooth="yes"/>
      <point x="233" y="-5"/>
      <point x="312" y="94"/>
      <point x="312" y="216" type="curve" smooth="yes"/>
      <point x="312" y="301"/>
      <point x="262" y="355"/>
      <point x="183" y="355" type="curve" smooth="yes"/>
      <point x="86" y="355"/>
      <point x="6" y="257"/>
      <point x="6" y="135" type="curve" smooth="yes"/>
      <point x="6" y="49"/>
      <point x="56" y="-5"/>
    </contour>
    <contour>
      <point x="142" y="57" type="curve" smooth="yes"/>
      <point x="99" y="57"/>
      <point x="74" y="88"/>
      <point x="74" y="140" type="curve" smooth="yes"/>
      <point x="74" y="223"/>
      <point x="120" y="294"/>
      <point x="176" y="294" type="curve" smooth="yes"/>
      <point x="218" y="294"/>
      <point x="244" y="262"/>
      <point x="244" y="211" type="curve" smooth="yes"/>
      <point x="244" y="127"/>
      <point x="198" y="57"/>
    </contour>
  </outline>
</glyph>
<glyph name="uni2081" format="2">
  <advance width="184"/>
  <unicode hex="2081"/>
  <outline>
    <contour>
      <point x="33" y="0" type="line"/>
      <point x="102" y="0" type="line"/>
      <point x="177" y="350" type="line"/>
      <point x="133" y="350" type="line"/>
      <point x="33" y="310" type="line"/>
      <point x="20" y="249" type="line"/>
      <point x="93" y="277" type="line"/>
    </contour>
  </outline>
</glyph>
<glyph name="uni2082" format="2">
  <advance width="298"/>
  <unicode hex="2082"/>
  <outline>
    <contour>
      <point x="-25" y="0" type="line"/>
      <point x="222" y="0" type="line"/>
      <point x="234" y="59" type="line"/>
      <point x="81" y="59" type="line"/>
      <point x="204" y="159" type="line" smooth="yes"/>
      <point x="251" y="195"/>
      <point x="270" y="227"/>
      <point x="270" y="266" type="curve" smooth="yes"/>
      <point x="270" y="319"/>
      <point x="224" y="355"/>
      <point x="158" y="355" type="curve" smooth="yes"/>
      <point x="116" y="355"/>
      <point x="72" y="338"/>
      <point x="29" y="306" type="curve"/>
      <point x="57" y="256" type="line"/>
      <point x="92" y="283"/>
      <point x="119" y="294"/>
      <point x="146" y="294" type="curve" smooth="yes"/>
      <point x="179" y="294"/>
      <point x="200" y="277"/>
      <point x="200" y="252" type="curve" smooth="yes"/>
      <point x="200" y="231"/>
      <point x="186" y="210"/>
      <point x="157" y="188" type="curve" smooth="yes"/>
      <point x="-14" y="50" type="line"/>
    </contour>
  </outline>
</glyph>
<glyph name="uni2083" format="2">
  <advance width="317"/>
  <unicode hex="2083"/>
  <outline>
    <contour>
      <point x="115" y="-5" type="curve" smooth="yes"/>
      <point x="194" y="-5"/>
      <point x="256" y="44"/>
      <point x="256" y="105" type="curve" smooth="yes"/>
      <point x="256" y="139"/>
      <point x="234" y="163"/>
      <point x="196" y="174" type="curve"/>
      <point x="245" y="186"/>
      <point x="282" y="221"/>
      <point x="282" y="261" type="curve" smooth="yes"/>
      <point x="282" y="317"/>
      <point x="233" y="356"/>
      <point x="165" y="356" type="curve" smooth="yes"/>
      <point x="122" y="356"/>
      <point x="76" y="341"/>
      <point x="34" y="312" type="curve"/>
      <point x="67" y="261" type="line"/>
      <point x="102" y="283"/>
      <point x="129" y="293"/>
      <point x="155" y="293" type="curve" smooth="yes"/>
      <point x="186" y="293"/>
      <point x="210" y="274"/>
      <point x="210" y="248" type="curve" smooth="yes"/>
      <point x="210" y="222"/>
      <point x="181" y="202"/>
      <point x="141" y="202" type="curve" smooth="yes"/>
      <point x="112" y="202" type="line"/>
      <point x="100" y="145" type="line"/>
      <point x="136" y="145" type="line" smooth="yes"/>
      <point x="168" y="145"/>
      <point x="188" y="129"/>
      <point x="188" y="103" type="curve" smooth="yes"/>
      <point x="188" y="76"/>
      <point x="158" y="57"/>
      <point x="120" y="57" type="curve" smooth="yes"/>
      <point x="85" y="57"/>
      <point x="54" y="71"/>
      <point x="28" y="98" type="curve"/>
      <point x="-19" y="53" type="line"/>
      <point x="11" y="14"/>
      <point x="57" y="-5"/>
    </contour>
  </outline>
</glyph>
<glyph name="uni2084" format="2">
  <advance width="339"/>
  <unicode hex="2084"/>
  <outline>
    <contour>
      <point x="158" y="0" type="line"/>
      <point x="227" y="0" type="line"/>
      <point x="244" y="81" type="line"/>
      <point x="285" y="81" type="line"/>
      <point x="298" y="138" type="line"/>
      <point x="256" y="138" type="line"/>
      <point x="301" y="350" type="line"/>
      <point x="221" y="350" type="line"/>
      <point x="0" y="139" type="line"/>
      <point x="-12" y="81" type="line"/>
      <point x="175" y="81" type="line"/>
    </contour>
    <contour>
      <point x="72" y="138" type="line"/>
      <point x="217" y="277" type="line"/>
      <point x="187" y="138" type="line"/>
    </contour>
  </outline>
</glyph>
<glyph name="uni2085" format="2">
  <advance width="309"/>
  <unicode hex="2085"/>
  <outline>
    <contour>
      <point x="111" y="-5" type="curve"/>
      <point x="194" y="-5"/>
      <point x="257" y="51"/>
      <point x="257" y="124" type="curve" smooth="yes"/>
      <point x="257" y="180"/>
      <point x="211" y="219"/>
      <point x="143" y="219" type="curve" smooth="yes"/>
      <point x="126" y="219"/>
      <point x="108" y="216"/>
      <point x="89" y="209" type="curve"/>
      <point x="110" y="292" type="line"/>
      <point x="275" y="292" type="line"/>
      <point x="288" y="350" type="line"/>
      <point x="65" y="350" type="line"/>
      <point x="21" y="174" type="line"/>
      <point x="64" y="156" type="line"/>
      <point x="83" y="164"/>
      <point x="99" y="167"/>
      <point x="121" y="167" type="curve" smooth="yes"/>
      <point x="160" y="167"/>
      <point x="185" y="147"/>
      <point x="185" y="114" type="curve" smooth="yes"/>
      <point x="185" y="79"/>
      <point x="153" y="52"/>
      <point x="113" y="52" type="curve"/>
      <point x="83" y="52"/>
      <point x="57" y="63"/>
      <point x="24" y="91" type="curve"/>
      <point x="-18" y="42" type="line"/>
      <point x="16" y="10"/>
      <point x="58" y="-5"/>
    </contour>
  </outline>
</glyph>
<glyph name="uni2086" format="2">
  <advance width="331"/>
  <unicode hex="2086"/>
  <outline>
    <contour>
      <point x="136" y="-5" type="curve" smooth="yes"/>
      <point x="212" y="-5"/>
      <point x="274" y="52"/>
      <point x="274" y="122" type="curve" smooth="yes"/>
      <point x="274" y="175"/>
      <point x="233" y="213"/>
      <point x="175" y="213" type="curve" smooth="yes"/>
      <point x="139" y="213"/>
      <point x="104" y="198"/>
      <point x="78" y="172" type="curve"/>
      <point x="90" y="242"/>
      <point x="136" y="294"/>
      <point x="192" y="294" type="curve" smooth="yes"/>
      <point x="216" y="294"/>
      <point x="241" y="284"/>
      <point x="263" y="266" type="curve"/>
      <point x="303" y="318" type="line"/>
      <point x="273" y="343"/>
      <point x="241" y="354"/>
      <point x="202" y="354" type="curve" smooth="yes"/>
      <point x="95" y="354"/>
      <point x="7" y="256"/>
      <point x="7" y="136" type="curve" smooth="yes"/>
      <point x="7" y="49"/>
      <point x="57" y="-5"/>
    </contour>
    <contour>
      <point x="143" y="55" type="curve" smooth="yes"/>
      <point x="101" y="55"/>
      <point x="76" y="86"/>
      <point x="75" y="134" type="curve"/>
      <point x="97" y="152"/>
      <point x="123" y="163"/>
      <point x="148" y="163" type="curve" smooth="yes"/>
      <point x="183" y="163"/>
      <point x="207" y="142"/>
      <point x="207" y="113" type="curve" smooth="yes"/>
      <point x="207" y="81"/>
      <point x="178" y="55"/>
    </contour>
  </outline>
</glyph>
<glyph name="uni2087" format="2">
  <advance width="307"/>
  <unicode hex="2087"/>
  <outline>
    <contour>
      <point x="4" y="0" type="line"/>
      <point x="91" y="0" type="line"/>
      <point x="300" y="297" type="line"/>
      <point x="311" y="350" type="line"/>
      <point x="42" y="350" type="line"/>
      <point x="28" y="288" type="line"/>
      <point x="219" y="288" type="line"/>
    </contour>
  </outline>
</glyph>
<glyph name="uni2088" format="2">
  <advance width="326"/>
  <unicode hex="2088"/>
  <outline>
    <contour>
      <point x="122" y="-5" type="curve" smooth="yes"/>
      <point x="201" y="-5"/>
      <point x="265" y="43"/>
      <point x="265" y="103" type="curve" smooth="yes"/>
      <point x="265" y="138"/>
      <point x="242" y="165"/>
      <point x="208" y="176" type="curve"/>
      <point x="254" y="189"/>
      <point x="287" y="226"/>
      <point x="287" y="268" type="curve" smooth="yes"/>
      <point x="287" y="318"/>
      <point x="238" y="356"/>
      <point x="173" y="356" type="curve" smooth="yes"/>
      <point x="100" y="356"/>
      <point x="38" y="307"/>
      <point x="38" y="249" type="curve" smooth="yes"/>
      <point x="38" y="219"/>
      <point x="55" y="196"/>
      <point x="84" y="183" type="curve"/>
      <point x="32" y="172"/>
      <point x="-6" y="132"/>
      <point x="-6" y="85" type="curve" smooth="yes"/>
      <point x="-6" y="32"/>
      <point x="47" y="-5"/>
    </contour>
    <contour>
      <point x="158" y="205" type="curve" smooth="yes"/>
      <point x="128" y="205"/>
      <point x="106" y="223"/>
      <point x="106" y="247" type="curve" smooth="yes"/>
      <point x="106" y="276"/>
      <point x="133" y="299"/>
      <point x="167" y="299" type="curve" smooth="yes"/>
      <point x="195" y="299"/>
      <point x="218" y="280"/>
      <point x="218" y="256" type="curve" smooth="yes"/>
      <point x="218" y="229"/>
      <point x="190" y="205"/>
    </contour>
    <contour>
      <point x="127" y="52" type="curve" smooth="yes"/>
      <point x="91" y="52"/>
      <point x="65" y="71"/>
      <point x="65" y="99" type="curve" smooth="yes"/>
      <point x="65" y="129"/>
      <point x="95" y="153"/>
      <point x="134" y="153" type="curve" smooth="yes"/>
      <point x="170" y="153"/>
      <point x="196" y="133"/>
      <point x="196" y="106" type="curve" smooth="yes"/>
      <point x="196" y="76"/>
      <point x="165" y="52"/>
    </contour>
  </outline>
</glyph>
